<?xml version="1.0" encoding="UTF-8"?>
<svg width="57px" height="62px" viewBox="0 0 57 62" version="1.1" xmlns="http://www.w3.org/2000/svg" xmlns:xlink="http://www.w3.org/1999/xlink">
    <!-- Generator: Sketch 42 (36781) - http://www.bohemiancoding.com/sketch -->
    <title>2shakes</title>
    <desc>Created with Sketch.</desc>
    <defs>
        <polygon id="path-1" points="30.7003562 46.9722987 30.7003562 0.750906329 0.525961644 0.750906329 0.525961644 46.9722987"></polygon>
        <polygon id="path-3" points="31.592211 0.682 0.000156164383 0.682 0.000156164384 46.9726127 31.592211 46.9726127 31.592211 0.682"></polygon>
    </defs>
    <g id="Page-1" stroke="none" stroke-width="1" fill="none" fill-rule="evenodd">
        <g id="2shakes" transform="translate(-82.000000, -9.000000)">
            <g transform="translate(82.000000, 9.000000)">
                <path d="M0.885452055,61.0702354 L7.94408219,61.0702354 L8.16349315,59.3915266 L3.97906849,59.3915266 C4.25391781,59.1537291 4.51236986,58.9434 4.75442466,58.7605392 C4.99413699,58.5768937 5.23150685,58.3916785 5.46731507,58.2088177 C5.91082192,57.8423114 6.29030137,57.500919 6.60965753,57.1838557 C6.9290137,56.868362 7.19293151,56.5536532 7.39828767,56.2428684 C7.60442466,55.9297291 7.75980822,55.6110962 7.86209589,55.2854 C7.96594521,54.9604886 8.01747945,54.6049696 8.01747945,54.2196278 C8.01747945,53.3210203 7.72232877,52.6107671 7.13280822,52.0872987 C6.54406849,51.5646152 5.67969863,51.3024886 4.54047945,51.3024886 C3.89161644,51.3024886 3.34582192,51.3809696 2.90465753,51.536362 C2.46193151,51.6925392 2.09572603,51.9052228 1.8060411,52.1775519 C1.51713699,52.4475266 1.28757534,52.7583114 1.12126027,53.1122608 C0.954945205,53.4646405 0.826109589,53.8389949 0.737876712,54.2337544 L2.7430274,54.4527165 C2.87967123,53.8750962 3.08815068,53.4834759 3.36846575,53.2762861 C3.648,53.0714506 4.03450685,52.9670709 4.52486301,52.9670709 C4.93791781,52.9670709 5.26430137,53.0934253 5.50557534,53.3461342 C5.74528767,53.5980582 5.86631507,53.9214 5.86631507,54.3161595 C5.86631507,54.6190962 5.81478082,54.8953494 5.71093151,55.1480582 C5.60708219,55.4007671 5.45326027,55.6550456 5.24712329,55.9108937 C5.04020548,56.1683114 4.78253425,56.4335772 4.47254795,56.7098304 C4.16334247,56.9845139 3.80338356,57.2929443 3.39032877,57.6304127 C2.96790411,57.9796532 2.55094521,58.3124127 2.13789041,58.6294759 C1.72639726,58.9449696 1.30865753,59.2777291 0.885452055,59.6254 L0.885452055,61.0702354 Z M8.72490411,57.8642861 C8.78268493,59.0210962 9.19261644,59.885957 9.95469863,60.4580835 C10.7152192,61.0309949 11.8138356,61.3182354 13.2482055,61.3182354 C13.9345479,61.3182354 14.5334384,61.2428937 15.0456575,61.0906405 C15.5563151,60.9391722 15.9810822,60.728843 16.3199589,60.4580835 C16.6580548,60.1873241 16.9141644,59.8718304 17.0851644,59.5084633 C17.2585068,59.1466658 17.3428356,58.7503367 17.3428356,58.3194759 C17.3428356,57.4302861 17.0789178,56.7475013 16.5479589,56.2758304 C16.017,55.8033747 15.1830822,55.4619823 14.043863,55.2508684 L12.5993425,54.9903114 C12.0683836,54.8890709 11.6928082,54.7470203 11.4726164,54.5641595 C11.250863,54.3805139 11.1415479,54.1058304 11.1415479,53.7377544 C11.1415479,53.6004127 11.1696575,53.4669949 11.2297808,53.3398557 C11.2875616,53.210362 11.391411,53.0981342 11.5389863,53.0023873 C11.6865616,52.9058557 11.8802055,52.8281595 12.1199178,52.7685139 C12.360411,52.7080835 12.6688356,52.6782608 13.0405068,52.6782608 C13.6698493,52.6782608 14.1391233,52.7983367 14.4491096,53.036919 C14.7583151,53.2747165 14.9660137,53.6647671 15.0737671,54.2055013 L17.1530959,53.9582861 C17.1031233,53.5737291 17.0023973,53.2009443 16.8493562,52.8438557 C16.6970959,52.4867671 16.4651918,52.172843 16.1505205,51.9005139 C15.8358493,51.6313241 15.4227945,51.4131468 14.912137,51.2483367 C14.4014795,51.0827418 13.7635479,51.0011215 12.9967808,51.0011215 C12.3986712,51.0011215 11.8481918,51.0623367 11.3469041,51.1855519 C10.8456164,51.3103367 10.4153836,51.490843 10.0569863,51.7294253 C9.69858904,51.9687924 9.41905479,52.2654506 9.21760274,52.6241089 C9.01693151,52.9811975 8.91620548,53.3940076 8.91620548,53.8625392 C8.91620548,54.3302861 8.99038356,54.7328937 9.13639726,55.0719316 C9.2839726,55.4117544 9.49791781,55.6974253 9.77745205,55.9328684 C10.0569863,56.1667418 10.4044521,56.355881 10.8159452,56.5034253 C11.2297808,56.6501848 11.7053014,56.7702608 12.2456301,56.8620835 L13.6159726,57.095957 C14.1656712,57.1964127 14.5443699,57.3588684 14.7505068,57.5833241 C14.9566438,57.8077797 15.0597123,58.0487165 15.0597123,58.3053494 C15.0597123,58.4882101 15.0284795,58.6592987 14.9644521,58.8139063 C14.8996438,58.9700835 14.7942329,59.1058557 14.6466575,59.2196532 C14.5006438,59.3350203 14.3085616,59.4260582 14.0735342,59.4959063 C13.837726,59.5634 13.5464795,59.5987165 13.2029178,59.5987165 C12.4861233,59.5987165 11.9442329,59.4613747 11.5749041,59.1866911 C11.207137,58.9096532 10.9986575,58.4709443 10.9494658,57.8642861 L8.72490411,57.8642861 Z M18.1400548,61.0702354 L20.2029863,61.0702354 L20.2029863,56.7506405 C20.2029863,56.5395266 20.248274,56.3448937 20.3427534,56.1667418 C20.4356712,55.9862354 20.5504521,55.8331975 20.6878767,55.7052734 C20.8549726,55.5679316 21.0337808,55.4619823 21.225863,55.3882101 C21.4171644,55.3152228 21.646726,55.2791215 21.9106438,55.2791215 C22.2549863,55.2791215 22.5298356,55.3709443 22.7351918,55.5545899 C22.9428904,55.7374506 23.0451781,56.0819823 23.0451781,56.5850456 L23.0451781,61.0702354 L25.1081096,61.0702354 L25.1081096,56.3244886 C25.1081096,55.4070456 24.8980685,54.7360329 24.474863,54.309881 C24.0524384,53.8829443 23.405137,53.6694759 22.5298356,53.6694759 C22.0886712,53.6694759 21.6654658,53.7612987 21.2633425,53.9449443 C20.8596575,54.1278051 20.5059452,54.4126911 20.2029863,54.7972481 L20.2029863,51.2483367 L18.1400548,51.2483367 L18.1400548,61.0702354 Z M30.8401233,61.0702354 L32.7851507,61.0702354 L32.7851507,56.5301089 C32.7851507,56.0906152 32.7289315,55.6942861 32.6157123,55.3403367 C32.5024932,54.9887418 32.3205616,54.6865899 32.0699178,54.4393747 C31.8208356,54.1921595 31.4889863,54.0014506 31.0759315,53.8688177 C30.6628767,53.7361848 30.1631507,53.6694759 29.5736301,53.6694759 C28.6108767,53.6694759 27.8433288,53.8374253 27.2748904,54.1717544 C26.7041096,54.5068684 26.3511781,55.049957 26.2129726,55.8018051 L28.1002192,55.9658304 C28.2181233,55.3882101 28.6850548,55.1009696 29.4994521,55.1009696 C29.8539452,55.1009696 30.1600274,55.1825899 30.4208219,55.3474 C30.6800548,55.5129949 30.8104521,55.8167165 30.8104521,56.2546405 L30.8104521,56.6132987 L29.824274,56.6548937 C29.3323562,56.6737291 28.8482466,56.7192481 28.3719452,56.7922354 C27.8956438,56.8667924 27.4669726,56.9900076 27.083589,57.1626658 C26.7002055,57.3384633 26.3902192,57.5801848 26.154411,57.8925392 C25.9193836,58.2041089 25.8014795,58.6082861 25.8014795,59.1027165 C25.8014795,59.4802101 25.8701918,59.8027671 26.0068356,60.0727418 C26.1458219,60.3435013 26.3293151,60.5663873 26.5604384,60.7406152 C26.7915616,60.9140582 27.0609452,61.0435519 27.3709315,61.1251722 C27.680137,61.208362 28.0057397,61.2491722 28.3500822,61.2491722 C28.9481918,61.2491722 29.4385479,61.1479316 29.8156849,60.9478051 C30.1943836,60.7453241 30.5356027,60.4831975 30.8401233,60.1622101 L30.8401233,61.0702354 Z M30.7963973,58.2378557 C30.7963973,58.5313747 30.736274,58.7754506 30.6183699,58.9732228 C30.5012466,59.1702101 30.3482055,59.3334506 30.1631507,59.4613747 C29.8281781,59.6897544 29.3963836,59.8059063 28.8654247,59.8059063 C28.5515342,59.8059063 28.3055753,59.7360582 28.1298904,59.5987165 C27.9526438,59.4613747 27.864411,59.2730203 27.864411,59.034438 C27.864411,58.8782608 27.8878356,58.7362101 27.9378082,58.6082861 C27.987,58.480362 28.0830411,58.3673494 28.2243699,58.2708177 C28.3672603,58.1742861 28.5710548,58.0950203 28.8373151,58.0306658 C29.1012329,57.9655266 29.4494795,57.9247165 29.8820548,57.9074506 L30.7963973,57.8642861 L30.7963973,58.2378557 Z M33.6549863,61.0702354 L35.673411,61.0702354 L35.673411,58.3461595 L36.7486027,57.4381342 L39.0168904,61.0702354 L41.2422329,61.0702354 L38.2220137,56.3660835 L41.0220411,53.8900076 L38.6342877,53.8900076 L35.673411,56.3927671 L35.673411,51.2483367 L33.6549863,51.2483367 L33.6549863,61.0702354 Z M46.1926438,58.8280329 C46.0458493,59.4707924 45.564863,59.7909949 44.7496849,59.7909949 C44.1601644,59.7909949 43.7182192,59.6285392 43.4230685,59.302843 C43.1294795,58.9779316 42.9701918,58.5266658 42.9514521,57.9474759 L48.2860274,57.9474759 L48.2860274,57.1775772 C48.2860274,56.103957 47.9877534,55.2508684 47.3935479,54.6190962 C46.8001233,53.9857544 45.9138904,53.6694759 44.7348493,53.6694759 C44.1648493,53.6694759 43.6448219,53.7534506 43.1732055,53.9245392 C42.7023699,54.0924886 42.2963425,54.342843 41.9574658,54.6748177 C41.6178082,55.004438 41.3554521,55.4054759 41.1680548,55.8779316 C40.983,56.3496025 40.8885205,56.8887671 40.8885205,57.4930709 C40.8885205,58.7040329 41.211,59.6395266 41.8536164,60.3003367 C42.4977945,60.9595772 43.4574247,61.2899823 44.7348493,61.2899823 C45.7959863,61.2899823 46.6033562,61.0820076 47.1585205,60.6644886 C47.7129041,60.2477544 48.059589,59.6348177 48.1970137,58.8280329 L46.1926438,58.8280329 Z M42.9811233,56.6815772 C42.991274,56.4618304 43.0342192,56.2585646 43.113863,56.0702101 C43.192726,55.8826405 43.3020411,55.7170456 43.4449315,55.5742101 C43.5878219,55.4321595 43.762726,55.3207165 43.9680822,55.2375266 C44.1734384,55.1543367 44.4147123,55.1135266 44.6911233,55.1135266 C45.2416027,55.1135266 45.6445068,55.2508684 45.9053014,55.5279063 C46.1660959,55.8018051 46.2964932,56.1871468 46.2964932,56.6815772 L42.9811233,56.6815772 Z M48.7576438,58.7872228 C48.7857534,59.2730203 48.9067808,59.6764127 49.1176027,59.9981848 C49.3292055,60.3183873 49.6001507,60.5742354 49.9280959,60.7672987 C50.2560411,60.9595772 50.6308356,61.0953494 51.0485753,61.1730456 C51.4647534,61.2515266 51.905137,61.2899823 52.3673836,61.2899823 C53.5151918,61.2899823 54.3655068,61.0867165 54.9152055,60.6786152 C55.4649041,60.2697291 55.7405342,59.7266405 55.7405342,59.0493494 C55.7405342,58.7095266 55.6991507,58.4105139 55.6163836,58.1530962 C55.5328356,57.8980329 55.3852603,57.6751468 55.1728767,57.4875772 C54.9628356,57.2992228 54.6801781,57.1406911 54.3256849,57.0111975 C53.9727534,56.8840582 53.5261233,56.7781089 52.9857945,56.6957038 L52.0128904,56.5442354 C51.571726,56.4720329 51.2742329,56.3809949 51.1227534,56.2758304 C50.9704932,56.1714506 50.8931918,56.0042861 50.8931918,55.7735519 C50.8931918,55.7005646 50.9150548,55.6236532 50.9587808,55.5396785 C51.0048493,55.4580582 51.0782466,55.3850709 51.1805342,55.3207165 C51.2843836,55.2555772 51.4257123,55.2029949 51.6076438,55.1621848 C51.7895753,55.1213747 52.0175753,55.1009696 52.2932055,55.1009696 C52.7851233,55.1009696 53.1396164,55.177881 53.3613699,55.3340582 C53.5823425,55.4894506 53.7369452,55.731957 53.8251781,56.062362 L55.6679178,55.8434 C55.6085753,55.5396785 55.5125342,55.2555772 55.3805753,54.9903114 C55.2470548,54.7250456 55.0502877,54.4943114 54.7910548,54.3012481 C54.5302603,54.1089696 54.193726,53.9559316 53.7806712,53.8421342 C53.3691781,53.7267671 52.8593014,53.6694759 52.2486986,53.6694759 C51.7567808,53.6694759 51.3078082,53.7220582 50.901,53.8272228 C50.493411,53.9331722 50.1420411,54.0822861 49.8476712,54.2745646 C49.5525205,54.4676278 49.3245205,54.7015013 49.1613288,54.9754 C48.9996986,55.2508684 48.9200548,55.5632228 48.9200548,55.9108937 C48.9200548,56.5897544 49.147274,57.0975266 49.6048356,57.4318557 C50.0608356,57.7661848 50.7557671,58.0039823 51.6888493,58.1413241 L52.7499863,58.3053494 C53.1224384,58.3602861 53.3754247,58.4568177 53.509726,58.5941595 C53.6409041,58.7322861 53.7064932,58.8931722 53.7064932,59.0760329 C53.7064932,59.3334506 53.601863,59.517881 53.3910411,59.6332481 C53.1794384,59.7470456 52.8280685,59.8059063 52.3369315,59.8059063 C51.9254384,59.8059063 51.571726,59.7407671 51.2757945,59.612843 C50.9822055,59.4833494 50.800274,59.2086658 50.7307808,58.7872228 L48.7576438,58.7872228 Z" id="Fill-1" fill="#FEFEFE"></path>
                <g id="Group-5" transform="translate(25.767123, 0.103203)">
                    <mask id="mask-2" fill="white">
                        <use xlink:href="#path-1"></use>
                    </mask>
                    <g id="Clip-4"></g>
                    <path d="M30.6360164,5.34361519 C26.9310164,2.05369114 22.1703452,0.750906329 17.2238384,0.750906329 C8.6184,0.750906329 0.525961644,5.6544 0.525961644,15.0375899 C0.525961644,29.7025519 21.0561123,25.3515646 21.0561123,33.4311848 C21.0561123,36.5398177 17.5111808,38.4045266 14.3543178,38.4045266 C11.1209342,38.4500456 12.0641671,38.4892861 5.82618082,38.4892861 C5.82618082,38.4892861 3.91486736,39.2284344 3.91486736,39.791497 C3.91486736,41.2269924 1.6705355,43.9681658 2.23287671,45.607011 C2.55767353,46.5535746 5.82618082,46.9722987 5.82618082,46.9722987 L13.8155507,46.9722987 C22.8520027,46.9722987 30.7008247,42.3160203 30.7008247,32.4996152 C30.7008247,17.0835899 10.5384411,22.2437165 10.5384411,14.226881 C10.5384411,10.9330329 14.3121534,9.68989367 17.0372219,9.68989367 C19.3874959,9.68989367 22.4803315,10.6214633 24.0255781,12.6093873 L30.6360164,5.34361519 Z" id="Fill-3" fill="#FEFEFE" mask="url(#mask-2)"></path>
                </g>
                <g id="Group-8" transform="translate(0.000000, 0.103203)">
                    <mask id="mask-4" fill="white">
                        <use xlink:href="#path-3"></use>
                    </mask>
                    <g id="Clip-7"></g>
                    <path d="M0.000156164384,46.9726127 L31.592211,46.9726127 L31.592211,38.4896 L11.5094712,38.4896 L25.2644301,26.5950177 C28.7180055,23.5719291 31.2135123,20.228638 31.2135123,14.3723848 C31.2135123,5.24739747 24.8217041,0.681372152 16.5645123,0.681372152 C7.67095068,0.681372152 1.15186849,5.24739747 0.574841096,14.6298025 L10.1617726,15.3361316 C10.4225671,12.0571949 12.5339096,9.54894177 16.0522932,9.54894177 C18.9998959,9.54894177 21.6218959,11.4144354 21.6218959,14.5003089 C21.6218959,17.2659797 19.3832795,19.1942582 17.587389,20.8666886 L0.000156164384,36.7590937 L0.000156164384,46.9726127 Z" id="Fill-6" fill="#FEFEFE" mask="url(#mask-4)"></path>
                </g>
            </g>
        </g>
    </g>
</svg>