<?xml version="1.0" encoding="UTF-8" standalone="no"?>
<svg width="180px" height="35px" viewBox="0 0 180 35" version="1.1" xmlns="http://www.w3.org/2000/svg" xmlns:xlink="http://www.w3.org/1999/xlink">
    <!-- Generator: Sketch 39.1 (31720) - http://www.bohemiancoding.com/sketch -->
    <title>ico-approvalmax-white</title>
    <desc>Created with Sketch.</desc>
    <defs></defs>
    <g id="Page-1" stroke="none" stroke-width="1" fill="none" fill-rule="evenodd">
        <g id="ico-approvalmax-white" transform="translate(-20.000000, -23.000000)" fill="#FFFFFF">
            <g transform="translate(20.000000, 23.000000)" id="ico-approvalmax-colour">
                <g>
                    <path d="M114.219154,15.5091275 L112.419753,15.5091275 C111.991324,15.5091275 111.648581,15.680499 111.562895,16.1946138 C111.305837,16.9657858 111.04878,17.7369579 110.791723,18.4224442 L110.620351,18.8508732 C110.106236,20.3075315 109.592122,21.6785041 109.078007,23.2208483 L108.478206,24.934564 C108.392521,24.7631925 108.392521,24.6775067 108.306835,24.5918209 L107.621349,22.7067336 C106.850176,20.5645889 106.079004,18.4224442 105.307832,16.2802995 C105.222147,15.9375564 104.965089,15.5948132 104.450974,15.5948132 L102.565887,15.5948132 C102.30883,15.5948132 102.137458,15.5948132 102.051772,15.7661848 C101.966087,15.9375564 101.966087,16.1946138 102.051772,16.3659853 C103.337059,19.707731 104.793718,23.3065341 106.421748,27.5908234 C106.593119,28.0192524 106.850176,28.1906239 107.278605,28.1906239 L109.335064,28.1906239 C109.849179,28.1906239 110.191922,27.9335666 110.363294,27.4194519 C110.877408,25.9627935 111.477209,24.5918209 112.077009,23.1351625 C112.334067,22.6210478 112.505438,22.0212473 112.762496,21.5071326 L113.190925,20.4789031 C113.705039,19.1936163 114.219154,17.8226437 114.818955,16.5373569 C114.990326,16.1946138 114.990326,16.0232422 114.90464,15.8518706 C114.733269,15.5091275 114.561897,15.5091275 114.219154,15.5091275 L114.219154,15.5091275 Z M95.2825952,25.7057361 L95.2825952,25.7057361 C93.0547647,25.7057361 91.5981064,24.0777062 91.5981064,21.6785041 C91.5981064,19.3649879 93.1404505,17.7369579 95.2825952,17.7369579 C96.3108247,17.7369579 97.2533683,18.1653869 97.9388546,18.8508732 C98.6243409,19.6220452 98.9670841,20.5645889 98.9670841,21.6785041 C98.9670841,24.0777062 97.4247399,25.7057361 95.2825952,25.7057361 L95.2825952,25.7057361 Z M95.1969094,15.2520701 L94.6827947,15.2520701 C92.7977074,15.3377559 91.0839916,16.1946138 89.9700764,17.6512721 C88.8561612,19.1079305 88.3420465,20.907332 88.6847896,22.7924194 C89.2845901,26.1341651 91.7694779,28.1906239 95.2825952,28.2763097 L95.368281,28.2763097 C97.9388546,28.2763097 100.166685,27.0767087 101.194915,25.0202498 C102.394516,22.7067336 102.30883,20.3075315 100.937857,18.1653869 C99.6525703,16.2802995 97.767483,15.2520701 95.1969094,15.2520701 L95.1969094,15.2520701 Z M88.6847896,17.3942148 L88.7704754,17.308529 C88.941847,17.1371574 89.0275328,16.9657858 89.0275328,16.7944143 C89.0275328,16.7087285 88.941847,16.5373569 88.7704754,16.3659853 C88.6847896,16.2802995 88.5991038,16.2802995 88.513418,16.1946138 C88.1706749,15.9375564 87.8279317,15.680499 87.3995028,15.5091275 C86.8853881,15.3377559 86.3712734,15.1663843 85.8571586,15.1663843 C84.6575576,15.1663843 83.6293282,15.7661848 82.6010987,16.9657858 L82.6010987,16.8801001 L82.6010987,16.108928 C82.6010987,15.8518706 82.6010987,15.680499 82.4297272,15.5948132 C82.3440414,15.5091275 82.1726698,15.4234417 81.9156124,15.4234417 L80.2875825,15.4234417 C80.0305251,15.4234417 79.8591535,15.5091275 79.7734678,15.5948132 C79.687782,15.680499 79.6020962,15.8518706 79.6020962,16.108928 L79.6020962,27.2480803 C79.6020962,27.5051376 79.687782,27.6765092 79.7734678,27.762195 C79.8591535,27.8478808 80.0305251,27.9335666 80.2875825,27.9335666 L81.8299266,27.9335666 C82.6010987,27.9335666 82.6867845,27.8478808 82.6867845,27.0767087 L82.6867845,25.362993 C82.6867845,23.9920204 82.6867845,22.535362 82.7724703,21.1643894 C82.7724703,20.4789031 83.0295277,19.707731 83.3722708,19.0222447 C83.715014,18.3367584 84.486186,17.8226437 85.3430439,17.8226437 C85.6857871,17.8226437 86.0285302,17.9083295 86.3712734,18.0797011 C86.4569591,18.1653869 86.6283307,18.2510726 86.7140165,18.2510726 C86.9710739,18.4224442 87.313817,18.5938158 87.5708744,18.5938158 L87.7422459,18.5938158 C88.0849891,18.50813 88.2563607,18.1653869 88.513418,17.8226437 C88.5991038,17.7369579 88.6847896,17.5655863 88.7704754,17.4799006 C88.5991038,17.4799006 88.5991038,17.4799006 88.6847896,17.3942148 L88.6847896,17.3942148 Z M162.288881,25.1916214 C162.288881,25.2773072 162.117509,25.4486788 162.031823,25.5343645 C161.346337,25.8771077 160.660851,26.0484793 160.06105,26.0484793 C159.632621,26.0484793 159.118507,25.9627935 158.690078,25.7914219 C158.090277,25.6200503 157.747534,25.1916214 157.661848,24.5918209 C157.576162,23.9920204 157.83322,23.4779057 158.347334,23.1351625 C159.118507,22.6210478 160.06105,22.535362 160.917908,22.4496762 L161.260651,22.4496762 L161.603394,22.4496762 L161.946138,22.4496762 L162.203195,22.4496762 L162.203195,23.0494767 C162.288881,23.734963 162.288881,24.5061351 162.288881,25.1916214 L162.288881,25.1916214 Z M161.603394,15.3377559 C161.08928,15.2520701 160.660851,15.2520701 160.146736,15.2520701 C158.861449,15.2520701 157.490477,15.5091275 156.20519,16.108928 C155.091275,16.6230427 155.005589,16.7087285 155.519704,17.9083295 L155.519704,17.9940153 C155.519704,18.0797011 155.605389,18.0797011 155.605389,18.1653869 C155.605389,18.3367584 155.776761,18.6795016 156.119504,18.6795016 C156.290876,18.6795016 156.462247,18.5938158 156.633619,18.50813 C157.661848,17.9083295 158.690078,17.5655863 159.803993,17.5655863 C160.575165,17.5655863 161.260651,17.8226437 161.603394,18.2510726 C161.946138,18.7651874 162.117509,19.3649879 161.946138,20.13616 L161.603394,20.13616 C161.260651,20.13616 161.003594,20.2218457 160.660851,20.2218457 C159.118507,20.3932173 157.490477,20.5645889 156.119504,21.4214468 C155.091275,22.0212473 154.491474,23.0494767 154.491474,24.2490777 C154.491474,26.3055366 156.033818,27.8478808 158.175963,28.0192524 L158.947135,28.0192524 C160.232422,28.0192524 161.260651,27.762195 162.288881,27.1623945 C162.288881,27.3337661 162.374566,27.5051376 162.460252,27.5908234 C162.631624,27.762195 162.888681,27.762195 163.060053,27.762195 L164.516711,27.762195 C164.773769,27.762195 164.859454,27.6765092 165.030826,27.5908234 C165.116512,27.5051376 165.202197,27.3337661 165.202197,27.0767087 L165.202197,24.4204493 L165.202197,19.2793021 C165.287883,17.1371574 164.002596,15.7661848 161.603394,15.3377559 L161.603394,15.3377559 Z M179.683095,27.0767087 C179.083295,26.3912224 178.483494,25.7057361 177.883694,25.0202498 L177.198208,24.163392 C176.684093,23.5635914 176.084292,22.8781051 175.570178,22.2783046 L174.884691,21.5071326 L175.741549,20.5645889 L179.168981,16.7087285 L179.254667,16.6230427 C179.340352,16.5373569 179.426038,16.4516711 179.511724,16.2802995 C179.59741,16.108928 179.683095,15.9375564 179.59741,15.7661848 C179.511724,15.680499 179.340352,15.5948132 179.168981,15.5091275 L177.283893,15.5091275 C176.255664,15.5091275 176.255664,15.5948132 175.141749,16.9657858 C174.627634,17.5655863 174.199205,18.1653869 173.68509,18.7651874 C173.513719,19.0222447 173.256661,19.1936163 173.08529,19.4506737 L172.485489,18.6795016 C171.714317,17.7369579 171.028831,16.8801001 170.343345,15.9375564 C170.257659,15.7661848 169.914916,15.4234417 169.657858,15.4234417 L167.001599,15.4234417 C166.744542,15.4234417 166.57317,15.5948132 166.57317,15.680499 C166.487484,15.7661848 166.487484,15.9375564 166.658856,16.1946138 C166.744542,16.3659853 166.915913,16.5373569 167.087285,16.7087285 L167.258656,16.8801001 L170.343345,20.5645889 L171.285888,21.5928183 L170.771774,22.1926188 C170.343345,22.7067336 169.914916,23.1351625 169.486487,23.6492772 L168.629629,24.5918209 C167.944143,25.362993 167.258656,26.2198508 166.57317,26.9910229 C166.401798,27.2480803 166.230427,27.5051376 166.316113,27.762195 C166.401798,27.9335666 166.744542,28.0192524 167.001599,28.0192524 L168.972372,28.0192524 C169.400801,28.0192524 169.82923,27.8478808 170.086287,27.4194519 C170.771774,26.4769082 171.542946,25.6200503 172.314118,24.6775067 C172.571175,24.3347635 172.828232,24.0777062 173.08529,23.734963 L173.856462,24.6775067 C174.627634,25.6200503 175.31312,26.4769082 176.084292,27.4194519 C176.427036,27.8478808 176.769779,28.0192524 177.283893,28.0192524 L179.511724,28.0192524 C179.683095,28.0192524 179.940153,28.0192524 180.025839,27.762195 C180.025839,27.5051376 179.768781,27.2480803 179.683095,27.0767087 L179.683095,27.0767087 Z M130.756511,9.42543658 L129.214167,9.42543658 C128.442995,9.42543658 128.357309,9.51112236 128.357309,10.2822944 L128.357309,16.3659853 L128.357309,18.5938158 L128.357309,20.7359605 L128.357309,27.1623945 C128.357309,27.4194519 128.357309,27.6765092 128.528681,27.8478808 C128.614366,27.9335666 128.785738,28.0192524 129.042795,28.0192524 L130.499454,28.0192524 C131.441997,28.0192524 131.441997,27.9335666 131.441997,27.0767087 L131.441997,13.6240401 L131.441997,10.453666 L131.441997,10.1109229 C131.441997,9.59680815 131.18494,9.42543658 130.756511,9.42543658 L130.756511,9.42543658 Z M152.777758,9.59680815 C152.692073,9.51112236 152.520701,9.42543658 152.263644,9.42543658 L150.378556,9.42543658 C149.778756,9.42543658 149.436013,9.68249394 149.007584,10.2822944 C147.636611,12.6814965 146.265639,14.9950127 144.80898,17.3942148 C144.380551,18.1653869 143.866436,18.9365589 143.438008,19.707731 C143.352322,19.5363594 143.266636,19.4506737 143.18095,19.3649879 L142.152721,17.6512721 C140.610377,15.0806985 139.153718,12.5958107 137.611374,10.0252371 C137.440002,9.68249394 137.182945,9.42543658 136.66883,9.42543658 L134.698057,9.42543658 C134.441,9.42543658 134.269628,9.51112236 134.183943,9.59680815 C134.098257,9.68249394 134.012571,9.9395513 134.012571,10.1966087 L134.012571,12.9385538 L134.012571,14.0524691 L134.012571,17.308529 L134.012571,27.1623945 C134.012571,28.0192524 134.098257,28.0192524 134.869429,28.0192524 L136.154716,28.0192524 C137.011574,28.0192524 137.097259,27.9335666 137.097259,27.0767087 L137.097259,21.335761 L137.097259,15.5091275 L137.097259,15.1663843 C137.182945,15.2520701 137.182945,15.3377559 137.268631,15.4234417 C137.611374,16.0232422 138.039803,16.7087285 138.468232,17.308529 C139.410776,18.8508732 140.353319,20.3932173 141.210177,21.9355615 C141.809978,23.0494767 142.495464,23.4779057 143.523693,23.4779057 L144.037808,23.4779057 C144.551923,23.3922199 144.894666,23.3065341 145.151723,22.7924194 C146.351324,20.7359605 147.636611,18.6795016 148.836212,16.6230427 L149.69307,15.1663843 C149.69307,15.1663843 149.69307,15.0806985 149.778756,15.0806985 L149.778756,16.1946138 L149.778756,21.5928183 L149.778756,26.9053371 C149.778756,27.762195 149.864442,27.8478808 150.721299,27.8478808 L152.006586,27.8478808 C152.863444,27.8478808 152.94913,27.762195 152.94913,26.9053371 L152.94913,15.8518706 L152.94913,12.4244391 L152.94913,11.653267 L152.94913,9.85386551 C152.94913,9.85386551 152.94913,9.68249394 152.777758,9.59680815 L152.777758,9.59680815 Z M74.5466347,23.2208483 C74.2895774,24.4204493 73.5184053,25.1916214 72.3188043,25.5343645 C71.8903753,25.7057361 71.4619464,25.7057361 70.9478317,25.7057361 C70.433717,25.7057361 69.9196022,25.6200503 69.4054875,25.5343645 C69.0627444,25.4486788 68.9770586,25.362993 68.9770586,25.0202498 L68.9770586,22.6210478 L68.9770586,21.6785041 L68.9770586,20.8216463 L68.9770586,18.3367584 C68.9770586,17.9940153 68.9770586,17.9940153 69.2341159,17.9940153 L70.005288,17.9940153 L70.7764601,17.9940153 C71.1192033,17.9940153 71.3762606,17.9940153 71.633318,18.0797011 C73.6897769,18.4224442 74.8893779,19.9647884 74.7180063,22.1069331 C74.6323205,22.4496762 74.6323205,22.8781051 74.5466347,23.2208483 L74.5466347,23.2208483 Z M73.6897769,15.8518706 C72.6615474,15.5091275 71.4619464,15.2520701 70.2623454,15.2520701 C68.9770586,15.2520701 67.606086,15.4234417 66.4921708,15.680499 C66.2351134,15.680499 65.978056,16.108928 65.978056,16.2802995 L65.978056,17.3942148 L65.978056,17.8226437 L65.978056,21.1643894 L65.978056,33.417457 C65.978056,33.6745143 65.978056,33.9315717 66.1494276,34.1029432 C66.2351134,34.188629 66.406485,34.2743148 66.6635423,34.2743148 L68.1202007,34.2743148 C68.9770586,34.2743148 69.0627444,34.188629 69.0627444,33.3317712 L69.0627444,29.4759107 L69.0627444,28.1049382 C69.3198017,28.1049382 69.6625449,28.1049382 69.9196022,28.1906239 C70.5194027,28.1906239 71.0335175,28.2763097 71.5476322,28.2763097 L71.9760611,28.2763097 C73.5184053,28.1906239 74.8893779,27.6765092 75.9176073,26.6482798 C77.2885799,25.2773072 77.8883804,23.5635914 77.7170089,21.2500752 C77.5456373,18.50813 76.1746647,16.7087285 73.6897769,15.8518706 L73.6897769,15.8518706 Z M122.959104,25.362993 C122.959104,25.4486788 122.873419,25.5343645 122.702047,25.6200503 C122.016561,25.9627935 121.331074,26.1341651 120.731274,26.1341651 C120.302845,26.1341651 119.78873,26.0484793 119.360301,25.8771077 C118.760501,25.6200503 118.417758,25.2773072 118.417758,24.6775067 C118.332072,24.0777062 118.589129,23.5635914 119.103244,23.2208483 C119.874416,22.7067336 120.731274,22.6210478 121.673818,22.535362 L122.102247,22.535362 L122.44499,22.535362 L122.787733,22.535362 L123.04479,22.535362 L123.04479,23.1351625 C123.04479,23.734963 123.04479,24.5061351 122.959104,25.362993 L122.959104,25.362993 Z M122.359304,15.3377559 C121.930875,15.2520701 121.41676,15.2520701 120.988331,15.2520701 C119.703045,15.2520701 118.332072,15.5091275 117.046785,16.108928 C115.93287,16.6230427 115.847184,16.7087285 116.361299,17.8226437 L116.361299,17.9083295 L116.446985,18.0797011 C116.618356,18.50813 116.704042,18.7651874 116.961099,18.7651874 C117.132471,18.7651874 117.303842,18.6795016 117.5609,18.50813 C118.674815,17.9083295 119.703045,17.6512721 120.731274,17.6512721 L120.81696,17.6512721 C121.588132,17.6512721 122.187932,17.9083295 122.616361,18.4224442 C122.959104,18.9365589 123.130476,19.5363594 122.959104,20.3075315 L122.616361,20.3075315 C122.273618,20.3075315 121.930875,20.3932173 121.673818,20.3932173 C121.41676,20.4789031 121.159703,20.4789031 120.81696,20.5645889 C119.78873,20.7359605 118.674815,20.9930178 117.646586,21.335761 C116.618356,21.6785041 115.847184,22.4496762 115.590127,23.5635914 C115.333069,24.6775067 115.504441,25.7057361 116.189927,26.6482798 C116.875414,27.5908234 117.989329,28.1906239 119.18893,28.2763097 L119.960102,28.2763097 C121.245389,28.2763097 122.273618,28.0192524 123.301848,27.4194519 C123.301848,27.5908234 123.387533,27.762195 123.473219,27.8478808 C123.558905,27.9335666 123.730277,28.0192524 123.987334,28.0192524 L125.443992,28.0192524 C125.615364,28.0192524 125.786735,27.9335666 125.872421,27.8478808 C125.958107,27.762195 126.043793,27.5908234 126.043793,27.3337661 L126.043793,24.6775067 L126.043793,19.5363594 C125.958107,17.1371574 124.758506,15.7661848 122.359304,15.3377559 L122.359304,15.3377559 Z M39.5011478,21.1643894 L42.4144646,13.4526686 L44.4709235,19.0222447 L45.2420956,21.1643894 L39.5011478,21.1643894 Z M50.7259859,26.9053371 L50.7259859,26.9053371 C50.7259859,26.8196513 46.1846392,14.7379554 44.7279808,10.9677807 C44.6422951,10.7107234 44.5566093,10.453666 44.4709235,10.2822944 C44.2138661,9.51112236 44.1281803,9.33975079 43.3570083,9.33975079 L41.8146641,9.33975079 C40.7864346,9.33975079 40.7007489,9.33975079 40.3580057,10.2822944 C39.1584047,13.3669828 34.0172575,27.1623945 34.0172575,27.1623945 C33.9315717,27.5051376 33.8458859,27.6765092 33.9315717,27.8478808 C34.0172575,28.0192524 34.2743148,28.0192524 34.617058,28.0192524 L36.2450879,28.0192524 C36.7592026,28.0192524 37.1019458,27.762195 37.2733174,27.1623945 C37.4446889,26.562594 37.7017463,26.0484793 37.8731179,25.4486788 C38.0444895,25.0202498 38.215861,24.5918209 38.3872326,24.163392 C38.4729184,23.9063346 38.5586042,23.8206488 38.9013473,23.8206488 L45.7562103,23.8206488 C46.0132677,23.8206488 46.1846392,23.9063346 46.270325,24.163392 C46.4416966,24.7631925 46.6987539,25.362993 46.8701255,25.8771077 C47.0414971,26.3912224 47.2128687,26.8196513 47.3842402,27.3337661 C47.5556118,27.762195 47.8126692,27.9335666 48.1554123,27.9335666 L50.297557,27.9335666 C50.5546144,27.9335666 50.7259859,27.8478808 50.8116717,27.762195 C50.8973575,27.6765092 50.8973575,27.5051376 50.8116717,27.2480803 C50.8116717,27.1623945 50.7259859,27.0767087 50.7259859,26.9053371 L50.7259859,26.9053371 Z M60.9225946,23.2208483 C60.6655372,24.4204493 59.8943652,25.1916214 58.6947641,25.5343645 C58.2663352,25.7057361 57.8379063,25.7057361 57.3237915,25.7057361 C56.8096768,25.7057361 56.2955621,25.6200503 55.7814474,25.5343645 C55.4387042,25.4486788 55.3530184,25.362993 55.3530184,25.0202498 L55.3530184,22.6210478 L55.3530184,21.6785041 L55.3530184,20.8216463 L55.3530184,18.3367584 C55.3530184,17.9940153 55.3530184,17.9940153 55.6100758,17.9940153 L56.3812479,17.9940153 L57.15242,17.9940153 C57.4951631,17.9940153 57.7522205,17.9940153 58.0092778,18.0797011 C60.0657367,18.4224442 61.2653377,19.9647884 61.0939662,22.1069331 C61.0082804,22.4496762 61.0082804,22.8781051 60.9225946,23.2208483 L60.9225946,23.2208483 Z M60.0657367,15.8518706 C59.0375073,15.5091275 57.8379063,15.2520701 56.6383052,15.2520701 C55.3530184,15.2520701 53.9820458,15.4234417 52.8681306,15.680499 C52.6110733,15.7661848 52.3540159,16.108928 52.3540159,16.3659853 L52.3540159,17.4799006 L52.3540159,17.9083295 L52.3540159,21.2500752 L52.3540159,33.5031427 C52.3540159,33.7602001 52.3540159,34.0172575 52.5253875,34.188629 C52.6110733,34.2743148 52.7824448,34.3600006 53.0395022,34.3600006 L54.4961606,34.3600006 C55.3530184,34.3600006 55.4387042,34.2743148 55.4387042,33.417457 L55.4387042,29.5615965 L55.4387042,28.1906239 C55.6957616,28.1906239 56.0385047,28.1906239 56.2955621,28.2763097 C56.8953626,28.2763097 57.4094773,28.3619955 57.9235921,28.3619955 L58.352021,28.3619955 C59.8943652,28.2763097 61.2653377,27.762195 62.2935672,26.7339656 C63.6645398,25.362993 64.2643403,23.6492772 64.0929687,21.335761 C63.9215971,18.50813 62.5506246,16.7087285 60.0657367,15.8518706 L60.0657367,15.8518706 Z M19.5363594,9.16837922 C18.8508732,8.65426449 17.9083295,8.82563607 17.4799006,9.51112236 L12.6814965,16.108928 L10.1109229,13.4526686 C9.51112236,12.8528681 8.56857871,12.8528681 7.9687782,13.4526686 C7.36897769,14.0524691 7.36897769,14.9950127 7.9687782,15.5948132 L11.8246386,19.4506737 C12.081696,19.707731 12.5101249,19.8791026 12.8528681,19.8791026 L12.9385538,19.8791026 C13.3669828,19.8791026 13.7954117,19.6220452 14.0524691,19.2793021 L19.8791026,11.2248381 C20.3075315,10.6250376 20.13616,9.68249394 19.5363594,9.16837922 L19.5363594,9.16837922 Z M24.4204493,24.4204493 L13.7097259,24.4204493 C7.79740662,24.4204493 2.99900255,19.6220452 2.99900255,13.7097259 C2.99900255,7.79740662 7.79740662,2.99900255 13.7097259,2.99900255 C19.6220452,2.99900255 24.4204493,7.79740662 24.4204493,13.7097259 L24.4204493,24.4204493 Z M13.7097259,0 C6.16937667,0 0,6.16937667 0,13.7097259 C0,21.2500752 6.16937667,27.4194519 13.7097259,27.4194519 L26.3055366,27.4194519 C26.9053371,27.4194519 27.4194519,26.9053371 27.4194519,26.3055366 L27.4194519,13.7097259 C27.4194519,6.16937667 21.2500752,0 13.7097259,0 L13.7097259,0 Z"></path>
                </g>
            </g>
        </g>
    </g>
</svg>