<svg width="144" height="47" viewBox="0 0 144 47" fill="none" xmlns="http://www.w3.org/2000/svg">
<path d="M16.3149 31.8723C15.3447 32.0255 14.4255 32.1021 13.583 32.1021C11.2085 32.1021 9.5234 31.4894 8.57872 30.2638C7.63404 29.0638 7.14894 27.3277 7.14894 25.1064C7.14894 23.0128 7.65957 21.3021 8.68085 20.0255C9.70213 18.7489 11.234 18.0851 13.3021 18.0851C14.2723 18.0851 15.1404 18.1872 15.9319 18.366C16.7234 18.5447 17.4383 18.7745 18.1021 19.0298L19.5574 13.4383C18.5106 13.0043 17.4638 12.6723 16.366 12.417C15.2681 12.1872 14.0681 12.0596 12.7404 12.0596C10.7234 12.0596 8.93617 12.417 7.37872 13.1064C5.82128 13.7957 4.46809 14.7404 3.37021 15.9149C2.27234 17.0894 1.42979 18.4681 0.842553 20.0511C0.280851 21.634 0 23.3191 0 25.1064C0 26.9447 0.255319 28.6808 0.740426 30.2638C1.22553 31.8468 1.99149 33.2255 3.0383 34.3745C4.08511 35.5234 5.4383 36.4426 7.07234 37.1319C8.70638 37.7957 10.6468 38.1532 12.8936 38.1532C14.3745 38.1532 15.7277 38.0255 16.9277 37.7702C18.1532 37.5149 19.1745 37.234 19.9915 36.8766L18.9957 31.1319C18.1787 31.4638 17.2851 31.7191 16.3149 31.8723Z" fill="white"/>
<path d="M31.4558 30.9019C31.2004 30.5445 30.9962 30.136 30.9196 29.6253C30.8175 29.1147 30.7664 28.553 30.7664 27.9402V0.978516L23.7451 2.10192V29.3445C23.7451 30.6721 23.8728 31.8466 24.1536 32.8934C24.4089 33.9402 24.9196 34.8338 25.66 35.5743C26.4004 36.3147 27.3962 36.8764 28.6728 37.2849C29.9494 37.6934 31.6089 37.9232 33.626 37.9487L34.6217 32.153C33.7792 32.1019 33.0898 31.9487 32.6047 31.7189C32.0941 31.5147 31.7111 31.2338 31.4558 30.9019Z" fill="white"/>
<path d="M55.7616 14.8169C54.9191 13.9488 53.8212 13.2594 52.4425 12.7999C51.0638 12.3403 49.3276 12.085 47.2595 12.085C46.4425 12.085 45.6255 12.136 44.834 12.2126C44.0425 12.2892 43.2765 12.3913 42.5617 12.4935C41.8468 12.5956 41.1829 12.7233 40.5702 12.8764C39.9574 13.0296 39.4468 13.1573 39.0382 13.285L39.9319 18.9275C40.7744 18.6211 41.7702 18.3658 42.9446 18.1871C44.0936 18.0084 45.268 17.9318 46.468 17.9318C48.2553 17.9318 49.5063 18.2892 50.2212 19.0041C50.9361 19.719 51.2936 20.6892 51.2936 21.8637V22.5275C50.8595 22.3999 50.2723 22.2977 49.5829 22.2211C48.868 22.1445 48.0765 22.0935 47.1574 22.0935C45.8042 22.0935 44.5021 22.2211 43.251 22.502C41.9999 22.7573 40.8765 23.1913 39.9063 23.8041C38.9361 24.3913 38.1702 25.2084 37.5829 26.2041C36.9957 27.1999 36.7148 28.4254 36.7148 29.8807C36.7148 31.3871 36.9702 32.6637 37.4553 33.685C37.9659 34.7318 38.6808 35.5488 39.6255 36.2126C40.5702 36.8509 41.6936 37.3105 42.9957 37.5913C44.2978 37.8722 45.7531 38.0254 47.3361 38.0254C49.8638 38.0254 52.034 37.8722 53.8212 37.5658C55.6085 37.2594 57.0127 37.0041 58.0085 36.7999V22.1956C58.0085 20.6637 57.8297 19.2594 57.4978 18.0084C57.1914 16.7573 56.6042 15.685 55.7616 14.8169ZM51.3191 32.4084C50.9361 32.4594 50.451 32.5105 49.8127 32.5616C49.1744 32.5871 48.5361 32.6126 47.8468 32.6126C46.5702 32.6126 45.5489 32.4084 44.8085 31.9743C44.068 31.5403 43.7106 30.7999 43.7106 29.702C43.7106 29.1403 43.8382 28.6552 44.0936 28.2977C44.3489 27.9147 44.6808 27.6339 45.1404 27.4041C45.5744 27.1743 46.0851 27.0467 46.6723 26.9445C47.2595 26.8679 47.8723 26.8169 48.5361 26.8169C48.9957 26.8169 49.5319 26.8424 50.0936 26.919C50.6553 26.9701 51.0893 27.0467 51.3702 27.0977V32.4084H51.3191Z" fill="white"/>
<path d="M74.7064 12.4677C74.1702 12.3911 73.6341 12.3145 73.0979 12.289C72.5617 12.2379 72.1022 12.2124 71.7447 12.2124C69.6511 12.2124 67.7362 12.4167 66.0256 12.7996C64.3149 13.1826 62.8341 13.6167 61.583 14.0507V37.489H68.6043V18.5698C68.9107 18.4677 69.3702 18.3911 69.983 18.3145C70.5958 18.2379 71.1319 18.1869 71.566 18.1869C72.5362 18.1869 73.4553 18.2635 74.2979 18.4422C75.1405 18.6209 75.8809 18.7741 76.5192 18.9273L77.6936 13.1316C77.3107 12.9784 76.8511 12.8507 76.3405 12.723C75.7532 12.6464 75.2171 12.5698 74.7064 12.4677Z" fill="white"/>
<path d="M88.4422 12.7485H81.4209V37.489H88.4422V12.7485Z" fill="white"/>
<path d="M87.8295 2.56125C86.9869 1.82083 86.0167 1.46338 84.8933 1.46338C83.7699 1.46338 82.7741 1.82083 81.9571 2.56125C81.1146 3.30168 80.7061 4.29742 80.7061 5.59955C80.7061 6.87615 81.1146 7.89742 81.9571 8.63785C82.7997 9.37827 83.7699 9.73572 84.8933 9.73572C86.0167 9.73572 87.0124 9.37827 87.8295 8.63785C88.672 7.89742 89.0805 6.90168 89.0805 5.59955C89.0805 4.29742 88.672 3.30168 87.8295 2.56125Z" fill="white"/>
<path d="M106.136 31.8978C105.344 32.051 104.553 32.1021 103.812 32.1021C102.255 32.1021 101.208 31.6681 100.672 30.7744C100.161 29.9064 99.906 28.7319 99.906 27.251V18.5702H108.332V12.7489H99.906V5.44678L92.8848 6.57018V27.3532C92.8848 28.9617 93.038 30.417 93.3443 31.7191C93.6507 33.0468 94.1614 34.1702 94.9273 35.0893C95.6677 36.0085 96.689 36.7234 97.9401 37.2595C99.1912 37.7702 100.774 38.0255 102.689 38.0255C104.195 38.0255 105.472 37.8978 106.493 37.6425C107.54 37.3872 108.459 37.1064 109.327 36.7489L108.332 31.2851C107.668 31.5659 106.927 31.7702 106.136 31.8978Z" fill="white"/>
<path d="M129.728 12.7485C129.421 13.9741 129.064 15.3017 128.655 16.7315C128.272 18.1613 127.864 19.5911 127.43 21.0464C126.996 22.5017 126.562 23.9315 126.128 25.3102C125.693 26.689 125.259 27.94 124.851 29.0634C124.417 27.94 123.957 26.689 123.447 25.3102C122.962 23.9315 122.476 22.5017 122.017 21.0464C121.532 19.5911 121.098 18.1358 120.664 16.7315C120.23 15.3017 119.872 13.9741 119.566 12.7485H112.136C113.54 17.5996 115.047 21.9911 116.655 25.8975C118.264 29.8039 119.847 33.3273 121.455 36.4677C120.996 37.6677 120.408 38.5868 119.745 39.2762C119.081 39.94 118.111 40.2975 116.859 40.2975C116.221 40.2975 115.634 40.2464 115.072 40.1443C114.511 40.0422 113.872 39.889 113.132 39.6336L111.906 45.2251C112.493 45.4805 113.259 45.7102 114.179 45.9145C115.098 46.1187 116.119 46.2209 117.217 46.2209C118.545 46.2209 119.693 46.0677 120.689 45.7613C121.685 45.4549 122.553 44.9953 123.345 44.357C124.136 43.7187 124.851 42.9017 125.515 41.906C126.179 40.9102 126.842 39.7102 127.481 38.306C129.293 34.3741 130.979 30.34 132.536 26.1783C134.068 22.0166 135.549 17.5485 136.979 12.7741H129.728V12.7485Z" fill="white"/>
<path d="M142.646 30.5447C141.753 29.8042 140.732 29.4468 139.608 29.4468C138.485 29.4468 137.463 29.8042 136.57 30.5447C135.676 31.2851 135.242 32.3574 135.242 33.7617C135.242 35.1659 135.702 36.2383 136.57 36.9787C137.463 37.7191 138.485 38.0766 139.608 38.0766C140.732 38.0766 141.753 37.7191 142.646 36.9787C143.54 36.2383 144 35.1659 144 33.7617C143.974 32.3574 143.54 31.2851 142.646 30.5447Z" fill="white"/>
</svg>
