<svg id="Layer_1" data-name="Layer 1" xmlns="http://www.w3.org/2000/svg" viewBox="0 0 277.8 72.15"><defs><style>.cls-1{fill:#fff;}</style></defs><path class="cls-1" d="M93.27,71.92a12.89,12.89,0,0,1-9.46-4,13.74,13.74,0,0,1,0-19.28,12.81,12.81,0,0,1,9.46-4h7.87a5.24,5.24,0,0,1-1.56,3.83,5.07,5.07,0,0,1-3.75,1.59H93.27a7.27,7.27,0,0,0-5.54,2.45,8.18,8.18,0,0,0-2.3,5.79,8.07,8.07,0,0,0,2.3,5.75,7.34,7.34,0,0,0,5.54,2.42h2.56a5.09,5.09,0,0,1,3.75,1.58,5.28,5.28,0,0,1,1.56,3.83ZM91.41,55.58h9.73a5.25,5.25,0,0,1-1.56,3.84A5.08,5.08,0,0,1,95.83,61H91.41a2.54,2.54,0,0,1-1.86-.77,2.59,2.59,0,0,1-.76-1.9,2.7,2.7,0,0,1,.75-2A2.44,2.44,0,0,1,91.41,55.58Z" transform="translate(-2.83 -3.82)"/><path class="cls-1" d="M129.73,58.34V71.92a5.32,5.32,0,0,1-3.93-1.68,5.57,5.57,0,0,1-1.64-4V58.34a8.2,8.2,0,0,0-2.28-5.81,7.6,7.6,0,0,0-11.14,0,8.17,8.17,0,0,0-2.29,5.81V66.2a5.56,5.56,0,0,1-1.63,4,5.27,5.27,0,0,1-3.95,1.67V58.34a13.21,13.21,0,0,1,4-9.66,13.18,13.18,0,0,1,15.39-2.59A14.08,14.08,0,0,1,127,50a13.46,13.46,0,0,1,4.71-3.92,13,13,0,0,1,5.91-1.43,12.84,12.84,0,0,1,9.47,4,13.27,13.27,0,0,1,4,9.66V71.92a5.29,5.29,0,0,1-3.93-1.68,5.58,5.58,0,0,1-1.65-4V58.34a8.24,8.24,0,0,0-2.27-5.81,7.6,7.6,0,0,0-11.14,0A8.18,8.18,0,0,0,129.73,58.34Z" transform="translate(-2.83 -3.82)"/><path class="cls-1" d="M167,71.92a12.91,12.91,0,0,1-9.47-4,13.74,13.74,0,0,1,0-19.28,12.84,12.84,0,0,1,9.47-4h7.87a5.24,5.24,0,0,1-1.56,3.83,5.1,5.1,0,0,1-3.76,1.59H167a7.3,7.3,0,0,0-5.55,2.45,8.17,8.17,0,0,0-2.29,5.79,8.06,8.06,0,0,0,2.29,5.75A7.38,7.38,0,0,0,167,66.51h2.55a5.13,5.13,0,0,1,3.76,1.58,5.28,5.28,0,0,1,1.56,3.83Zm-1.86-16.34h9.73a5.25,5.25,0,0,1-1.56,3.84A5.12,5.12,0,0,1,169.58,61h-4.41a2.54,2.54,0,0,1-1.86-.77,2.59,2.59,0,0,1-.77-1.9,2.7,2.7,0,0,1,.75-2A2.46,2.46,0,0,1,165.17,55.58Z" transform="translate(-2.83 -3.82)"/><path class="cls-1" d="M182.73,66.2a5.57,5.57,0,0,1-1.64,4,5.33,5.33,0,0,1-3.94,1.68V58.27a13.11,13.11,0,0,1,4-9.62,12.94,12.94,0,0,1,9.48-4h7.84a5.27,5.27,0,0,1-1.54,3.83,5,5,0,0,1-3.74,1.59H190.6A7.39,7.39,0,0,0,185,52.5a8.05,8.05,0,0,0-2.3,5.77Z" transform="translate(-2.83 -3.82)"/><path class="cls-1" d="M196.81,55.34a10.28,10.28,0,0,1,3.11-7.54,10.13,10.13,0,0,1,7.45-3.12H215a5.26,5.26,0,0,1-1.56,3.85,5.16,5.16,0,0,1-3.78,1.57H208.5A5.8,5.8,0,0,0,204.14,52a6.33,6.33,0,0,0-1.81,4.55v4.73a10.32,10.32,0,0,1-3.09,7.55,10.12,10.12,0,0,1-7.44,3.11h-7.64a5.31,5.31,0,0,1,1.55-3.83,5,5,0,0,1,3.73-1.58h1.2A5.82,5.82,0,0,0,195,64.62a6.36,6.36,0,0,0,1.79-4.55Z" transform="translate(-2.83 -3.82)"/><path class="cls-1" d="M222,71.92a5.32,5.32,0,0,1-3.93-1.68,5.57,5.57,0,0,1-1.64-4V44.68a5.28,5.28,0,0,1,3.93,1.69,5.55,5.55,0,0,1,1.64,4Z" transform="translate(-2.83 -3.82)"/><path class="cls-1" d="M238.16,44.68a12.89,12.89,0,0,1,9.48,4,13.69,13.69,0,0,1,0,19.28,13.32,13.32,0,0,1-18.95,0,13.74,13.74,0,0,1,0-19.28A12.84,12.84,0,0,1,238.16,44.68Zm0,5.42a7.35,7.35,0,0,0-5.57,2.43,8.24,8.24,0,0,0-2.27,5.81,8.12,8.12,0,0,0,2.27,5.77,7.68,7.68,0,0,0,11.15,0A8.1,8.1,0,0,0,246,58.34a8.21,8.21,0,0,0-2.29-5.81A7.39,7.39,0,0,0,238.16,50.1Z" transform="translate(-2.83 -3.82)"/><path class="cls-1" d="M275.05,58.34a8.17,8.17,0,0,0-2.29-5.79,7.3,7.3,0,0,0-5.55-2.45,7.39,7.39,0,0,0-5.58,2.43,8.21,8.21,0,0,0-2.29,5.81V66.2a5.57,5.57,0,0,1-1.64,4,5.33,5.33,0,0,1-3.94,1.68V58.34a13.24,13.24,0,0,1,4-9.66,13.23,13.23,0,0,1,19,0,13.27,13.27,0,0,1,3.95,9.66V71.92a5.33,5.33,0,0,1-3.94-1.68,5.61,5.61,0,0,1-1.64-4Z" transform="translate(-2.83 -3.82)"/><path class="cls-1" d="M49.92,64.44A70.88,70.88,0,0,1,36,54.07c-1.22-1.18-2.45-2.46-3.67-3.85A78.81,78.81,0,0,1,20,30.33C17.23,24.12,12.43,15.18,3.62,3.85A60.25,60.25,0,0,1,31.11,9.41a57.3,57.3,0,0,1,16,10.77,52.56,52.56,0,0,1,4,4.32c6.63,8.07,9.1,16,11.89,23.82,2.12,5.88,5.32,14.11,10,24.08A58.87,58.87,0,0,1,49.92,64.44Z" transform="translate(-2.83 -3.82)"/><path class="cls-1" d="M52.44,72.88c-.59-.17-1.37-.39-2.3-.69s-2-.66-3.19-1.1a62.59,62.59,0,0,1-8.28-3.82l.07,0-.07,0c-1.28-.7-2.6-1.49-3.93-2.37a68.44,68.44,0,0,1-13-11.34c-.63-.7-1.14-1.29-1.5-1.73A41.82,41.82,0,0,0,7,57.45a91.22,91.22,0,0,1,19.38,9.43A55.74,55.74,0,0,0,41,74c1.23.37,2.42.67,3.57.92a50.82,50.82,0,0,0,12,1.08A47,47,0,0,0,64.83,75,57.39,57.39,0,0,1,52.44,72.88Z" transform="translate(-2.83 -3.82)"/><path class="cls-1" d="M48.7,66.53c-.64-.38-1.49-.87-2.48-1.49s-2.15-1.37-3.4-2.25a72,72,0,0,1-8.47-7c-1.26-1.23-2.54-2.56-3.81-4h0a71.43,71.43,0,0,1-7-9.59,85.55,85.55,0,0,1-4.28-7.83c-.66-1.38-1.14-2.45-1.42-3.08-.06-.14-.13-.29-.19-.44A50.21,50.21,0,0,0,2.83,32.59a111.16,111.16,0,0,1,19,17.3,68.2,68.2,0,0,0,14.28,13q1.92,1.26,3.77,2.28a62.36,62.36,0,0,0,13.26,5.4,58.18,58.18,0,0,0,8.32,1.73A67.23,67.23,0,0,1,48.7,66.53Z" transform="translate(-2.83 -3.82)"/></svg>