<?xml version="1.0" encoding="UTF-8"?>
<svg width="178px" height="39px" viewBox="0 0 178 39" version="1.1" xmlns="http://www.w3.org/2000/svg" xmlns:xlink="http://www.w3.org/1999/xlink">
    <!-- Generator: Sketch 50.2 (55047) - http://www.bohemiancoding.com/sketch -->
    <title>Fathom</title>
    <desc>Created with Sketch.</desc>
    <defs></defs>
    <g id="Page-1" stroke="none" stroke-width="1" fill="none" fill-rule="evenodd">
        <g id="fathom" transform="translate(-22.000000, -21.000000)" fill="#FFFFFF" fill-rule="nonzero">
            <g id="Fathom" transform="translate(22.000000, 21.000000)">
                <g id="Group" transform="translate(53.000000, 5.000000)">
                    <path d="M82.9834085,9.35616271 C77.4881244,9.35616271 73.1473116,13.852571 73.1473116,19.3481811 C73.1473116,24.8437912 77.4881244,29.3401995 82.9834085,29.3401995 C88.4786926,29.3401995 92.8195054,24.8437912 92.8195054,19.3481811 C92.8195054,13.852571 88.4786926,9.35616271 82.9834085,9.35616271 Z M82.9834085,24.4350268 C80.3512135,24.4350268 78.0422709,22.1641136 78.0422709,19.3935994 C78.0422709,16.6230852 80.3050347,14.3521719 82.9834085,14.3521719 C85.6617823,14.3521719 87.9245467,16.6230852 87.9245467,19.3935994 C87.9245467,22.1641136 85.6156035,24.4350268 82.9834085,24.4350268 Z M32.8331684,9.67409053 L32.4175586,11.8541673 C32.4175586,11.8541673 30.9398352,9.35616271 26.9684533,9.35616271 C21.8887789,9.35616271 17.6403239,12.8987874 17.6403239,19.2119263 C17.6403239,25.2979739 22.2120309,29.3856178 26.5528436,29.3856178 C30.6165831,29.3856178 32.4175586,26.0246661 32.4175586,26.0246661 L32.8331684,28.8860169 L37.3125176,28.8860169 L37.3125176,9.67409053 L32.8331684,9.67409053 Z M27.4764208,24.4350268 C24.7518681,24.4350268 22.535283,22.1641136 22.535283,19.3935994 C22.535283,16.6230852 24.7518681,14.3521719 27.4764208,14.3521719 C30.2009734,14.3521719 32.4175586,16.6230852 32.4175586,19.3935994 C32.4175586,22.1641136 30.2009734,24.4350268 27.4764208,24.4350268 Z M45.6247121,22.7091328 L45.6247121,14.5338449 L50.56585,14.5338449 L50.56585,9.67409053 L45.6247121,9.67409053 L45.6247121,4.85975441 L40.6835743,6.17688412 C40.6835743,6.17688412 40.6835743,21.8461857 40.6835743,22.754551 C40.6835743,24.2533538 40.6835743,29.4310361 46.6406471,29.4310361 C49.3190208,29.4310361 50.56585,28.6135072 50.56585,28.6135072 L50.56585,24.4804451 C50.56585,24.4350268 45.6247121,26.3880122 45.6247121,22.7091328 Z M118.171699,9.35616271 C113.784707,9.35616271 111.983731,12.5354413 111.983731,12.5354413 C111.983731,12.5354413 110.736903,9.35616271 106.39609,9.35616271 C103.302106,9.35616271 101.085521,10.7641289 100.208123,11.8541673 L99.7925132,9.67409053 L95.3131639,9.67409053 L95.3131639,29.0676899 L100.208123,29.0676899 L100.208123,19.3481811 C100.208123,16.8501765 101.224058,14.3521719 104.087147,14.3521719 C106.580805,14.3521719 107.59674,15.8055564 107.59674,18.2127245 L107.59674,29.0676899 L112.537878,29.0676899 L112.537878,18.3489792 C112.537878,17.0318496 113.27674,14.3975902 116.324544,14.3975902 C119.372349,14.3975902 119.880316,16.5776669 119.880316,18.1673062 L119.880316,29.0676899 L124.821455,29.0676899 L124.821455,16.6230852 C124.821455,14.715518 124.036414,9.35616271 118.171699,9.35616271 Z" id="Shape"></path>
                    <polygon id="Shape" points="0.415669856 0 0.415669856 29.0676471 5.8187799 29.0676471 5.8187799 16.9411765 15.1925837 16.9411765 15.1925837 12.1264706 5.8187799 12.1264706 5.8187799 4.86 20.0879187 4.86 20.0879187 0"></polygon>
                    <path d="M64.0038977,9.35616271 C60.8175568,9.35616271 59.1089388,11.0820568 58.5086136,11.8541673 L58.5086136,0 L53.5674758,1.3171297 L53.5674758,29.0676899 L58.5086136,29.0676899 L58.5086136,17.9856331 C58.5086136,16.6685034 59.06276,14.3975902 62.0643858,14.3975902 C65.0198325,14.3975902 65.7586944,16.8955948 65.7586944,18.5760706 L65.7586944,29.0676899 L70.6998325,29.0676899 L70.6998325,17.7131235 C70.6998325,13.171297 67.9291011,9.35616271 64.0038977,9.35616271 Z" id="Shape"></path>
                </g>
                <rect id="Rectangle-path" x="0" y="30" width="10" height="9"></rect>
                <polygon id="Shape" points="9.75 18.5 0 18.5 0 9 19.5 9 19.5 18.5 39 18.5 39 28 9.75 28"></polygon>
                <rect id="Rectangle-path" x="19" y="0" width="19" height="9"></rect>
            </g>
        </g>
    </g>
</svg>