<?xml version="1.0" encoding="UTF-8" standalone="no"?>
<svg width="169px" height="18px" viewBox="0 0 169 18" version="1.1" xmlns="http://www.w3.org/2000/svg" xmlns:xlink="http://www.w3.org/1999/xlink">
    <!-- Generator: Sketch 3.8.3 (29802) - http://www.bohemiancoding.com/sketch -->
    <title>ico-gocardless-white</title>
    <desc>Created with Sketch.</desc>
    <defs></defs>
    <g id="logos-white" stroke="none" stroke-width="1" fill="none" fill-rule="evenodd">
        <g id="ico-gocardless-white" transform="translate(-25.000000, -31.000000)" fill="#FFFFFF">
            <g transform="translate(25.000000, 31.000000)">
                <path d="M9.02923387,18 C3.71391129,18 0.0681451613,14.2269231 0.0681451613,9.10384615 L0.0681451613,9.06923077 C0.0681451613,4.15384615 3.85020161,0.103846154 8.99516129,0.103846154 C12.0616935,0.103846154 13.9016129,0.934615385 15.6733871,2.49230769 L13.322379,5.4 C11.9935484,4.29230769 10.8350806,3.63461538 8.85887097,3.63461538 C6.13306452,3.63461538 3.95241935,6.09230769 3.95241935,9.03461538 L3.95241935,9.06923077 C3.98649194,12.2192308 6.13306452,14.5384615 9.13145161,14.5384615 C10.4943548,14.5384615 11.7209677,14.1923077 12.675,13.5 L12.675,11.0423077 L8.89294355,11.0423077 L8.89294355,7.75384615 L16.2866935,7.75384615 L16.2866935,15.2653846 C14.5489919,16.7538462 12.1298387,18 9.02923387,18 Z M27.8372984,18 C22.590121,18 18.8080645,14.0192308 18.8080645,9.10384615 L18.8080645,9.06923077 C18.8080645,4.15384615 22.6241935,0.103846154 27.871371,0.103846154 C33.1185484,0.103846154 36.9006048,4.08461538 36.9006048,9 L36.9006048,9.03461538 C36.9006048,13.9846154 33.0844758,18 27.8372984,18 Z M32.9822581,9.03461538 C32.9822581,6.05769231 30.8356855,3.6 27.8372984,3.6 C24.8048387,3.6 22.7264113,6.02307692 22.7264113,9 L22.7264113,9.03461538 C22.7264113,12.0115385 24.8729839,14.4692308 27.871371,14.4692308 C30.9038306,14.4692308 32.9822581,12.0461538 32.9822581,9.06923077 L32.9822581,9.03461538 Z M47.7016129,18 C42.7951613,18 39.1493952,14.0538462 39.1493952,9.06923077 C39.1493952,4.11923077 42.7610887,0.103846154 47.7697581,0.103846154 C50.8703629,0.103846154 52.7102823,1.21153846 54.4139113,2.83846154 L53.0850806,4.25769231 C51.6540323,2.87307692 50.052621,1.86923077 47.7356855,1.86923077 C43.953629,1.86923077 41.1256048,4.95 41.1256048,9 C41.1256048,13.0153846 43.9877016,16.1653846 47.7356855,16.1653846 C50.0866935,16.1653846 51.6199597,15.2653846 53.221371,13.6730769 L54.4820565,14.9192308 C52.7443548,16.7884615 50.8022177,18 47.7016129,18 Z M73.4264113,17.7230769 L71.3479839,17.7230769 L69.3377016,13.1538462 L60.0699597,13.1538462 L58.0596774,17.7230769 L56.0834677,17.7230769 L63.8520161,0.276923077 L65.6578629,0.276923077 L73.4264113,17.7230769 Z M64.7379032,2.56153846 L60.853629,11.3884615 L68.6221774,11.3884615 L64.7379032,2.56153846 Z M87.9072581,17.7230769 L82.9667339,11.0076923 L78.0943548,11.0076923 L78.0943548,17.7230769 L76.1862903,17.7230769 L76.1862903,0.415384615 L83.5118952,0.415384615 C87.259879,0.415384615 89.6790323,2.45769231 89.6790323,5.57307692 C89.6790323,8.48076923 87.7368952,10.1423077 85.0451613,10.6269231 L90.2923387,17.6884615 L87.9072581,17.6884615 L87.9072581,17.7230769 Z M83.3756048,2.21538462 L78.1284274,2.21538462 L78.1284274,9.24230769 L83.3756048,9.24230769 C85.9310484,9.24230769 87.7709677,7.89230769 87.7709677,5.64230769 C87.7368952,3.49615385 86.1014113,2.21538462 83.3756048,2.21538462 Z M99.3215726,17.7230769 L93.3929435,17.7230769 L93.3929435,0.415384615 L99.3215726,0.415384615 C104.670968,0.415384615 108.384879,4.15384615 108.384879,9.03461538 C108.350806,13.9153846 104.670968,17.7230769 99.3215726,17.7230769 Z M99.3215726,2.21538462 L95.3350806,2.21538462 L95.3350806,15.9230769 L99.3215726,15.9230769 C103.614718,15.9230769 106.374597,12.9461538 106.374597,9.10384615 C106.374597,5.22692308 103.614718,2.21538462 99.3215726,2.21538462 Z M111.996573,0.380769231 L113.904637,0.380769231 L113.904637,15.8884615 L123.513105,15.8884615 L123.513105,17.7230769 L111.996573,17.7230769 L111.996573,0.380769231 Z M138.675403,2.18076923 L128.283266,2.18076923 L128.283266,8.1 L137.551008,8.1 L137.551008,9.86538462 L128.283266,9.86538462 L128.283266,15.9230769 L138.777621,15.9230769 L138.777621,17.7230769 L126.341129,17.7230769 L126.341129,0.380769231 L138.675403,0.380769231 L138.675403,2.18076923 Z M148.352016,8.1 C152.134073,8.93076923 153.905847,10.35 153.905847,13.0153846 C153.905847,15.9923077 151.486694,17.9307692 148.079435,17.9307692 C145.387702,17.9307692 143.172984,17.0307692 141.128629,15.1615385 L142.321169,13.7423077 C144.092944,15.3692308 145.796573,16.2 148.147581,16.2 C150.430444,16.2 151.929637,14.9884615 151.929637,13.2230769 C151.929637,11.5961538 151.077823,10.6615385 147.500202,9.9 C143.581855,9.03461538 141.776008,7.75384615 141.776008,4.88076923 C141.776008,2.11153846 144.127016,0.138461538 147.363911,0.138461538 C149.85121,0.138461538 151.622984,0.865384615 153.360685,2.25 L152.23629,3.77307692 C150.668952,2.45769231 149.06754,1.90384615 147.329839,1.90384615 C145.115121,1.90384615 143.718145,3.15 143.718145,4.70769231 C143.718145,6.36923077 144.56996,7.30384615 148.352016,8.1 Z M163.446169,8.1 C167.228226,8.93076923 169,10.35 169,13.0153846 C169,15.9923077 166.580847,17.9307692 163.173589,17.9307692 C160.481855,17.9307692 158.267137,17.0307692 156.222782,15.1615385 L157.415323,13.7423077 C159.187097,15.3692308 160.890726,16.2 163.241734,16.2 C165.524597,16.2 167.02379,14.9884615 167.02379,13.2230769 C167.02379,11.5961538 166.171976,10.6615385 162.594355,9.9 C158.676008,9.03461538 156.870161,7.75384615 156.870161,4.88076923 C156.870161,2.11153846 159.221169,0.138461538 162.458065,0.138461538 C164.945363,0.138461538 166.717137,0.865384615 168.454839,2.25 L167.330444,3.77307692 C165.763105,2.45769231 164.161694,1.90384615 162.423992,1.90384615 C160.209274,1.90384615 158.812298,3.15 158.812298,4.70769231 C158.812298,6.36923077 159.698185,7.30384615 163.446169,8.1 Z"></path>
            </g>
        </g>
    </g>
</svg>