<?xml version="1.0" encoding="UTF-8" standalone="no"?>
<svg width="162px" height="30px" viewBox="0 0 162 30" version="1.1" xmlns="http://www.w3.org/2000/svg" xmlns:xlink="http://www.w3.org/1999/xlink">
    <!-- Generator: Sketch 3.8.3 (29802) - http://www.bohemiancoding.com/sketch -->
    <title>ico-pinpayments-white</title>
    <desc>Created with Sketch.</desc>
    <defs></defs>
    <g id="logos-white" stroke="none" stroke-width="1" fill="none" fill-rule="evenodd">
        <g id="ico-pinpayments-white" transform="translate(-29.000000, -25.000000)" fill="#FFFFFF">
            <g transform="translate(29.000000, 25.000000)">
                <path d="M33.6,7.4 C34.5,7.4 35.4,7.5 36,7.8 C36.7,8.1 37.2,8.4 37.6,8.9 C38,9.4 38.3,9.9 38.5,10.4 C38.7,11 38.8,11.6 38.8,12.2 C38.8,12.8 38.7,13.4 38.5,14 C38.3,14.6 38,15.1 37.6,15.6 C37.2,16.1 36.6,16.4 36,16.7 C35.3,17 34.5,17.1 33.6,17.1 L30.1,17.1 L30.1,22.5 L26.8,22.5 L26.8,7.4 L33.6,7.4 L33.6,7.4 Z M32.7,14.5 C33.1,14.5 33.4,14.5 33.8,14.4 C34.2,14.3 34.5,14.2 34.7,14.1 C35,13.9 35.2,13.7 35.3,13.4 C35.5,13.1 35.5,12.7 35.5,12.2 C35.5,11.7 35.4,11.3 35.3,11 C35.1,10.7 34.9,10.5 34.7,10.3 C34.4,10.1 34.1,10 33.8,10 L32.7,10 L30.1,10 L30.1,14.5 L32.7,14.5 L32.7,14.5 Z" id="Fill-1"></path>
                <path d="M40.3,9.9 L43.3,9.9 L43.3,7.4 L40.3,7.4 L40.3,9.9 Z M40.3,22.5 L43.3,22.5 L43.3,11.5 L40.3,11.5 L40.3,22.5 Z" id="Fill-3"></path>
                <path d="M48.6,11.6 L48.6,13.1 L48.7,13.1 C49.1,12.5 49.6,12 50.2,11.7 C50.8,11.4 51.4,11.3 52.1,11.3 C52.9,11.3 53.6,11.4 54.1,11.6 C54.6,11.8 55,12.1 55.3,12.5 C55.6,12.9 55.8,13.4 55.9,13.9 C56,14.5 56.1,15.1 56.1,15.8 L56.1,22.5 L53.1,22.5 L53.1,16.3 C53.1,15.4 53,14.7 52.7,14.3 C52.4,13.9 51.9,13.6 51.2,13.6 C50.4,13.6 49.8,13.8 49.4,14.3 C49,14.8 48.8,15.6 48.8,16.7 L48.8,22.4 L45.8,22.4 L45.8,11.4 L48.6,11.4" id="Fill-5"></path>
                <path d="M71.3,7.4 C72.2,7.4 73.1,7.5 73.7,7.8 C74.4,8.1 74.9,8.4 75.3,8.9 C75.7,9.4 76,9.9 76.2,10.4 C76.4,11 76.5,11.6 76.5,12.2 C76.5,12.8 76.4,13.4 76.2,14 C76,14.6 75.7,15.1 75.3,15.6 C74.9,16.1 74.3,16.4 73.7,16.7 C73,17 72.2,17.1 71.3,17.1 L67.8,17.1 L67.8,22.5 L64.5,22.5 L64.5,7.4 L71.3,7.4 Z M70.4,14.5 C70.8,14.5 71.1,14.5 71.5,14.4 C71.9,14.3 72.2,14.2 72.4,14.1 C72.7,13.9 72.9,13.7 73,13.4 C73.2,13.1 73.2,12.7 73.2,12.2 C73.2,11.7 73.1,11.3 73,11 C72.8,10.7 72.6,10.5 72.4,10.3 C72.1,10.1 71.8,10 71.5,10 L70.4,10 L67.8,10 L67.8,14.5 L70.4,14.5 Z" id="Fill-6"></path>
                <path d="M78,13.2 C78.3,12.7 78.7,12.4 79.2,12.1 C79.7,11.8 80.2,11.6 80.8,11.5 C81.4,11.4 82,11.3 82.6,11.3 C83.2,11.3 83.7,11.3 84.3,11.4 C84.9,11.5 85.4,11.6 85.8,11.9 C86.3,12.1 86.6,12.4 86.9,12.8 C87.2,13.2 87.3,13.7 87.3,14.4 L87.3,20.1 C87.3,20.6 87.3,21.1 87.4,21.5 C87.5,22 87.6,22.3 87.7,22.5 L84.6,22.5 C84.7,22.4 84.7,22.2 84.6,22 C84.6,21.8 84.5,21.6 84.5,21.5 C84,22 83.5,22.3 82.8,22.5 C82.1,22.7 81.5,22.8 80.8,22.8 C80.3,22.8 79.8,22.7 79.3,22.6 C78.8,22.5 78.5,22.3 78.1,22 C77.8,21.7 77.5,21.4 77.3,21 C77.1,20.6 77,20.1 77,19.5 C77,18.9 77.1,18.4 77.3,18 C77.5,17.6 77.8,17.3 78.1,17 C78.4,16.8 78.8,16.6 79.3,16.5 C79.7,16.4 80.2,16.3 80.6,16.2 C81.1,16.1 81.5,16.1 81.9,16 C82.3,16 82.7,15.9 83.1,15.8 C83.4,15.7 83.7,15.6 83.9,15.4 C84.1,15.2 84.2,15 84.2,14.7 C84.2,14.4 84.1,14.1 84,13.9 C83.9,13.7 83.8,13.6 83.6,13.5 C83.4,13.4 83.2,13.3 83,13.3 C82.8,13.3 82.5,13.2 82.2,13.2 C81.6,13.2 81.1,13.3 80.8,13.6 C80.5,13.9 80.3,14.3 80.2,14.9 L77.2,14.9 C77.5,14.2 77.7,13.6 78,13.2 M83.9,17.4 C83.7,17.5 83.5,17.5 83.3,17.6 C83.1,17.6 82.9,17.7 82.6,17.7 C82.4,17.7 82.1,17.8 81.9,17.8 C81.7,17.8 81.5,17.9 81.2,18 C81,18.1 80.8,18.2 80.6,18.3 C80.4,18.4 80.3,18.6 80.2,18.8 C80.1,19 80.1,19.2 80.1,19.5 C80.1,19.8 80.1,20 80.2,20.2 C80.3,20.4 80.4,20.5 80.6,20.6 C80.8,20.7 81,20.8 81.2,20.8 C81.4,20.8 81.7,20.9 81.9,20.9 C82.5,20.9 83,20.8 83.3,20.6 C83.6,20.4 83.9,20.2 84,19.9 C84.2,19.6 84.3,19.3 84.3,19.1 C84.3,18.8 84.4,18.6 84.4,18.4 L84.4,17.3 C84.3,17.3 84.1,17.4 83.9,17.4" id="Fill-7"></path>
                <path d="M93.8,25.8 C93.2,26.2 92.4,26.4 91.4,26.4 L90.5,26.4 C90.2,26.4 89.9,26.4 89.6,26.3 L89.6,23.8 C89.9,23.8 90.2,23.9 90.5,23.9 L91.4,23.9 C91.8,23.9 92.1,23.7 92.3,23.4 C92.5,23.1 92.6,22.8 92.6,22.5 C92.6,22.3 92.6,22 92.5,21.8 L88.7,11.5 L91.7,11.5 L94.2,19 L96.6,11.5 L99.7,11.5 L95.1,23.8 C94.8,24.8 94.4,25.4 93.8,25.8" id="Fill-8"></path>
                <path d="M103.7,11.6 L103.7,13.1 C104.1,12.5 104.6,12.1 105.1,11.8 C105.7,11.5 106.3,11.3 107,11.3 C107.7,11.3 108.3,11.4 108.9,11.7 C109.5,12 109.9,12.4 110.2,13.1 C110.5,12.6 111,12.2 111.5,11.8 C112.1,11.4 112.7,11.2 113.5,11.2 C114.1,11.2 114.6,11.3 115.1,11.4 C115.6,11.5 116,11.8 116.4,12.1 C116.8,12.4 117,12.8 117.2,13.3 C117.4,13.8 117.5,14.4 117.5,15.1 L117.5,22.4 L114.5,22.4 L114.5,16.2 L114.5,15.2 C114.5,14.9 114.4,14.6 114.3,14.4 C114.2,14.2 114,14 113.7,13.8 C113.5,13.7 113.1,13.6 112.7,13.6 C112.3,13.6 111.9,13.7 111.7,13.8 C111.4,14 111.2,14.2 111.1,14.4 C111,14.7 110.9,15 110.8,15.3 C110.8,15.6 110.7,16 110.7,16.3 L110.7,22.4 L107.7,22.4 L107.7,16.3 L107.7,15.3 C107.7,15 107.6,14.7 107.5,14.4 C107.4,14.1 107.2,13.9 107,13.8 C106.8,13.6 106.4,13.6 105.9,13.6 C105.8,13.6 105.6,13.6 105.3,13.7 C105.1,13.8 104.8,13.9 104.6,14.1 C104.4,14.3 104.2,14.5 104,14.9 C103.8,15.2 103.8,15.7 103.8,16.2 L103.8,22.6 L100.8,22.6 L100.8,11.6 L103.7,11.6" id="Fill-9"></path>
                <path d="M122.9,19.9 C123.4,20.3 124,20.6 124.8,20.6 C125.4,20.6 125.9,20.4 126.4,20.1 C126.8,19.8 127.1,19.5 127.2,19.1 L129.8,19.1 C129.4,20.4 128.7,21.4 127.9,21.9 C127,22.5 126,22.7 124.7,22.7 C123.8,22.7 123.1,22.6 122.4,22.3 C121.7,22 121.1,21.6 120.6,21.1 C120.1,20.6 119.7,20 119.5,19.3 C119.2,18.6 119.1,17.8 119.1,17 C119.1,16.2 119.2,15.4 119.5,14.7 C119.8,14 120.1,13.4 120.6,12.9 C121.1,12.4 121.7,12 122.4,11.7 C123.1,11.4 123.8,11.3 124.7,11.3 C125.6,11.3 126.4,11.5 127.1,11.8 C127.8,12.2 128.4,12.6 128.8,13.3 C129.2,13.9 129.6,14.6 129.8,15.4 C130,16.2 130.1,17 130,17.8 L122.1,17.8 C122.2,18.8 122.5,19.5 122.9,19.9 M126.3,14.1 C125.9,13.7 125.4,13.5 124.7,13.5 C124.2,13.5 123.8,13.6 123.5,13.7 C123.2,13.9 122.9,14.1 122.7,14.3 C122.5,14.5 122.4,14.8 122.3,15.1 C122.2,15.4 122.2,15.6 122.2,15.8 L127.1,15.8 C126.9,15.1 126.7,14.5 126.3,14.1" id="Fill-10"></path>
                <path d="M134.6,11.6 L134.6,13.1 L134.7,13.1 C135.1,12.5 135.6,12 136.2,11.7 C136.8,11.4 137.4,11.3 138.1,11.3 C138.9,11.3 139.6,11.4 140.1,11.6 C140.6,11.8 141,12.1 141.3,12.5 C141.6,12.9 141.8,13.4 141.9,13.9 C142,14.5 142.1,15.1 142.1,15.8 L142.1,22.5 L139.1,22.5 L139.1,16.3 C139.1,15.4 139,14.7 138.7,14.3 C138.4,13.9 137.9,13.6 137.2,13.6 C136.4,13.6 135.8,13.8 135.4,14.3 C135,14.8 134.8,15.6 134.8,16.7 L134.8,22.4 L131.8,22.4 L131.8,11.4 L134.6,11.4" id="Fill-11"></path>
                <path d="M150.4,11.6 L150.4,13.6 L148.2,13.6 L148.2,19 C148.2,19.5 148.3,19.8 148.5,20 C148.7,20.2 149,20.3 149.5,20.3 L150,20.3 C150.2,20.3 150.3,20.3 150.4,20.2 L150.4,22.5 C150.1,22.5 149.9,22.6 149.6,22.6 L148.7,22.6 C148.2,22.6 147.8,22.6 147.4,22.5 C147,22.4 146.6,22.3 146.3,22.1 C146,21.9 145.7,21.7 145.5,21.3 C145.3,21 145.2,20.5 145.2,20 L145.2,13.5 L143.4,13.5 L143.4,11.5 L145.2,11.5 L145.2,8.3 L148.2,8.3 L148.2,11.6 L150.4,11.6" id="Fill-12"></path>
                <path d="M154.3,19.8 C154.4,20 154.6,20.2 154.8,20.4 C155,20.5 155.3,20.7 155.5,20.7 C155.8,20.8 156.1,20.8 156.4,20.8 C156.6,20.8 156.8,20.8 157.1,20.7 C157.3,20.7 157.5,20.6 157.7,20.5 C157.9,20.4 158,20.3 158.2,20.1 C158.3,19.9 158.4,19.7 158.4,19.4 C158.4,18.9 158.1,18.6 157.5,18.4 C156.9,18.2 156.1,17.9 155,17.7 C154.6,17.6 154.1,17.5 153.7,17.4 C153.3,17.3 152.9,17.1 152.6,16.9 C152.3,16.7 152,16.4 151.8,16.1 C151.6,15.8 151.5,15.4 151.5,14.9 C151.5,14.2 151.6,13.6 151.9,13.2 C152.2,12.7 152.5,12.4 153,12.1 C153.5,11.8 154,11.7 154.5,11.5 C155.1,11.4 155.6,11.3 156.2,11.3 C156.8,11.3 157.4,11.4 157.9,11.5 C158.5,11.6 159,11.8 159.4,12.1 C159.8,12.4 160.2,12.7 160.5,13.2 C160.8,13.6 161,14.2 161,14.9 L158.1,14.9 C158.1,14.3 157.8,13.9 157.4,13.7 C157,13.5 156.5,13.4 156,13.4 L155.4,13.4 C155.2,13.4 155,13.5 154.9,13.5 C154.7,13.6 154.6,13.7 154.5,13.8 C154.4,13.9 154.3,14.1 154.3,14.3 C154.3,14.6 154.4,14.8 154.6,15 C154.8,15.2 155.1,15.3 155.4,15.4 C155.7,15.5 156.1,15.6 156.5,15.7 C156.9,15.8 157.3,15.9 157.8,16 C158.2,16.1 158.7,16.2 159.1,16.4 C159.5,16.5 159.9,16.7 160.2,17 C160.5,17.2 160.8,17.5 161,17.9 C161.2,18.2 161.3,18.7 161.3,19.2 C161.3,19.9 161.2,20.5 160.9,21 C160.6,21.5 160.2,21.9 159.8,22.2 C159.3,22.5 158.8,22.7 158.2,22.8 C157.6,22.9 157,23 156.4,23 C155.8,23 155.1,22.9 154.5,22.8 C153.9,22.7 153.4,22.5 152.9,22.2 C152.4,21.9 152,21.5 151.7,21 C151.4,20.5 151.2,19.9 151.2,19.2 L154.1,19.2 C154.1,19.3 154.2,19.6 154.3,19.8" id="Fill-13"></path>
                <path d="M9.3,6 C11.1,6 12.6,7.5 12.6,9.3 C12.6,10.7 11.9,12.8 11,15.2 C11.8,17.2 12.9,19.5 14,21.6 C16.3,17.1 18.7,11.9 18.7,9.3 C18.7,4.2 14.5,0 9.4,0 C4.3,0 0,4.2 0,9.3 C0,14.2 8.5,28.6 9.3,30 C9.6,29.5 10.8,27.4 12.3,24.7 C9.6,19.7 6,12.5 6,9.3 C6,7.5 7.5,6 9.3,6" id="Fill-14"></path>
            </g>
        </g>
    </g>
</svg>