<?xml version="1.0" encoding="UTF-8" standalone="no"?>
<svg width="174px" height="26px" viewBox="0 0 174 26" version="1.1" xmlns="http://www.w3.org/2000/svg" xmlns:xlink="http://www.w3.org/1999/xlink">
    <!-- Generator: Sketch 39.1 (31720) - http://www.bohemiancoding.com/sketch -->
    <title>practice-ignition</title>
    <desc>Created with Sketch.</desc>
    <defs>
        <polygon id="path-1" points="5.80822592e-21 0.120963934 5.80822592e-21 25.049423 18.0843429 25.049423 18.0843429 0.120963934 0 0.120963934"></polygon>
        <polygon id="path-3" points="0 25.6331443 173.968286 25.6331443 173.968286 0.000127868852 0 0.000127868852"></polygon>
    </defs>
    <g id="logos-white" stroke="none" stroke-width="1" fill="none" fill-rule="evenodd">
        <g id="practice-ignition" transform="translate(-23.000000, -28.000000)">
            <g transform="translate(23.000000, 28.000000)">
                <path d="M10.1334429,5.81590164 C11.2794429,6.14622951 12.2167286,6.96288525 12.6731571,8.04252459 L17.6085857,6.70118033 C16.5157286,3.47078689 13.6353,1.06259016 10.1334429,0.642327869 L10.1334429,5.81590164 L10.1334429,5.81590164 Z" id="Fill-1" fill="#FEFEFE"></path>
                <g id="Group-5" transform="translate(0.000000, 0.485603)">
                    <mask id="mask-2" fill="white">
                        <use xlink:href="#path-1"></use>
                    </mask>
                    <g id="Clip-4"></g>
                    <path d="M12.9526286,9.36076721 C12.8039143,11.3900459 11.1204857,12.9965049 9.04277143,12.9965049 C6.86605714,12.9965049 5.10077143,11.241718 5.10077143,9.07647213 C5.10077143,7.16142295 6.48548571,5.57457049 8.31162857,5.23316066 L8.31162857,0.120963934 C3.66077143,0.493062295 -8.5714285e-05,4.35683279 -8.5714285e-05,9.07647213 L-8.5714285e-05,25.049423 L0.158485714,25.049423 L5.96648571,19.3588328 L5.96648571,19.2215869 C5.96648571,19.2215869 4.59248571,18.1692262 3.88962857,16.4604721 C5.35148571,17.4727672 7.12405714,18.0699148 9.04277143,18.0699148 C14.0352,18.0699148 18.0843429,14.0433246 18.0843429,9.07647213 C18.0843429,8.70650492 18.0547714,8.34378361 18.0110571,7.98532459 L12.9526286,9.36076721 Z" id="Fill-3" fill="#FEFEFE" mask="url(#mask-2)"></path>
                </g>
                <mask id="mask-4" fill="white">
                    <use xlink:href="#path-3"></use>
                </mask>
                <g id="Clip-7"></g>
                <polygon id="Fill-6" fill="#FEFEFE" mask="url(#mask-4)" points="99.3672857 17.6664885 102.593143 17.6664885 102.593143 1.01199672 99.3672857 1.01199672"></polygon>
                <path d="M109.466143,7.4272623 C108.722143,7.4272623 108.129857,7.62844262 107.691,8.03037705 C107.253429,8.43486885 107.033143,8.97319672 107.033143,9.64834426 C107.033143,10.3384098 107.245286,10.8767377 107.667429,11.2629016 C108.089143,11.6503443 108.687,11.8425738 109.466143,11.8425738 C110.193857,11.8425738 110.772,11.6546066 111.202714,11.2769672 C111.633,10.8984754 111.846857,10.3635574 111.846857,9.67178689 C111.846857,8.17657377 111.053571,7.4272623 109.466143,7.4272623 M110.673,17.9137869 L108.533143,17.9137869 L107.967,17.9137869 C107.229,18.3229672 106.860429,20.6301475 106.860429,21.3896885 C106.860429,21.947623 107.094,22.3874918 107.561571,22.7088689 C108.028286,23.0293934 108.663857,23.1905082 109.467429,23.1905082 C110.468571,23.1905082 111.243857,23.0016885 111.793714,22.6227705 C112.341429,22.2434262 112.615714,21.7592295 112.615714,21.1671967 C112.615714,20.6898197 112.455429,18.5914918 112.136571,18.3208361 C111.816429,18.0489016 111.329143,17.9137869 110.673,17.9137869 M108.993857,25.6332295 C107.322857,25.6332295 106.024714,25.3233607 105.099,24.7027705 C104.172429,24.0851639 103.710429,23.1815574 103.710429,21.9928033 C103.710429,21.3474918 103.884,19.0381803 104.230714,18.510082 C104.578286,17.9819836 105.033429,17.5774918 105.594857,17.2957541 C105.199286,17.1001148 104.896714,16.8507705 104.690571,16.5477213 C104.481857,16.2468033 104.379429,15.8742787 104.379429,15.4327049 C104.379429,14.9745082 104.510143,14.5512623 104.777571,14.1582787 C105.041571,13.7648689 105.397286,13.4873934 105.843429,13.3245738 C105.264,13.0283443 104.814,12.576541 104.491714,11.9666066 C104.169,11.3579508 104.007857,10.6678852 104.007857,9.89427869 C104.007857,8.5294918 104.499429,7.39401639 105.483,6.48998361 C106.467,5.58467213 107.835857,5.13116393 109.590429,5.13116393 C109.985571,5.13116393 110.328429,5.15204918 110.619429,5.1942459 C110.909143,5.23559016 111.284143,5.30506557 111.748714,5.40309836 L117.648857,5.40309836 L117.648857,7.84581967 L114.253286,7.84581967 C114.666429,8.22729508 114.873,8.7707377 114.873,9.48168852 C114.873,10.8690656 114.410571,11.9670328 113.485286,12.7760164 C112.558714,13.5858525 111.244286,13.9890656 109.540286,13.9890656 C109.374,13.9890656 109.193143,13.986082 108.994286,13.9771311 C108.796286,13.969459 108.571286,13.9404754 108.324,13.8906066 C107.926714,14.0687705 107.728286,14.3287705 107.728286,14.6680492 C107.728286,14.9604426 107.864143,15.1582131 108.138429,15.2634918 C108.410143,15.367918 108.910286,15.4211967 109.639714,15.4211967 L111.550714,15.4211967 C112.889143,15.4211967 113.928429,15.7310656 114.663857,16.3490984 C115.399286,16.9684098 115.766571,19.585459 115.766571,20.7567377 C115.766571,22.1257869 115.142143,23.2812951 113.895,24.2215574 C112.645286,25.1622459 111.012857,25.6332295 108.993857,25.6332295" id="Fill-8" fill="#FEFEFE" mask="url(#mask-4)"></path>
                <path d="M124.896214,17.666318 L124.896214,9.82028525 C124.896214,9.11274426 124.788643,8.59402295 124.572214,8.26582623 C124.356214,7.93635082 123.958071,7.77225246 123.374357,7.77225246 C122.576786,7.77225246 121.893214,8.16353115 121.328786,8.94480984 C120.7635,9.7256623 120.479786,10.6603836 120.479786,11.7447115 L120.479786,17.6667443 L117.330643,17.6667443 L117.330643,5.40326885 L120.330643,5.40326885 C120.330643,5.84782623 120.323786,6.22248197 120.307071,6.52723607 C120.290786,6.83156393 120.242357,7.1806459 120.159214,7.57405574 C120.5535,6.83497377 121.1175,6.24336721 121.845643,5.79838361 C122.5725,5.35425246 123.415929,5.13133443 124.374643,5.13133443 C125.681786,5.13133443 126.621214,5.49021967 127.191214,6.20543279 C127.7625,6.92192459 128.0475,7.87071148 128.0475,9.05605574 L128.0475,16.5176295 L124.896214,17.666318 Z" id="Fill-9" fill="#FEFEFE" mask="url(#mask-4)"></path>
                <path d="M130.504286,17.6660623 L133.654286,17.6660623 L133.654286,5.40301311 L130.504286,5.40301311 L130.504286,17.6660623 Z M132.078429,3.82639016 C131.535857,3.82639016 131.075143,3.63501311 130.697571,3.25737377 C130.319571,2.87888197 130.131,2.42665246 130.131,1.90111148 C130.131,1.39048852 130.319571,0.946783607 130.697571,0.568718033 C131.075143,0.19022623 131.535857,0.000127868852 132.078429,0.000127868852 C132.621857,0.000127868852 133.084286,0.186816393 133.471714,0.555504918 C133.858286,0.92632459 134.050714,1.37557049 134.050714,1.90111148 C134.050714,2.44412787 133.858286,2.89848852 133.471714,3.2693082 C133.084286,3.63970164 132.621857,3.82639016 132.078429,3.82639016 L132.078429,3.82639016 Z" id="Fill-10" fill="#FEFEFE" mask="url(#mask-4)"></path>
                <path d="M140.748171,17.9137016 C139.393886,17.9137016 138.457457,17.6345213 137.945314,17.0740295 C137.433171,16.5165213 137.176886,15.5127508 137.176886,14.064423 L137.176886,7.84616066 L135.044314,7.84616066 L135.044314,5.40343934 L137.176886,5.40343934 L137.176886,1.6240623 L140.326457,0.783963934 L140.326457,5.40301311 L143.330314,5.40301311 L143.330314,7.84573443 L140.326457,7.84573443 L140.326457,13.225177 C140.326457,13.9992098 140.4306,14.5298656 140.6376,14.8171443 C140.8446,15.1052754 141.229886,15.2489148 141.791743,15.2489148 C142.336029,15.2489148 142.8486,15.1837016 143.330314,15.052423 L143.330314,17.593177 C142.468886,17.8054393 141.608743,17.9137016 140.748171,17.9137016" id="Fill-11" fill="#FEFEFE" mask="url(#mask-4)"></path>
                <path d="M144.916714,17.6660623 L148.068857,17.6660623 L148.068857,5.40301311 L144.916714,5.40301311 L144.916714,17.6660623 Z M146.491714,3.82639016 C145.950429,3.82639016 145.491857,3.63501311 145.112143,3.25737377 C144.733714,2.87888197 144.545143,2.42665246 144.545143,1.90111148 C144.545143,1.39048852 144.733714,0.946783607 145.112143,0.568718033 C145.491857,0.19022623 145.950429,0.000127868852 146.491714,0.000127868852 C147.035143,0.000127868852 147.499286,0.186816393 147.886286,0.555504918 C148.271143,0.92632459 148.464429,1.37557049 148.464429,1.90111148 C148.464429,2.44412787 148.271143,2.89848852 147.886286,3.2693082 C147.499286,3.63970164 147.035143,3.82639016 146.491714,3.82639016 L146.491714,3.82639016 Z" id="Fill-12" fill="#FEFEFE" mask="url(#mask-4)"></path>
                <path d="M155.710071,7.82152459 C154.915071,7.82152459 154.248643,8.12329508 153.7125,8.72214754 C153.173357,9.32355738 152.904643,10.2241803 152.904643,11.4235902 C152.904643,13.9579508 153.823929,15.2234262 155.6595,15.2234262 C156.4695,15.2234262 157.1325,14.8994918 157.643357,14.2494918 C158.156357,13.5982131 158.413929,12.675 158.413929,11.4738852 C158.413929,9.03840984 157.512214,7.82152459 155.710071,7.82152459 M155.385643,17.9137869 C153.550929,17.9137869 152.132786,17.416377 151.1325,16.4207049 C150.1305,15.4258852 149.631643,13.8667377 149.631643,11.7449672 C149.631643,9.80519672 150.214071,8.22132787 151.380214,6.9954918 C152.545929,5.76965574 154.063929,5.15716393 155.932929,5.15716393 C157.735929,5.15716393 159.145071,5.66821311 160.162929,6.68818033 C161.180357,7.70772131 161.687786,9.24427869 161.687786,11.3016885 C161.687786,13.2256885 161.096786,14.8087049 159.915214,16.049459 C158.731071,17.291918 157.221214,17.9137869 155.385643,17.9137869" id="Fill-13" fill="#FEFEFE" mask="url(#mask-4)"></path>
                <path d="M170.817729,16.5177148 L170.817729,9.82037049 C170.817729,9.11282951 170.710586,8.5941082 170.492871,8.26591148 C170.2773,7.93643607 169.8783,7.7723377 169.2963,7.7723377 C168.497443,7.7723377 167.815586,8.16361639 167.250729,8.94489508 C166.6833,9.72574754 166.401729,10.6600426 166.401729,11.7447967 L166.401729,17.6668295 L163.250871,17.6668295 L163.250871,5.40292787 L166.253014,5.40292787 C166.253014,5.84791148 166.244014,6.22214098 166.228157,6.52732131 C166.211443,6.83164918 166.1613,7.18073115 166.078586,7.57414098 C166.477157,6.83505902 167.038157,6.24345246 167.765871,5.79846885 C168.494014,5.35391148 169.337014,5.13141967 170.297014,5.13141967 C171.602871,5.13141967 172.542729,5.49030492 173.113157,6.20551803 C173.682729,6.92200984 173.968586,7.87037049 173.968586,9.05571475 L173.968586,17.6664033 L170.817729,16.5177148 Z" id="Fill-14" fill="#FEFEFE" mask="url(#mask-4)"></path>
                <path d="M27.8598429,7.23077049 L27.0614143,7.23077049 L27.0614143,11.1081803 L27.7209857,11.1610328 C28.4251286,11.1610328 28.9917,10.9807377 29.4198429,10.6197213 C29.8462714,10.2608361 30.0605571,9.76513115 30.0605571,9.13559016 C30.0605571,8.5294918 29.8801286,8.06106557 29.5222714,7.72860656 C29.1648429,7.397 28.6102714,7.23077049 27.8598429,7.23077049 M27.8247,13.0210984 L27.5645571,13.0210984 L27.2958429,13.0210984 L27.0609857,13.0210984 L27.0609857,17.0881803 L24.8101286,17.0881803 L24.8101286,5.45808197 C25.1328429,5.45808197 25.7015571,5.44870492 26.5171286,5.43080328 C27.3309857,5.41290164 27.8071286,5.40437705 27.9455571,5.40437705 C29.3787,5.40437705 30.4784143,5.71808197 31.2464143,6.34378689 C32.0139857,6.96693443 32.3979857,7.85178689 32.3979857,8.99791803 C32.3979857,10.1572623 31.9857,11.1154262 31.1594143,11.878377 C30.3339857,12.6404754 29.2222714,13.0210984 27.8247,13.0210984" id="Fill-15" fill="#FEFEFE" mask="url(#mask-4)"></path>
                <path d="M37.146,7.23077049 C36.7877143,7.23077049 36.4928571,7.24952459 36.2618571,7.28277049 L36.2618571,10.6261148 L37.0765714,10.6602131 C37.7472857,10.6602131 38.277,10.5012295 38.6695714,10.1802787 C39.0634286,9.86060656 39.261,9.43267213 39.261,8.89519672 C39.2614286,7.78614754 38.5555714,7.23077049 37.146,7.23077049 L37.146,7.23077049 Z M39.6068571,17.0881803 L36.3492857,12.2807377 L36.2622857,12.2807377 L36.2622857,17.0881803 L34.0097143,17.0881803 L34.0097143,5.45808197 C34.311,5.45808197 34.8852857,5.44870492 35.7351429,5.43080328 C36.5824286,5.41290164 37.128,5.40437705 37.3714286,5.40437705 C38.7222857,5.40437705 39.768,5.66181967 40.5072857,6.17883607 C41.247,6.69372131 41.616,7.52572131 41.616,8.67142623 C41.616,9.51791803 41.3442857,10.2344098 40.803,10.819623 C40.2591429,11.4031311 39.5374286,11.7641475 38.6361429,11.9022459 L39.5892857,13.1775246 L42.3964286,17.0881803 L39.6068571,17.0881803 Z" id="Fill-16" fill="#FEFEFE" mask="url(#mask-4)"></path>
                <path d="M48.4598143,9.88443279 C48.3565286,9.59758033 48.2553857,9.2881377 48.1563857,8.95525246 C48.0586714,8.62236721 47.9811,8.31292459 47.9232429,8.02521967 C47.8409571,8.34574426 47.7505286,8.67138361 47.6502429,8.99702295 C47.5508143,9.32394098 47.4483857,9.64872787 47.3433857,9.96925246 L46.2843857,12.9302689 L49.5509571,12.9349574 L48.4598143,9.88443279 Z M50.9553857,17.0881377 L50.1415286,14.7106295 L45.7229571,14.7106295 L44.9086714,17.0881377 L42.6385286,17.0881377 L46.7271,5.45803934 L49.2745286,5.45803934 L53.4496714,17.0881377 L50.9553857,17.0881377 Z" id="Fill-17" fill="#FEFEFE" mask="url(#mask-4)"></path>
                <path d="M59.5322143,17.2611443 C57.6370714,17.2611443 56.2617857,16.7347508 55.4063571,15.6819639 C54.5539286,14.6274721 54.1249286,13.2852754 54.1249286,11.6523902 C54.1249286,9.74245574 54.6250714,8.2165541 55.6227857,7.07852131 C56.6235,5.9400623 58.0759286,5.3710459 59.9822143,5.3710459 C60.8706429,5.3710459 61.6973571,5.47461967 62.4589286,5.68134098 L62.2167857,7.71402951 C61.4312143,7.48514426 60.6460714,7.36920984 59.8609286,7.36920984 C58.8083571,7.36920984 58.0035,7.72724262 57.4429286,8.43947213 C56.8827857,9.15383279 56.6025,10.0983574 56.6025,11.2717672 C56.6025,12.5738984 56.8806429,13.5580623 57.4347857,14.2268164 C57.9885,14.8942918 58.8499286,15.227177 60.0169286,15.227177 C60.3623571,15.227177 60.7523571,15.1798656 61.1852143,15.0835377 C61.6193571,14.9884885 61.9853571,14.8691443 62.2849286,14.7267836 L62.5459286,16.7441279 C62.0835,16.9048164 61.6039286,17.0305541 61.1072143,17.1230459 C60.6100714,17.2163902 60.0850714,17.2611443 59.5322143,17.2611443" id="Fill-18" fill="#FEFEFE" mask="url(#mask-4)"></path>
                <polygon id="Fill-19" fill="#FEFEFE" mask="url(#mask-4)" points="68.2404857 7.3693377 68.2404857 17.088223 65.9874857 17.088223 65.9874857 7.3693377 62.9557714 7.3693377 62.9557714 5.45812459 71.2722 5.45812459 71.2722 7.3693377"></polygon>
                <polygon id="Fill-20" fill="#FEFEFE" mask="url(#mask-4)" points="72.7457143 17.0880951 74.9974286 17.0880951 74.9974286 5.45799672 72.7457143 5.45799672"></polygon>
                <path d="M82.2740143,17.2611443 C80.3788714,17.2611443 79.0057286,16.7347508 78.1511571,15.6819639 C77.2961571,14.6274721 76.8680143,13.2852754 76.8680143,11.6523902 C76.8680143,9.74245574 77.3673,8.2165541 78.3667286,7.07852131 C79.3665857,5.9400623 80.8185857,5.3710459 82.7240143,5.3710459 C83.6137286,5.3710459 84.4400143,5.47461967 85.2020143,5.68134098 L84.9594429,7.71402951 C84.1743,7.48514426 83.3878714,7.36920984 82.6031571,7.36920984 C81.5523,7.36920984 80.7470143,7.72724262 80.1864429,8.43947213 C79.6267286,9.15383279 79.3460143,10.0983574 79.3460143,11.2717672 C79.3460143,12.5738984 79.6233,13.5580623 80.1770143,14.2268164 C80.7324429,14.8942918 81.5925857,15.227177 82.7591571,15.227177 C83.1054429,15.227177 83.4963,15.1798656 83.9287286,15.0835377 C84.3628714,14.9884885 84.7284429,14.8691443 85.0284429,14.7267836 L85.2890143,16.7441279 C84.8274429,16.9048164 84.3487286,17.0305541 83.8507286,17.1230459 C83.3531571,17.2163902 82.8285857,17.2611443 82.2740143,17.2611443" id="Fill-21" fill="#FEFEFE" mask="url(#mask-4)"></path>
                <polygon id="Fill-22" fill="#FEFEFE" mask="url(#mask-4)" points="87.2286 17.0880098 87.2286 5.45791148 93.5873143 5.45791148 93.5873143 7.33502623 89.4816 7.33502623 89.4816 10.1954525 93.3794571 10.1954525 93.3794571 12.0218459 89.4816 12.0218459 89.4816 15.1767967 93.5873143 15.1767967 93.5873143 17.0880098"></polygon>
            </g>
        </g>
    </g>
</svg>