<?xml version="1.0" encoding="UTF-8"?>
<svg width="160px" height="35px" viewBox="0 0 160 35" version="1.1" xmlns="http://www.w3.org/2000/svg" xmlns:xlink="http://www.w3.org/1999/xlink">
    <!-- Generator: Sketch 53.2 (72643) - https://sketchapp.com -->
    <title>senta</title>
    <desc>Created with Sketch.</desc>
    <g id="Page-1" stroke="none" stroke-width="1" fill="none" fill-rule="evenodd">
        <g id="senta" transform="translate(-31.000000, -23.000000)" fill="#FFFFFF">
            <g transform="translate(31.000000, 23.000000)">
                <polygon id="Fill-1" points="4.75993985 5.70874138 4.66009023 5.72845402 4.55061654 5.74856897 4.46039098 5.78879885 4.36094236 5.82902874 4.27111779 5.87891379 4.18089223 5.93885632 4.10109273 6.01891379 4.02169424 6.09937356 3.69247118 6.51012069 3.37287218 6.93092529 3.06329825 7.37144253 2.76415038 7.81195977 2.48465163 8.26293678 2.21517794 8.72316667 1.96575439 9.19385632 1.72675689 9.67500575 1.49698246 10.1557529 1.28725815 10.6461552 1.09758396 11.1470172 0.917934837 11.6478793 0.75833584 12.1587989 0.608761905 12.6793736 0.478837093 13.1902931 0.359338346 13.7209253 0.279137845 14.1115575 0.209764411 14.5122471 0.159639098 14.9129368 0.109914787 15.3031667 0.0702155388 15.7038563 0.0401403509 16.104546 0.0196892231 16.5048333 4.01002506e-05 16.8954655 4.01002506e-05 17.2965575 0.0100651629 17.6968448 0.0196892231 18.0878793 0.049764411 18.4881667 0.079839599 18.8787989 0.11993985 19.2794885 0.16966416 19.6697184 0.229413534 20.0607529 0.299588972 20.4509828 0.379388471 20.8416149 0.46881203 21.2221897 0.558636591 21.6128218 0.668912281 21.9933966 0.778385965 22.3739713 0.907909774 22.754546 1.03743358 23.1250632 1.17778446 23.4959828 1.32695739 23.8665 1.47693233 24.2370172 1.64655639 24.597477 1.82620551 24.9579368 2.00585464 25.3183966 2.19552882 25.6687989 2.39482707 26.0196034 2.60455138 26.3599483 2.81387469 26.7006954 3.04364912 27.0309828 3.26299749 27.3516149 3.50239599 27.6722471 3.74219549 27.992477 3.99161905 28.2929943 4.25106767 28.5935115 4.51051629 28.8940287 4.77958897 29.1840862 5.04946366 29.4648908 5.3285614 29.7352356 5.61808521 30.0055805 5.90760902 30.2662701 6.20675689 30.5265575 6.50630576 30.7667299 6.8154787 31.0169598 7.13507769 31.247477 7.45427569 31.4779943 7.77347368 31.698454 8.10309774 31.908454 8.44234586 32.1092011 8.78159398 32.3091437 9.13046617 32.499431 9.47011529 32.6796609 9.82901253 32.8502356 10.1887118 33.020408 10.547609 33.1809253 10.9169323 33.3209253 11.2862556 33.4709828 11.6551779 33.6009253 12.0345263 33.7212126 12.1143258 33.7513851 12.1945263 33.7610402 12.2839499 33.7715 12.3637494 33.7715 12.4439499 33.7715 12.5333734 33.7610402 12.6135739 33.7413276 12.6933734 33.7212126 12.7731729 33.6914425 12.8529724 33.6612701 12.9227469 33.6210402 12.9925213 33.5711552 13.0622957 33.5212701 13.1224461 33.4609253 13.1821955 33.4009828 13.2323208 33.3305805 13.2820451 33.2605805 13.3221454 33.1809253 13.3618446 33.1004655 13.3915188 33.020408 13.4115689 32.9097759 13.431619 32.7999483 13.4416441 32.6997759 13.431619 32.5899483 13.421594 32.4893736 13.3915188 32.3892011 13.3618446 32.289431 13.3221454 32.1888563 13.261995 32.1092011 13.2022456 32.0186839 13.1320702 31.9390287 13.0622957 31.8686264 12.9724712 31.8086839 12.8826466 31.7483391 12.7928221 31.698454 12.6833484 31.6582241 12.0048521 31.4281092 11.336381 31.1573621 10.6875589 30.8673046 10.058787 30.5462701 9.44966416 30.1958678 8.86139348 29.8253506 8.29237093 29.4351207 7.75342356 29.0038563 7.22450125 28.5637414 6.72565414 28.1027069 6.24685714 27.6123046 5.78770927 27.1013851 5.35863659 26.580408 4.94961404 26.0296609 4.57026566 25.4688563 4.22099248 24.8879368 3.89176942 24.2969598 3.58219549 23.6862701 3.31312281 23.0647184 3.06329825 22.4343161 2.84394987 21.7829943 2.65427569 21.1224195 2.49467669 20.4614425 2.36515288 19.7803506 2.26530326 19.0992586 2.19552882 18.4081092 2.15542857 17.7069023 2.15542857 17.0060977 2.18510276 16.2948333 2.24525313 15.5839713 2.34510276 14.8727069 2.47462657 14.1513851 2.57447619 13.7012126 2.68435088 13.2401782 2.81387469 12.7892011 2.96384962 12.3486839 3.11342356 11.9081667 3.28304762 11.4672471 3.4727218 11.0367874 3.66239599 10.6163851 3.8717193 10.1955805 4.09146867 9.78483333 4.33086717 9.38454598 4.58069173 8.99391379 4.83011529 8.60328161 5.09918797 8.2227069 5.38871178 7.85178736 5.67823559 7.49172989 5.74801003 7.40161494 5.79733333 7.3110977 5.84785965 7.21092529 5.8875589 7.11075287 5.90760902 7.01058046 5.92725815 6.90075287 5.92725815 6.80058046 5.92725815 6.70000575 5.91723308 6.59017816 5.8875589 6.48960345 5.85748371 6.38983333 5.81778446 6.29971839 5.75763409 6.20960345 5.69788471 6.11948851 5.62811028 6.03943103 5.54831078 5.95897126 5.45848622 5.89902874 5.36866165 5.83868391 5.26881203 5.78879885 5.16936341 5.75862644 5.06911278 5.72845402 4.96966416 5.71839655 4.85978947 5.70874138"></polygon>
                <polygon id="Fill-2" points="16.5650526 30.8170977 16.9043008 30.8267529 17.2435489 30.8372126 17.6028471 30.8267529 17.9621454 30.8170977 18.3214436 30.7869253 18.6807419 30.7571552 19.029614 30.7169253 19.3889123 30.6666379 19.7385865 30.6066954 20.0878596 30.5366954 20.4367318 30.4566379 20.786005 30.3661207 21.1256541 30.2659483 21.4649023 30.1557184 21.8037494 30.0458908 22.1433985 29.915546 22.4726216 29.7856034 22.8018446 29.6452011 23.1214436 29.4951437 23.4502657 29.3346264 23.7598396 29.164454 24.0790376 28.9942816 24.3785865 28.8039943 24.6877594 28.6133046 24.9873083 28.4129598 25.2768321 28.2029598 25.5659549 27.9825 25.8554787 27.7620402 26.1249524 27.5222701 26.4044511 27.2816954 26.6638997 27.0310632 26.9233484 26.7808333 27.182797 26.5104885 27.4322206 26.2397414 27.501995 26.1496264 27.5517193 26.0599138 27.6018446 25.9693966 27.6419449 25.8692241 27.671619 25.7690517 27.6916692 25.6592241 27.7012932 25.5590517 27.7012932 25.4588793 27.6816441 25.3486494 27.661594 25.248477 27.6319198 25.1483046 27.5918195 25.0581897 27.5420952 24.9580172 27.4819449 24.8679023 27.4121704 24.7878448 27.3323709 24.7073851 27.2525714 24.6377874 27.1627469 24.5774425 27.0628972 24.5376149 26.9630476 24.4973851 26.863198 24.4672126 26.7637494 24.4470977 26.6638997 24.4374425 26.5540251 24.4374425 26.4541754 24.4571552 26.3543258 24.4772701 26.2548772 24.5070402 26.1550276 24.5472701 26.064802 24.5975575 25.9753784 24.6575 25.8955789 24.7275 25.8153784 24.8075575 25.5559298 25.0883621 25.2868571 25.3587069 25.0173835 25.6189943 24.7378847 25.8796839 24.4483609 26.1198563 24.149213 26.3499713 23.8496642 26.570431 23.5404912 26.7808333 23.2208922 26.9811782 22.9016942 27.1710632 22.5724712 27.3516954 22.2432481 27.5222701 21.903599 27.6723276 21.5643509 27.8223851 21.2150777 27.9527299 20.8662055 28.0826724 20.5069073 28.1933046 20.1572331 28.2930747 19.7883108 28.3831897 19.4290125 28.4632471 19.0596892 28.523592 18.6903659 28.573477 18.3214436 28.6237644 17.9521203 28.6535345 17.582797 28.663592 17.2038496 28.6736494 16.8245013 28.663592 16.4551779 28.6438793 16.0762306 28.6133046 15.6968822 28.5634195 15.3279599 28.503477 14.9486115 28.4330747 14.6691128 28.3731322 14.3996391 28.3031322 14.1201404 28.2327299 13.8506667 28.1530747 13.581594 28.0625575 13.3221454 27.9728448 13.0526717 27.8726724 12.7928221 27.7620402 12.5433985 27.6522126 12.2939749 27.5319253 12.0445514 27.4116379 11.7951278 27.2816954 11.5557293 27.1412931 11.3163308 27.0012931 11.0765313 26.8512356 10.8471579 26.7007759 10.6173835 26.5402586 10.3980351 26.3801437 10.1786867 26.2099713 9.95893734 26.0297414 9.74921303 25.8491092 9.53988972 25.6592241 9.34019048 25.4689368 9.14089223 25.2782471 8.94119298 25.0682471 8.7515188 24.8679023 8.57186967 24.6474425 8.39222055 24.4374425 8.21257143 24.206523 8.04294737 23.9864655 7.88334837 23.7559483 7.72374937 23.5157759 7.56415038 23.2756034 7.4246015 23.0249713 7.28465163 22.7847989 7.14510276 22.5341667 7.01517794 22.2839368 6.8952782 22.0236494 6.78580451 21.7734195 6.67592982 21.5127299 6.56605514 21.2524425 6.47623058 20.9917529 6.38640602 20.721408 6.30660652 20.4611207 6.22680702 20.1907759 6.15703258 19.920431 6.09728321 19.6496839 6.03753383 19.3696839 5.99743358 19.0989368 5.94730827 18.828592 5.91763409 18.5481897 5.8875589 18.2677874 5.86750877 17.9873851 5.84745865 17.7170402 5.83783459 17.4362356 5.83783459 17.1558333 5.84745865 16.8758333 5.85748371 16.5950287 5.87753383 16.3150287 5.90760902 16.0241667 5.93768421 15.7437644 5.97738346 15.4633621 6.02710777 15.1829598 6.07723308 14.9025575 6.09728321 14.7923276 6.09728321 14.6825 6.09728321 14.5823276 6.07723308 14.4720977 6.05718296 14.3719253 6.01748371 14.2717529 5.97738346 14.1816379 5.92765915 14.091523 5.86750877 14.001408 5.79773434 13.9310057 5.71793484 13.8610057 5.63813534 13.7910057 5.54831078 13.7411207 5.44846115 13.6908333 5.34861153 13.6510057 5.23873684 13.6208333 5.12926316 13.6107759 5.01938847 13.6007184 4.91953885 13.6107759 4.81006516 13.6208333 4.71021554 13.6510057 4.61036591 13.6807759 4.52054135 13.7306609 4.43071679 13.7809483 4.35091729 13.8408908 4.27111779 13.9112931 4.20094236 13.9913506 4.13116792 14.071408 4.08144361 14.161523 4.0317193 14.2616954 3.99161905 14.3618678 3.97156892 14.4620402 3.90179449 14.8023851 3.84164411 15.1330747 3.80194486 15.4734195 3.76224561 15.8041092 3.73217043 16.1343966 3.70209524 16.4751437 3.69207018 16.805431 3.68244612 17.1461782 3.68244612 17.4764655 3.69207018 17.8071552 3.7121203 18.1374425 3.74219549 18.4681322 3.77227068 18.7988218 3.81196992 19.1291092 3.86169424 19.4597989 3.92184461 19.7800287 3.99161905 20.1006609 4.06139348 20.4313506 4.14119298 20.7515805 4.23101754 21.0718103 4.33086717 21.3827874 4.44074185 21.7030172 4.55061654 22.013592 4.67011529 22.3241667 4.8000401 22.6343391 4.93958897 22.9348563 5.07913784 23.2353736 5.23873684 23.5354885 5.39873684 23.8360057 5.55833584 24.1268678 5.73798496 24.4173276 5.91763409 24.7073851 6.10690727 24.9881897 6.30660652 25.2585345 6.50630576 25.528477 6.71562907 25.7992241 6.93537845 26.0599138 7.14510276 26.3101437 7.37447619 26.5603736 7.60384962 26.8009483 7.84324812 27.0310632 8.08304762 27.2615805 8.33247118 27.4820402 8.58189474 27.6920402 8.8313183 27.9024425 9.10079198 28.1128448 9.3602406 28.3031322 9.62971429 28.4934195 9.90921303 28.6736494 10.1887118 28.8538793 10.4778346 29.0240517 10.7573333 29.1841667 11.0568822 29.3346264 11.346005 29.4846839 11.6551779 29.6250862 11.9547268 29.7550287 12.2638997 29.8857759 12.5734737 30.0056609 12.8926717 30.1158908 13.2122707 30.2160632 13.5314687 30.3162356 13.8606917 30.4063506 14.1798897 30.486408 14.5191378 30.5568103 14.858787 30.626408 15.1980351 30.6766954 15.5372832 30.7265805 15.8765313 30.7668103 16.2157794 30.7969828"></polygon>
                <polygon id="Fill-3" points="14.3996792 26.1698621 14.4297544 26.2796897 14.4594286 26.3702069 14.5091529 26.4703793 14.5592782 26.5604943 14.6190276 26.6405517 14.689203 26.7206092 14.7690025 26.7910115 14.848802 26.850954 14.9386266 26.9108966 15.0384762 26.9611839 15.1379248 26.990954 15.2377744 27.0211264 15.4972231 27.0710115 15.7466466 27.1112414 16.0060952 27.151069 16.2655439 27.1816437 16.5149674 27.2013563 16.774416 27.2214713 17.0238396 27.2315287 17.2736642 27.2315287 17.6425865 27.2214713 18.0018847 27.2013563 18.361183 27.1711839 18.7104561 27.1313563 19.0697544 27.0710115 19.4190276 27.0010115 19.7683008 26.9108966 20.1175739 26.8111264 20.4568221 26.7004943 20.7960702 26.5806092 21.1353183 26.4502644 21.4649424 26.2998046 21.7937644 26.140092 22.1133634 25.9598621 22.4325614 25.7792299 22.7421353 25.5788851 22.9514586 25.4388851 23.1511579 25.2984828 23.3508571 25.1484253 23.5401303 24.9979655 23.7302055 24.8378506 23.9194787 24.6777356 24.0991278 24.5071609 24.2787769 24.3369885 24.448401 24.1668161 24.6180251 23.9865862 24.7776241 23.8063563 24.9372231 23.6156667 25.087198 23.4257816 25.2367719 23.2354943 25.3767218 23.0448046 25.5162707 22.8444598 25.6558195 22.6344598 25.7757193 22.4341149 25.9052431 22.2237126 26.0251429 22.0137126 26.1350175 21.7932529 26.2448922 21.5727931 26.3443409 21.3523333 26.4441905 21.1322759 26.534015 20.9017586 26.6238396 20.6716437 26.7036391 20.4411264 26.7834386 20.2005517 26.853213 19.9704368 26.9133634 19.7298621 26.9731128 19.4796322 27.0328622 19.2390575 27.0428872 19.1292299 27.0529123 19.019 27.0428872 18.9188276 27.0328622 18.8085977 27.003188 18.7084253 26.9731128 18.6082529 26.9229875 18.5181379 26.8732632 18.428023 26.8135138 18.337908 26.7437393 18.2675057 26.6635388 18.197908 26.5837393 18.127908 26.4943158 18.0776207 26.3944662 18.0277356 26.2946165 17.9875057 26.1947669 17.9573333 26.0848922 17.9476782 25.9754185 17.9372184 25.8655439 17.9476782 25.7656942 17.9573333 25.6558195 17.9875057 25.565995 18.0172759 25.4661454 18.0675632 25.3767218 18.1174483 25.2965213 18.1777931 25.2167218 18.2477931 25.1469474 18.3278506 25.087198 18.407908 25.0270476 18.4984253 24.9773233 18.5985977 24.9472481 18.6987701 24.9175739 18.7989425 24.8277494 19.1891724 24.7178747 19.5596897 24.5983759 19.9205517 24.4584261 20.2806092 24.2988271 20.6314138 24.129203 20.9717586 23.9395288 21.3024483 23.7302055 21.6226782 23.5104561 21.9336552 23.2710576 22.2337701 23.0212331 22.5242299 22.7621855 22.7945747 22.4826867 23.0649195 22.1831378 23.3155517 21.8739649 23.546069 21.5543659 23.7761839 21.2251429 23.9765287 20.8858947 24.1668161 20.5366216 24.3369885 20.1873484 24.4975057 19.8280501 24.6274483 19.4691529 24.7477356 19.0998296 24.847908 18.7305063 24.9279655 18.3511579 24.987908 17.9722105 25.0381954 17.5928622 25.057908 17.2139148 25.0683678 16.8345664 25.057908 16.445594 25.0281379 16.0662456 24.9681954 15.6768722 24.8977931 15.5673985 24.8877356 15.4575238 24.8776782 15.3576742 24.8877356 15.2477995 24.8977931 15.1479499 24.9279655 15.0481003 24.9577356 14.9586767 25.008023 14.8684511 25.057908 14.7786266 25.1182529 14.7088521 25.1886552 14.6390777 25.2687126 14.5693033 25.3487701 14.5191779 25.4388851 14.4694536 25.5390575 14.4297544 25.6392299 14.3996792 25.7394023 14.3896541 25.8492299 14.3796291 25.9598621 14.3896541 26.0696897"></polygon>
                <polygon id="Fill-4" points="16.9544662 0 16.5350175 0.0100574713 16.1159699 0.0402298851 15.6969223 0.0704022989 15.2778747 0.110229885 14.8684511 0.170172414 14.4494035 0.230114943 14.040381 0.310172414 13.6213333 0.390632184 13.2123108 0.480747126 12.8129123 0.590977011 12.4038897 0.700804598 12.0048922 0.831149425 11.6054937 0.961091954 11.2064962 1.11155172 10.8175238 1.2616092 10.4277494 1.43218391 10.0387769 1.60235632 9.65942857 1.78298851 9.2804812 1.98293103 8.90113283 2.18327586 8.53221053 2.40333333 8.16288722 2.6237931 7.80358897 2.85471264 7.71376441 2.92431034 7.63396491 2.99431034 7.55416541 3.07477011 7.49401504 3.15482759 7.44429073 3.24494253 7.39456642 3.34511494 7.36449123 3.44528736 7.33441604 3.54545977 7.32439098 3.64522989 7.31436591 3.7458046 7.31436591 3.85563218 7.33441604 3.9558046 7.35446617 4.05637931 7.39456642 4.15614943 7.43426566 4.25632184 7.49401504 4.35649425 7.55416541 4.4466092 7.63396491 4.52706897 7.70373935 4.59666667 7.79356391 4.65701149 7.88338847 4.71695402 7.97361404 4.75718391 8.07306266 4.79741379 8.17251128 4.81752874 8.2727619 4.83724138 8.38223559 4.84729885 8.48208521 4.83724138 8.5915589 4.82758621 8.69180952 4.79741379 8.79165915 4.76724138 8.89110777 4.71695402 8.98093233 4.66706897 9.30053133 4.45666667 9.61972932 4.26678161 9.94895238 4.07609195 10.2781754 3.89586207 10.6077995 3.72568966 10.9470476 3.56557471 11.2862957 3.41551724 11.6255439 3.27511494 11.964792 3.13471264 12.3140652 3.00477011 12.6633383 2.89454023 13.0126115 2.78431034 13.3719098 2.68413793 13.721183 2.59402299 14.0800802 2.50350575 14.4397794 2.43350575 14.7986767 2.36350575 15.168 2.31362069 15.5272982 2.26373563 15.8962206 2.22350575 16.2655439 2.2033908 16.6352682 2.18327586 17.0041905 2.16356322 17.3735138 2.16356322 17.7428371 2.17362069 18.1113584 2.19333333 18.4810827 2.21344828 18.850406 2.25367816 19.2193283 2.29350575 19.5886516 2.3433908 19.968 2.4133908 20.3373233 2.4837931 20.7062456 2.56385057 21.0655439 2.65396552 21.4348672 2.75413793 21.7841404 2.85471264 22.1430376 2.9741954 22.4927118 3.09448276 22.841985 3.22482759 23.1812331 3.36522989 23.5204812 3.51528736 23.8597293 3.6758046 24.1889524 3.83591954 24.5085514 4.00609195 24.8273484 4.18672414 25.1469474 4.3766092 25.4561203 4.57695402 25.7656942 4.77729885 26.0652431 4.98729885 26.364391 5.20816092 26.6535138 5.42821839 26.9430376 5.65833333 27.2225363 5.89890805 27.49201 6.14954023 27.7614837 6.39977011 28.0209323 6.67011494 28.280381 6.9308046 28.5302055 7.2108046 28.7796291 7.4916092 29.0090025 7.7716092 29.248401 8.07212644 29.4677494 8.37264368 29.6874987 8.68321839 29.8972231 8.9937931 30.0965213 9.31402299 30.2958195 9.63465517 30.4854937 9.96534483 30.6655439 10.2956322 30.8347669 10.6259195 30.9947669 10.9570115 31.1443409 11.2973563 31.2842907 11.6477586 31.4238396 11.9881034 31.5437393 12.338908 31.6632381 12.6893103 31.7731128 13.0397126 31.8725614 13.3905172 31.962386 13.750977 32.0526115 14.1114368 32.122386 14.4718966 32.1821353 14.8323563 32.2418847 15.1932184 32.291609 15.5637356 32.3216842 15.9342529 32.3517594 16.2951149 32.3718095 16.6652299 32.3814336 17.0361494 32.3918596 17.4066667 32.3814336 17.7767816 32.3617845 18.1477011 32.3417343 18.5282759 32.3020351 18.8983908 32.2619348 19.2693103 32.2017845 19.6402299 32.1424361 20.0103448 32.0722607 20.3808621 31.9924612 20.7517816 31.9026366 21.1222989 31.803188 21.4831609 31.6929123 21.8432184 31.5834386 22.2040805 31.4635388 22.5544828 31.32399 22.9048851 31.1840401 23.2452299 31.0444912 23.585977 30.8848922 23.9162644 30.7252932 24.2465517 30.5452431 24.5776437 30.365995 24.8978736 30.1863459 25.2185057 29.9866466 25.5286782 29.7869474 25.8392529 29.5776241 26.1397701 29.3582757 26.4302299 29.1385263 26.7307471 28.8987268 27.0111494 28.6597293 27.2915517 28.4199298 27.571954 28.1604812 27.8422989 27.9014336 28.1025862 27.641985 28.3632759 27.3624862 28.6135057 27.0829875 28.8540805 26.7934637 29.0942529 26.5043409 29.3247701 26.204792 29.5548851 25.895619 29.7652874 25.5860451 29.9857471 25.3466466 30.1358046 25.0972231 30.2858621 24.8574236 30.4367241 24.608 30.5767241 24.3585764 30.7167241 24.0991278 30.8466667 23.8497043 30.966954 23.5902556 31.0972989 23.330807 31.2075287 23.0713584 31.3173563 22.8119098 31.4279885 22.5524612 31.5277586 22.2829875 31.6283333 22.0135138 31.7184483 21.7444411 31.8085632 21.4749674 31.8886207 21.2054937 31.9586207 20.9360201 32.0286207 20.6561203 32.0994253 20.3870476 32.1593678 20.1075489 32.2088506 19.8280501 32.2587356 19.5485514 32.309023 19.2694536 32.3492529 18.9899549 32.379023 18.7104561 32.4095977 18.4309574 32.4393678 18.1418346 32.4494253 17.8623358 32.4695402 17.572812 32.4791954 17.2937143 32.4791954 17.0041905 32.4791954 16.9941654 32.4791954 16.9845414 32.4791954 16.8742657 32.4791954 16.774416 32.4993103 16.6649424 32.5194253 16.5751178 32.5592529 16.4752682 32.5994828 16.3854436 32.6598276 16.3056441 32.7197701 16.2258446 32.7801149 16.1560702 32.8597701 16.0963208 32.9402299 16.0461955 33.0299425 15.9964712 33.1204598 15.9563709 33.2206322 15.9363208 33.3208046 15.9166717 33.4310345 15.9062456 33.5312069 15.9062456 33.6514943 15.9262957 33.7512644 15.9463459 33.8614943 15.9860451 33.9616667 16.0261454 34.0517816 16.0758697 34.1418966 16.1360201 34.2320115 16.2057945 34.312069 16.285594 34.3824713 16.3653935 34.4424138 16.455218 34.5027586 16.5450426 34.5429885 16.6448922 34.5828161 16.7443409 34.6125862 16.8546165 34.6327011 16.9640902 34.6427586 17.0438897 34.6427586 17.1140652 34.6427586 17.1938647 34.6427586 17.2636391 34.6427586 17.3033383 34.6427586 17.6229373 34.6427586 17.9321103 34.6327011 18.2517093 34.6125862 18.5608822 34.5924713 18.8700551 34.5723563 19.1896541 34.5429885 19.4988271 34.5027586 19.808 34.4625287 20.1175739 34.4122414 20.4171228 34.3623563 20.7262957 34.3024138 21.0354687 34.2320115 21.3350175 34.1620115 21.6341654 34.081954 21.9437393 34.0018966 22.2432882 33.9214368 22.532411 33.8212644 22.8319599 33.7315517 23.1210827 33.6209195 23.4206316 33.511092 23.7101554 33.4008621 23.9992782 33.2805747 24.288802 33.1502299 24.5683008 33.0202874 24.8477995 32.8903448 25.1373233 32.7499425 25.4160201 32.5994828 25.6858947 32.4494253 25.9653935 32.2893103 26.2348672 32.1287931 26.5043409 31.9586207 26.7734135 31.788046 27.1226867 31.5482759 27.4719599 31.2976437 27.8212331 31.0373563 28.1508571 30.777069 28.4800802 30.5063218 28.7992782 30.2259195 29.1188772 29.9354598 29.4180251 29.645 29.7175739 29.3444828 30.0066967 29.0343103 30.2861955 28.7136782 30.5656942 28.393046 30.8251429 28.0728161 31.0845915 27.7324713 31.334015 27.4017816 31.5734135 27.050977 31.803188 26.7005747 32.0225363 26.3397126 32.2418847 25.9796552 32.441584 25.6087356 32.6408822 25.2382184 32.8305564 24.858046 33.0102055 24.4774713 33.1702055 24.0868391 33.3298045 23.6958046 33.4793784 23.2955172 33.6289524 22.8952299 33.7588772 22.4941379 33.8787769 22.0837931 33.9882506 21.6629885 34.0885013 21.2425862 34.1879499 20.8217816 34.2677494 20.4005747 34.3375238 19.9701149 34.3976742 19.5497126 34.4473985 19.1192529 34.4870977 18.6988506 34.5171729 18.2679885 34.5372231 17.8475862 34.5468471 17.4167241 34.5468471 16.9959195 34.527198 16.5751149 34.5071479 16.1547126 34.4774737 15.733908 34.4277494 15.3135057 34.3772231 14.8927011 34.3174737 14.481954 34.2376742 14.0611494 34.1578747 13.6508046 34.0584261 13.2400575 33.9585764 12.8297126 33.8487018 12.4286207 33.7187769 12.0283333 33.5892531 11.628046 33.4392782 11.226954 33.2901053 10.8363218 33.1200802 10.4360345 32.9504561 10.0554598 32.760782 9.66482759 32.5715088 9.28425287 32.3718095 8.91373563 32.1524612 8.53275862 31.9327118 8.17270115 31.7029373 7.80178161 31.4539148 7.44132184 31.2044912 7.09091954 30.9546667 6.75057471 30.685193 6.40982759 30.4157193 6.07913793 30.1362206 5.75850575 29.8470977 5.44833333 29.5575739 5.13775862 29.2584261 4.84729885 28.9488521 4.55683908 28.6392782 4.27683908 28.3204812 3.99603448 27.9908571 3.73534483 27.6616341 3.47545977 27.322386 3.22482759 26.9831378 2.98465517 26.6238396 2.75413793 26.2749674 2.53367816 25.9152682 2.31362069 25.5459449 2.11327586 25.1770226 1.91293103 24.7976742 1.72224138 24.4187268 1.54241379 24.0293534 1.37224138 23.6299549 1.21172414 23.2409825 1.06166667 22.841985 0.921264368 22.4325614 0.79091954 22.0235388 0.671034483 21.6145163 0.560804598 21.1954687 0.450574713 20.766396 0.36045977 20.3473484 0.280402299 19.9278997 0.210402299 19.4988271 0.15045977 19.0797794 0.100172414 18.6507068 0.0599425287 18.2312581 0.0301724138 17.8025865 0.0100574713 17.3831378 0"></polygon>
                <polygon id="Fill-5" points="28.6994687 17.6469195 28.6794185 17.9675517 28.6593684 18.2877816 28.6296942 18.5983563 28.589594 18.9185862 28.5398697 19.2295632 28.4801203 19.5493908 28.4099449 19.8603678 28.3401704 20.1705402 28.2503459 20.4911724 28.1605213 20.8017471 28.1308471 20.9019195 28.110797 21.0117471 28.110797 21.1223793 28.110797 21.2225517 28.1308471 21.3323793 28.1504962 21.4325517 28.1905965 21.5327241 28.2302957 21.6228391 28.2804211 21.712954 28.3401704 21.803069 28.4099449 21.8831264 28.4901454 21.9535287 28.5695439 22.0134713 28.6593684 22.0738161 28.759218 22.1237011 28.8590677 22.163931 28.9388672 22.1836437 29.0286917 22.1937011 29.1084912 22.2037586 29.1882907 22.2138161 29.2781153 22.2037586 29.3583158 22.1937011 29.4377143 22.1836437 29.5179148 22.1538736 29.5977143 22.1237011 29.6771128 22.093931 29.7472882 22.0537011 29.8170627 22.0034138 29.8868371 21.9535287 29.9465865 21.8935862 30.0067368 21.8332414 30.0564612 21.7628391 30.1065865 21.6932414 30.1462857 21.6228391 30.186386 21.5427816 30.2160602 21.4526667 30.3259348 21.0821494 30.4257845 20.7116322 30.515609 20.3407126 30.5954085 19.9701954 30.665183 19.5896207 30.7253333 19.2191034 30.7750576 18.8385287 30.8147569 18.4680115 30.834807 18.0878391 30.8548571 17.7068621 30.8548571 17.3367471 30.8548571 16.9557701 30.8448321 16.5852529 30.8147569 16.2046782 30.7750576 15.8341609 30.7353584 15.4636437 30.675208 15.0927241 30.6154586 14.7222069 30.5356591 14.352092 30.4458346 13.9912299 30.345985 13.6307701 30.2461353 13.2703103 30.1266366 12.9098506 29.9967118 12.5489885 29.8571629 12.1985862 29.717213 11.8477816 29.557614 11.5074368 29.38799 11.167092 29.2083409 10.8263448 29.0286917 10.4960575 28.8289925 10.1653678 28.6196692 9.83508046 28.2206717 9.26421839 27.8012231 8.71306897 27.3525013 8.19249425 26.8933534 7.70168966 26.4041303 7.231 25.8952581 6.79048276 25.3663358 6.37973563 24.8277895 5.99916092 24.268792 5.64875862 23.7001704 5.31806897 23.1110977 5.0276092 22.512401 4.75726437 21.9036792 4.52674713 21.2849323 4.31634483 20.6561604 4.13651724 20.0277895 3.98605747 19.3789674 3.87582759 18.7405714 3.78571264 18.0917494 3.73542529 17.4333033 3.70565517 16.7844812 3.71571264 16.1260351 3.75554023 15.467188 3.82594253 14.8187669 3.92611494 14.1703459 4.06611494 13.5315489 4.23668966 12.8927519 4.43663218 12.2539549 4.66714943 11.635609 4.93749425 11.0168622 5.23801149 10.4181654 5.57835632 9.82909273 5.94887356 9.73926817 6.00921839 9.65986967 6.07921839 9.57966917 6.15927586 9.5199198 6.2493908 9.46979449 6.33990805 9.42007018 6.42962069 9.39039599 6.5297931 9.3603208 6.62996552 9.35029574 6.73013793 9.34027068 6.84036782 9.34027068 6.94054023 9.3603208 7.05077011 9.38037093 7.15094253 9.42007018 7.25111494 9.45976942 7.35128736 9.5199198 7.4414023 9.57966917 7.53151724 9.65986967 7.61157471 9.72924311 7.68157471 9.81906767 7.75157471 9.90929323 7.80186207 9.99871679 7.85174713 10.0985664 7.88191954 10.198416 7.91209195 10.2982657 7.92214943 10.4081404 7.9322069 10.50799 7.9322069 10.6174637 7.91209195 10.7173133 7.89197701 10.8171629 7.85174713 10.9170125 7.81191954 11.0068371 7.75157471 11.5056842 7.4414023 12.0145564 7.161 12.5334536 6.91077011 13.0523509 6.68025287 13.5912982 6.47990805 14.1302456 6.3197931 14.669193 6.16933333 15.2077393 6.05910345 15.7567118 5.96898851 16.3056842 5.90904598 16.8642807 5.87887356 17.4132531 5.86881609 17.9622256 5.88893103 18.510797 5.93881609 19.0497444 6.00921839 19.5886917 6.1093908 20.1276391 6.22967816 20.6465363 6.37973563 21.1754586 6.55996552 21.6843308 6.76031034 22.1831779 6.98077011 22.6820251 7.231 23.1612231 7.50134483 23.629995 7.80186207 24.0891429 8.12249425 24.5282406 8.47289655 24.9573133 8.83335632 25.3663358 9.22398851 25.7557093 9.6447931 26.1346566 10.0853103 26.4843308 10.5459425 26.8231779 11.0266897 26.993203 11.2970345 27.1624261 11.5778391 27.312401 11.8578391 27.4619749 12.1386437 27.6019248 12.4287011 27.7414737 12.7191609 27.8613734 13.0200805 27.9808722 13.3101379 28.0807218 13.6106552 28.1805714 13.9111724 28.270396 14.2116897 28.3602206 14.5218621 28.429995 14.8223793 28.4901454 15.132954 28.5494937 15.4435287 28.599619 15.7541034 28.6296942 16.0743333 28.6593684 16.384908 28.6894436 16.7055402 28.6994687 17.0161149 28.6994687 17.3367471"></polygon>
                <polygon id="Fill-6" points="14.5392682 9.9451092 14.6491429 9.92499425 14.7586165 9.89482184 14.9783659 9.82482184 15.2077393 9.75482184 15.4475388 9.69487931 15.6769123 9.64459195 15.9062857 9.5947069 16.1360602 9.55447701 16.3754586 9.5247069 16.6048321 9.50459195 16.8446316 9.48447701 17.074005 9.47441954 17.3134035 9.47441954 17.5431779 9.47441954 17.7825764 9.48447701 18.0119499 9.50459195 18.2413233 9.53436207 18.4710977 9.56453448 18.7004712 9.60476437 18.9302456 9.65464943 19.159619 9.70453448 19.3889925 9.76487931 19.6087419 9.82482184 19.8381153 9.90487931 20.0578647 9.98533908 20.277213 10.0653966 20.4869373 10.165569 20.7062857 10.2657414 20.91601 10.375569 21.1253333 10.4857989 21.3250326 10.6060862 21.5343559 10.736431 21.7340551 10.8667759 21.9237293 11.0067759 22.1134035 11.1467759 22.2930526 11.2972356 22.4727018 11.4472931 22.6423258 11.6078103 22.7221253 11.6778103 22.8119499 11.7377529 22.9017744 11.7880402 22.991599 11.8278678 23.0914486 11.8580402 23.1912982 11.8882126 23.2807218 11.8978678 23.3805714 11.9079253 23.4904461 11.8978678 23.6003208 11.8781552 23.7001704 11.8580402 23.8096441 11.8178103 23.8994687 11.7679253 23.9993183 11.7079828 24.0891429 11.6476379 24.1689424 11.5675805 24.2387168 11.4774655 24.2984662 11.3873506 24.3586165 11.2972356 24.3983158 11.1970632 24.428391 11.0968908 24.4484411 10.9967184 24.4584662 10.896546 24.4684912 10.7863161 24.4584662 10.6861437 24.438416 10.5859713 24.4083409 10.4857989 24.3686416 10.3860287 24.3285414 10.2858563 24.268792 10.1957414 24.1990175 10.1152816 24.1292431 10.0352241 23.9094937 9.83487931 23.6801203 9.63493678 23.4407218 9.44424713 23.2109474 9.26401724 22.9615238 9.08378736 22.7020752 8.91361494 22.4426266 8.7535 22.1831779 8.60304023 21.9137043 8.45298276 21.6442306 8.31258046 21.3747569 8.1926954 21.0956591 8.07240805 20.8161604 7.96217816 20.5366617 7.85194828 20.2571629 7.76183333 19.9680401 7.68177586 19.6785163 7.60171839 19.3889925 7.53131609 19.0998697 7.47137356 18.8003208 7.42148851 18.510797 7.38125862 18.2116491 7.35108621 17.9121003 7.33097126 17.6129524 7.31125862 17.3134035 7.31125862 17.0138546 7.31125862 16.7147068 7.32131609 16.4155589 7.34102874 16.11601 7.38125862 15.8264862 7.41143103 15.5273383 7.46131609 15.2277895 7.52166092 14.9286416 7.59166092 14.6391178 7.67171839 14.349594 7.75177586 14.0504461 7.85194828 13.9505965 7.89177586 13.8607719 7.94206322 13.7709474 8.00200575 13.6811228 8.06235057 13.6113484 8.14240805 13.5415739 8.22246552 13.4814236 8.30252299 13.4316992 8.39304023 13.391599 8.49281034 13.3619248 8.59298276 13.3418747 8.69315517 13.3318496 8.79332759 13.3318496 8.90355747 13.3318496 9.01378736 13.3518997 9.11395977 13.3815739 9.22418966 13.4216742 9.32436207 13.4713985 9.42453448 13.5315489 9.51464943 13.6013233 9.5947069 13.6710977 9.6647069 13.7508972 9.7351092 13.8407218 9.79464943 13.9305464 9.84493678 14.030396 9.88516667 14.1202206 9.91493678 14.2300952 9.93505172 14.3299449 9.95516667 14.4394185 9.95516667"></polygon>
                <polygon id="Fill-7" points="59.2250226 21.5328046 59.2049724 21.3425172 59.1748972 21.1421724 59.1452231 20.9619425 59.1055238 20.7716552 59.0654236 20.5914253 59.0056742 20.4111954 58.9555489 20.2309655 58.8857744 20.0503333 58.8260251 19.8805632 58.7462256 19.7099885 58.6660251 19.5494713 58.5766015 19.3792989 58.4867769 19.2191839 58.3869273 19.059069 58.2870777 18.8985517 58.177203 18.7484943 58.0673283 18.5984368 57.9378045 18.447977 57.8179048 18.3075747 57.688381 18.1675747 57.5484311 18.0275747 57.3988571 17.8972299 57.2593083 17.7672874 57.0997093 17.6365402 56.9397093 17.5065977 56.7700852 17.3863103 56.6008622 17.2664253 56.4308371 17.1561954 56.2415639 17.035908 55.9917393 16.9059655 55.7423158 16.7756207 55.4928922 16.6452759 55.2334436 16.535046 54.973995 16.4252184 54.7145464 16.3149885 54.4550977 16.2248736 54.1956491 16.1247011 53.6767519 15.9541264 53.1478296 15.7940115 52.6289323 15.6338966 52.10001 15.4934943 51.8108872 15.4033793 51.5113383 15.3233218 51.2121905 15.2432644 50.9126416 15.1531494 50.6231178 15.0630345 50.3239699 14.9628621 50.0244211 14.8626897 49.7348972 14.7524598 49.3659749 14.6120575 49.0167018 14.4720575 48.7071278 14.322 48.418005 14.1614828 48.1485313 14.0114253 47.9087318 13.8408506 47.7992581 13.7611954 47.6994085 13.6710805 47.5995589 13.5906207 47.5097343 13.5005057 47.4199098 13.4103908 47.3401103 13.3202759 47.2703358 13.2301609 47.2005614 13.1299885 47.140411 13.0298161 47.0806617 12.9397011 47.0309373 12.8395287 46.980812 12.7292989 46.9411128 12.6291264 46.9110376 12.5188966 46.8809624 12.4086667 46.8609123 12.2988391 46.8412632 12.1886092 46.821213 12.0683218 46.821213 11.958092 46.811188 11.8378046 46.821213 11.6378621 46.8312381 11.4475747 46.8512882 11.2669425 46.8909875 11.0867126 46.9310877 10.9165402 46.980812 10.7564253 47.0309373 10.595908 47.1007118 10.4458506 47.1805113 10.2957931 47.2603108 10.1553908 47.3601604 10.0254483 47.46001 9.89510345 47.5698847 9.77481609 47.6893835 9.65493103 47.8193083 9.54470115 47.9588571 9.44452874 48.1084311 9.34435632 48.2680301 9.25424138 48.4280301 9.17378161 48.6072782 9.09372414 48.7869273 9.02372414 48.9766015 8.95372414 49.1763008 8.90343678 49.3856241 8.84349425 49.6053734 8.80326437 49.8347469 8.75337931 50.0645213 8.7232069 50.3139449 8.69303448 50.5633684 8.67332184 50.822817 8.6532069 51.0922907 8.64314943 51.3717895 8.64314943 51.770787 8.6532069 52.1497343 8.67332184 52.5391078 8.7232069 52.9184561 8.78355172 53.2974035 8.85355172 53.6867769 8.95372414 54.0757494 9.0736092 54.4751479 9.20395402 54.7642707 9.31418391 55.0437694 9.43447126 55.293193 9.54470115 55.5229674 9.65493103 55.8521905 9.81504598 56.1613634 9.94498851 56.3113383 9.99527586 56.4709373 10.0351034 56.6205113 10.0552184 56.7801103 10.0652759 56.9397093 10.0552184 57.1097343 10.0351034 57.2593083 9.99527586 57.4088822 9.94498851 57.5484311 9.88504598 57.6783559 9.81504598 57.7978546 9.72452874 57.9077293 9.62475862 58.0075789 9.51452874 58.0974035 9.39424138 58.1671779 9.27395402 58.2373534 9.13395402 58.2870777 8.99395402 58.3267769 8.83343678 58.3468271 8.68337931 58.3568521 8.5128046 58.3468271 8.3728046 58.3267769 8.2324023 58.2971028 8.10245977 58.2473784 7.97211494 58.1872281 7.84177011 58.1174536 7.72188506 58.0276291 7.6015977 57.9277794 7.48131034 57.8179048 7.37108046 57.688381 7.26085057 57.5484311 7.15062069 57.3988571 7.05085057 57.2392581 6.95067816 57.059609 6.85050575 56.8699348 6.7603908 56.6602105 6.67027586 56.4011629 6.56004598 56.1316892 6.45987356 55.8421654 6.35970115 55.5526416 6.26958621 55.2434687 6.18952874 54.9238697 6.10947126 54.5950476 6.02901149 54.2553985 5.96906897 53.9161504 5.90912644 53.5769023 5.85883908 53.2276291 5.80895402 52.8783559 5.76872414 52.5391078 5.73855172 52.1898346 5.71843678 51.8405614 5.70878161 51.5013133 5.69872414 51.0321404 5.70878161 50.5633684 5.72889655 50.1142456 5.75866667 49.6751479 5.80895402 49.2561003 5.86889655 48.8470777 5.93889655 48.4480802 6.01895402 48.0687318 6.11952874 47.6994085 6.22935632 47.3401103 6.34964368 47.0008622 6.47998851 46.6816642 6.63004598 46.3620652 6.78050575 46.0729424 6.95067816 45.7934436 7.13090805 45.5239699 7.3211954 45.2745464 7.5315977 45.0351479 7.742 44.8153985 7.97211494 44.6056742 8.21268966 44.416401 8.45286207 44.2463759 8.71314943 44.0871779 8.98389655 43.9472281 9.27395402 43.8177043 9.56441379 43.7078296 9.86493103 43.618005 10.1755057 43.5382055 10.5057931 43.4780551 10.8364828 43.4383559 11.1768276 43.4086817 11.5376897 43.3982556 11.8981494 43.4086817 12.1085517 43.4183058 12.318954 43.4283308 12.528954 43.458406 12.7292989 43.4880802 12.9296437 43.5281805 13.1299885 43.5682807 13.3303333 43.618005 13.5206207 43.6777544 13.7008506 43.7375038 13.8911379 43.8076792 14.0713678 43.8874787 14.2415402 43.9773033 14.4217701 44.0671278 14.5923448 44.1669774 14.7524598 44.2664261 14.9125747 44.3763008 15.0726897 44.4962005 15.2332069 44.6257243 15.3832644 44.7556491 15.5337241 44.895198 15.6837816 45.0351479 15.8241839 45.1847218 15.9641839 45.3443208 16.1045862 45.5139449 16.234931 45.6835689 16.3648736 45.863218 16.4851609 46.0428672 16.605046 46.2325414 16.7253333 46.4322406 16.8456207 46.6415639 16.9558506 46.8512882 17.056023 47.3401103 17.2861379 47.8293333 17.4965402 48.3081303 17.6868276 48.7869273 17.857 49.2561003 18.0175172 49.7152481 18.1675747 50.174396 18.2979195 50.6331429 18.4383218 50.972391 18.5384943 51.301614 18.6386667 51.6312381 18.7484943 51.9604612 18.8486667 52.2796591 18.9588966 52.5992581 19.0691264 52.9184561 19.199069 53.2276291 19.3294138 53.5472281 19.4698161 53.8363509 19.6198736 54.1058246 19.769931 54.3552481 19.9304483 54.5950476 20.0905632 54.7943459 20.2607356 54.9840201 20.4409655 55.1536441 20.6211954 55.2334436 20.7213678 55.303218 20.8118851 55.3633684 20.9116552 55.4331429 21.0118276 55.4828672 21.112 55.5325915 21.2121724 55.5827168 21.3228046 55.622817 21.4326322 55.6625163 21.5328046 55.6925915 21.6426322 55.7126416 21.7629195 55.7423158 21.8735517 55.7623659 22.1036667 55.772391 22.3538966 55.772391 22.5642989 55.7523409 22.7847586 55.7326917 22.9847011 55.7026165 23.185046 55.6524912 23.3757356 55.6027669 23.566023 55.5325915 23.7462529 55.463218 23.9264828 55.3830175 24.0966552 55.293193 24.2567701 55.1937444 24.4072299 55.0838697 24.5576897 54.9639699 24.6976897 54.8344461 24.838092 54.7045213 24.9680345 54.5549474 25.0883218 54.4049724 25.1981494 54.2457744 25.3087816 54.0757494 25.408954 53.8961003 25.5091264 53.7068271 25.5887816 53.5071278 25.6688391 53.3074286 25.7488966 53.0981053 25.8092414 52.8783559 25.8691839 52.6489825 25.9194713 52.409584 25.9597011 52.1697845 25.999931 51.9203609 26.0196437 51.6609123 26.0397586 51.3914386 26.0498161 51.1219649 26.0598736 50.8725414 26.0498161 50.6231178 26.0397586 50.3837193 26.0297011 50.1439198 26.0095862 49.9045213 25.9798161 49.6651228 25.9395862 49.4357494 25.8993563 49.1963509 25.849069 48.9665764 25.7991839 48.7472281 25.7291839 48.5174536 25.6591839 48.2880802 25.5887816 48.0687318 25.5091264 47.8489825 25.4186092 47.6296341 25.3184368 47.4098847 25.2182644 47.1704862 25.1084368 46.9511378 24.9978046 46.7614637 24.8976322 46.5818145 24.7978621 46.2622155 24.6075747 45.9927419 24.4374023 45.853193 24.3468851 45.7136441 24.2567701 45.5837193 24.1867701 45.4541955 24.1167701 45.3242707 24.0668851 45.1947469 24.0266552 45.055198 24.0065402 44.9152481 23.9964828 44.7456241 23.9964828 44.5860251 24.0266552 44.4264261 24.0668851 44.2764511 24.1167701 44.1369023 24.1867701 44.0069774 24.2567701 43.8774536 24.3573448 43.7675789 24.4575172 43.6681303 24.5673448 43.5682807 24.6976897 43.4981053 24.8276322 43.4283308 24.9680345 43.3786065 25.118092 43.3385063 25.2786092 43.3088321 25.4387241 43.3088321 25.6088966 43.3184561 25.7794713 43.3385063 25.9395862 43.3786065 26.0896437 43.4383559 26.230046 43.5081303 26.3599885 43.5879298 26.4903333 43.6777544 26.6106207 43.777604 26.730908 43.8874787 26.8306782 43.9969524 26.9308506 44.1168521 27.031023 44.2367519 27.1110805 44.4761504 27.2715977 44.7155489 27.4115977 44.9950476 27.552 45.3046216 27.7020575 45.6338446 27.8525172 45.9831178 27.9929195 46.3520401 28.1329195 46.7414135 28.2628621 47.140411 28.3831494 47.5598596 28.5034368 47.9789073 28.6036092 48.418005 28.7037816 48.8571028 28.7938966 49.3062256 28.8642989 49.7549474 28.9238391 50.2140952 28.964069 50.663218 28.9942414 51.1219649 29.0038966 51.5811128 28.9942414 52.0202105 28.964069 52.4593083 28.9338966 52.888381 28.873954 53.2974035 28.803954 53.7068271 28.7238966 54.0957995 28.6237241 54.4751479 28.5134943 54.8444712 28.3831494 55.1937444 28.2431494 55.5325915 28.093092 55.8622155 27.9225172 56.1814135 27.7422874 56.4809624 27.552 56.7700852 27.3516552 57.0395589 27.1311954 57.2990075 26.9010805 57.538406 26.6605057 57.7681805 26.4002184 57.9879298 26.139931 58.177203 25.8595287 58.3668772 25.5686667 58.5264762 25.2685517 58.6760501 24.957977 58.8059749 24.6377471 58.9254737 24.3070575 59.0253233 23.9667126 59.1055238 23.615908 59.1748972 23.2554483 59.2149975 22.8949885 59.2450727 22.5140115 59.2550977 22.1237816 59.2550977 21.9234368 59.2450727 21.723092"></polygon>
                <polygon id="Fill-8" points="82.5857444 9.00381034 82.7353183 8.99375287 82.8852932 8.97363793 83.0248421 8.93381034 83.1547669 8.88352299 83.2842907 8.82358046 83.4041905 8.74352299 83.5136642 8.65300575 83.6135138 8.5628908 83.7033383 8.45266092 83.7931629 8.33277586 83.8633383 8.21248851 83.9230877 8.08214368 83.972812 7.94214368 84.0028872 7.79168391 84.0225363 7.64162644 84.0325614 7.48151149 84.0225363 7.33105172 84.0028872 7.18099425 83.972812 7.04059195 83.9230877 6.90059195 83.8633383 6.77024713 83.7831378 6.64995977 83.7033383 6.53972989 83.6135138 6.4299023 83.5036391 6.32972989 83.3941654 6.24967241 83.2742657 6.16961494 83.1447419 6.10927011 83.014817 6.05938506 82.8752682 6.01915517 82.7353183 5.99904023 82.5857444 5.98898276 69.0543158 5.98898276 68.8846917 5.99904023 68.7250927 6.02921264 68.5654937 6.06944253 68.4155188 6.11932759 68.2759699 6.18932759 68.1364211 6.26978736 68.0064962 6.3599023 67.8966216 6.46972989 67.7871479 6.57995977 67.6973233 6.7103046 67.6070977 6.84064943 67.5377243 6.98064943 67.487599 7.1307069 67.4478997 7.28116667 67.4178246 7.44128161 67.4077995 7.61185632 67.4077995 27.0613966 67.4178246 27.2215115 67.4478997 27.3820287 67.487599 27.5417414 67.5377243 27.6922011 67.6070977 27.8326034 67.6973233 27.962546 67.7871479 28.0928908 67.8966216 28.2031207 68.0064962 28.3032931 68.1364211 28.4034655 68.2759699 28.483523 68.4155188 28.553523 68.5654937 28.6038103 68.7250927 28.6436379 68.8846917 28.6738103 69.0543158 28.6738103 82.5857444 28.6738103 82.7353183 28.6738103 82.8752682 28.6436379 83.014817 28.6134655 83.1447419 28.5635805 83.2742657 28.4931782 83.3941654 28.4231782 83.5036391 28.3330632 83.6135138 28.2429483 83.7033383 28.1331207 83.7831378 28.0224885 83.8633383 27.9026034 83.9230877 27.7722586 83.972812 27.6322586 84.0028872 27.4918563 84.0225363 27.3417989 84.0325614 27.1913391 84.0225363 27.0312241 84.0028872 26.8811667 83.972812 26.7307069 83.9230877 26.5907069 83.8633383 26.4603621 83.7931629 26.3400747 83.7033383 26.2197874 83.6135138 26.1099598 83.5136642 26.0093851 83.4041905 25.9293276 83.2842907 25.8492701 83.1547669 25.7893276 83.0248421 25.7394425 82.8852932 25.6992126 82.7353183 25.6790977 82.5857444 25.6690402 70.7008321 25.6690402 70.7008321 18.8086379 80.9091529 18.8086379 81.0691529 18.7989828 81.2083008 18.7784655 81.3582757 18.7386379 81.4882005 18.6883506 81.6177243 18.628408 81.7376241 18.5483506 81.8575238 18.4678908 81.9573734 18.3677184 82.0568221 18.267546 82.1466466 18.1476609 82.2164211 18.0277759 82.2765714 17.8970287 82.3262957 17.7570287 82.365995 17.6166264 82.3860451 17.466569 82.3960702 17.3165115 82.3860451 17.1660517 82.365995 17.0159943 82.3262957 16.8655345 82.2765714 16.7255345 82.2164211 16.5951897 82.1466466 16.4749023 82.0568221 16.3550172 81.9573734 16.2447874 81.8575238 16.1446149 81.7376241 16.0545 81.6177243 15.9845 81.4882005 15.9140977 81.3582757 15.8642126 81.2083008 15.8340402 81.0691529 15.8038678 80.9091529 15.8038678 70.7008321 15.8038678 70.7008321 9.00381034"></polygon>
                <polygon id="Fill-9" points="111.614596 6.94062069 111.574496 6.79016092 111.524772 6.65016092 111.454997 6.51981609 111.374797 6.38947126 111.285373 6.26958621 111.185524 6.15935632 111.065624 6.05918391 110.946125 5.96906897 110.816201 5.88901149 110.676652 5.82866667 110.536702 5.76872414 110.387128 5.73855172 110.227529 5.70878161 110.06793 5.69872414 109.898306 5.70878161 109.738306 5.73855172 109.588732 5.76872414 109.439158 5.82866667 109.299609 5.88901149 109.169684 5.96906897 109.039759 6.05918391 108.930286 6.15935632 108.820411 6.26958621 108.730586 6.38947126 108.650787 6.51981609 108.581013 6.65016092 108.531288 6.79016092 108.491188 6.94062069 108.461113 7.10073563 108.461113 7.2507931 108.461113 23.1049885 95.3387068 6.54998851 95.2488822 6.44981609 95.1690827 6.34964368 95.0796591 6.25952874 94.9898346 6.17947126 94.899609 6.10947126 94.8101855 6.03906897 94.7103358 5.96906897 94.6104862 5.91878161 94.5106366 5.86889655 94.411188 5.8186092 94.3113383 5.78883908 94.2010627 5.75866667 94.101614 5.72889655 93.9917393 5.71843678 93.8818647 5.70878161 93.772391 5.69872414 93.5823158 5.70878161 93.4030677 5.73855172 93.2334436 5.77878161 93.0738446 5.83872414 92.9138446 5.91878161 92.7642707 5.99924138 92.6247218 6.09941379 92.494797 6.21970115 92.3748972 6.33958621 92.2750476 6.46993103 92.1856241 6.61998851 92.1058246 6.77044828 92.0456742 6.93056322 92.0059749 7.10073563 91.9758997 7.27090805 91.9658747 7.45154023 91.9658747 27.482 91.9758997 27.6421149 91.9959499 27.7925747 92.0360501 27.9325747 92.0857744 28.072977 92.1555489 28.2125747 92.2353484 28.3328621 92.3251729 28.4531494 92.4250226 28.5637816 92.5348972 28.6534943 92.654797 28.7440115 92.7843208 28.8140115 92.9242707 28.8836092 93.0738446 28.9338966 93.2234185 28.964069 93.3830175 28.9942414 93.5430175 29.0038966 93.7122406 28.9942414 93.8718396 28.964069 94.0314386 28.9338966 94.1810125 28.8836092 94.3209624 28.8140115 94.4504862 28.7440115 94.570386 28.6534943 94.6902857 28.5637816 94.7901353 28.4531494 94.8799599 28.3328621 94.9597594 28.2125747 95.0295338 28.072977 95.0796591 27.9325747 95.1193584 27.7925747 95.1490326 27.6421149 95.1594586 27.482 95.1594586 11.6076897 108.251388 28.1626897 108.341614 28.2628621 108.431439 28.3630345 108.520862 28.4434943 108.611088 28.5235517 108.710937 28.6036092 108.800361 28.6736092 108.900211 28.7335517 108.990035 28.7938966 109.089885 28.8337241 109.189734 28.8836092 109.289584 28.9141839 109.389033 28.943954 109.499308 28.9741264 109.599158 28.9837816 109.708632 28.9942414 109.808481 29.0038966 109.998155 28.9942414 110.187429 28.964069 110.357053 28.9238391 110.526677 28.8642989 110.686677 28.7938966 110.846276 28.7037816 110.986226 28.6036092 111.115749 28.4933793 111.225223 28.373092 111.335098 28.2326897 111.424922 28.093092 111.505123 27.9426322 111.564872 27.7821149 111.604571 27.6119425 111.634647 27.4317126 111.644271 27.2514828 111.644271 7.2507931 111.634647 7.10073563"></polygon>
                <polygon id="Fill-10" points="137.360201 7.18087356 137.3201 7.04047126 137.270376 6.90047126 137.210627 6.77012644 137.140451 6.65024138 137.061053 6.54001149 136.961203 6.42978161 136.861353 6.3296092 136.751479 6.24955172 136.63198 6.16949425 136.502055 6.10914943 136.37213 6.05926437 136.232581 6.01903448 136.082607 5.99891954 135.943459 5.98926437 120.026466 5.98926437 119.876892 5.99891954 119.727318 6.01903448 119.587769 6.05926437 119.44782 6.10914943 119.328321 6.16949425 119.198396 6.24955172 119.088922 6.3296092 118.979048 6.42978161 118.888822 6.54001149 118.799398 6.65024138 118.729624 6.77012644 118.659449 6.90047126 118.609724 7.04047126 118.58005 7.18087356 118.56 7.33133333 118.549975 7.4813908 118.56 7.64190805 118.58005 7.79196552 118.609724 7.94202299 118.659449 8.08242529 118.719599 8.21236782 118.799398 8.33265517 118.879198 8.45294253 118.979048 8.56317241 119.078897 8.65328736 119.198396 8.7434023 119.318296 8.82345977 119.44782 8.8834023 119.587769 8.93368966 119.727318 8.97391954 119.876892 8.99363218 120.026466 9.00368966 126.32381 9.00368966 126.32381 27.381908 126.333434 27.5416207 126.363509 27.7021379 126.403609 27.8622529 126.453333 28.0026552 126.523108 28.1426552 126.612932 28.2830575 126.702757 28.4033448 126.812231 28.5236322 126.93213 28.6238046 127.061654 28.723977 127.19198 28.8040345 127.341554 28.8740345 127.491128 28.9239195 127.640702 28.9637471 127.800301 28.9943218 127.969925 29.003977 128.129524 28.9943218 128.299148 28.9637471 128.448722 28.9239195 128.598697 28.8740345 128.748271 28.8040345 128.878195 28.723977 129.007719 28.6238046 129.127619 28.5236322 129.227469 28.4033448 129.327318 28.2830575 129.407118 28.1426552 129.476892 28.0026552 129.536642 27.8622529 129.576742 27.7021379 129.606416 27.5416207 129.606416 27.381908 129.606416 9.00368966 135.943459 9.00368966 136.093033 8.99363218 136.232581 8.97391954 136.37213 8.93368966 136.51208 8.8834023 136.63198 8.82345977 136.751479 8.7434023 136.870977 8.65328736 136.970827 8.56317241 137.061053 8.45294253 137.140451 8.33265517 137.220251 8.21236782 137.280401 8.08242529 137.3201 7.94202299 137.360201 7.79196552 137.380251 7.64190805 137.390276 7.4813908 137.380251 7.33133333"></polygon>
                <path d="M149.544541,5.70874138 L149.424642,5.70874138 L149.304742,5.72845402 L149.195268,5.73891379 L148.995569,5.78879885 L148.806296,5.84874138 L148.636672,5.92879885 L148.476672,6.01891379 L148.337524,6.11948851 L148.207198,6.22931609 L148.097724,6.34960345 L147.98785,6.4698908 L147.897624,6.60023563 L147.817825,6.73017816 L147.738426,6.86052299 L147.678677,6.99086782 L147.618927,7.12081034 L147.568802,7.25115517 L139.855118,26.6306954 L139.794967,26.7807529 L139.715168,26.9907529 L139.685093,27.1110402 L139.655419,27.2317299 L139.635368,27.3415575 L139.635368,27.4517874 L139.635368,27.6123046 L139.665444,27.7724195 L139.695118,27.922477 L139.754867,28.0729368 L139.815419,28.2028793 L139.895218,28.3328218 L139.974617,28.4531092 L140.074466,28.5637414 L140.184742,28.6639138 L140.314266,28.7439713 L140.443789,28.8240287 L140.573313,28.883569 L140.723288,28.9338563 L140.882486,28.9740862 L141.042486,28.9942011 L141.21211,29.0038563 L141.351659,28.9942011 L141.491609,28.9841437 L141.621133,28.9640287 L141.750657,28.9237989 L141.870556,28.883569 L141.990456,28.8340862 L142.100331,28.7842011 L142.20018,28.7133966 L142.299629,28.6333391 L142.389855,28.5536839 L142.479679,28.4531092 L142.559479,28.3529368 L142.629253,28.2326494 L142.699028,28.1127644 L142.768802,27.9824195 L142.828551,27.8424195 L144.695218,23.2558103 L154.593965,23.2558103 L156.399679,27.8327644 L156.45983,27.9727644 L156.519579,28.1027069 L156.589353,28.2229943 L156.659529,28.3328218 L156.739328,28.443454 L156.829554,28.5331667 L156.929003,28.6236839 L157.028852,28.7037414 L157.128702,28.7737414 L157.238175,28.8340862 L157.358075,28.883569 L157.477574,28.9237989 L157.6079,28.9543736 L157.737424,28.9841437 L157.876972,28.9942011 L158.016521,29.0038563 L158.19617,28.9942011 L158.365794,28.9740862 L158.535419,28.9338563 L158.685393,28.883569 L158.834967,28.8240287 L158.964491,28.7536264 L159.094416,28.6639138 L159.204291,28.5637414 L159.30414,28.4531092 L159.393965,28.3432816 L159.473764,28.2129368 L159.543539,28.0729368 L159.593664,27.9325345 L159.633363,27.7724195 L159.653013,27.6123046 L159.663038,27.4517874 L159.663038,27.3620747 L159.653013,27.2615 L159.633363,27.1613276 L159.612912,27.0410402 L159.583238,26.9308103 L159.553564,26.8306379 L159.513865,26.7308678 L159.473764,26.6407529 L151.799779,7.25115517 L151.74003,7.13086782 L151.689905,6.99086782 L151.62013,6.86052299 L151.550356,6.73017816 L151.460531,6.60023563 L151.370707,6.4698908 L151.260832,6.34960345 L151.141333,6.22931609 L151.01181,6.11948851 L150.871459,6.01891379 L150.71186,5.92879885 L150.542236,5.84874138 L150.343338,5.78879885 L150.133213,5.73891379 L150.023338,5.72845402 L149.913865,5.70874138 L149.793965,5.70874138 L149.664441,5.69868391 L149.544541,5.70874138 Z M149.634366,10.3556954 L153.63597,20.4409253 L145.622737,20.4409253 L149.634366,10.3556954 Z" id="Fill-11"></path>
            </g>
        </g>
    </g>
</svg>