<?xml version="1.0" encoding="utf-8"?>
<!-- Generator: Adobe Illustrator 23.0.3, SVG Export Plug-In . SVG Version: 6.00 Build 0)  -->
<svg version="1.1" id="Layer_1" xmlns="http://www.w3.org/2000/svg" xmlns:xlink="http://www.w3.org/1999/xlink" x="0px" y="0px"
	 width="482.3px" height="113.2px" viewBox="0 0 482.3 113.2" style="enable-background:new 0 0 482.3 113.2;" xml:space="preserve"
	>
<style type="text/css">
	.st0{fill:#FFFFFF;}
</style>
<g id="simPRO_Logo_White_1_">
	<g>
		<path class="st0" d="M370.7,102.4L351,65.4l0,0c10.6-4.8,17.9-15.4,17.9-27.8c0-16-12.3-29.1-27.9-30.4c0,0-2.4-0.1-2.6-0.1l0,0
			l0,0c0,0,0,0,0,0c-1.2,0-39.6,0-39.6,0c-1.5,0-2.8,1.2-2.8,2.8l0,2.1c0,0,0,0,0,0c0,0,0,0,0,0l0,9.4v81c0,0,0,0.1,0,0.1
			c0,0,0,0.1,0,0.1v0.1h0c0.1,1.3,1.2,2.4,2.6,2.5v0h16.8c1.5,0,2.8-1.2,2.8-2.8V69.5h10.6l17.8,33.5v0c0-0.1,0.3,2,2.5,2.1v0h0.1
			c0,0,0.1,0,0.1,0c0,0,0.1,0,0.1,0l19.8,0c1,0,1.7-0.8,1.7-1.7C371.1,103.1,370.9,102.7,370.7,102.4z M333.2,51.4L333.2,51.4
			l-0.2,0c0,0,0,0-0.1,0c0,0,0,0-0.1,0h-14.7V26.4h15v0c6.8,0.1,12.3,5.7,12.3,12.5C345.5,45.7,340.1,51.3,333.2,51.4z"/>
		<path class="st0" d="M259.2,7.1L259.2,7.1C259.2,7,259.2,7,259.2,7.1c-1.2,0-39.6,0-39.6,0c-1.5,0-2.8,1.2-2.8,2.8l0,2.1
			c0,0,0,0,0,0c0,0,0,0,0,0l0,9.4v81c0,0,0,0.1,0,0.1c0,0,0,0.1,0,0.1v0.1h0c0.1,1.3,1.2,2.4,2.6,2.5v0h16.8c1.5,0,2.8-1.2,2.8-2.8
			V69.5v-0.2h19.5c17.2,0,31.1-13.9,31.1-31.1C289.7,21.2,276.1,7.4,259.2,7.1z M254.1,51.4L254.1,51.4l-0.3,0h-14.8V26.4h14.8h0.3
			v0c6.8,0.1,12.3,5.7,12.3,12.5C266.4,45.7,260.9,51.3,254.1,51.4z"/>
		<path class="st0" d="M31.6,74.5c-1.4-0.5-2.9-1.2-4.3-2.1c-1.4-0.9-2.8-1.9-4-3.2c-1.2-1.3-2.2-2.9-3-4.8
			c-0.8-1.9-1.2-4.1-1.2-6.8c0-3.8,0.7-7.1,2.2-10.1c1.5-2.9,3.6-5.4,6.2-7.4c2.7-2,5.8-3.6,9.3-4.7c3.6-1.1,7.4-1.6,11.6-1.6
			c1.4,0,3,0.1,4.7,0.2c1.7,0.1,3.4,0.3,5.2,0.6s3.5,0.7,5.1,1.1c1.7,0.5,3.2,1.1,4.5,1.8c-0.2,2.3-0.6,4.7-1.3,7
			c-0.7,2.3-1.8,4.6-3.3,7c-1.9-1-4.2-1.8-6.9-2.4c-2.7-0.6-5.3-0.9-7.7-0.9c-1,0-2.1,0.1-3.3,0.3c-1.2,0.2-2.4,0.5-3.5,0.9
			c-1.1,0.5-2,1.1-2.7,2c-0.7,0.9-1.1,2-1.1,3.4c0,2.7,1.7,4.8,5.1,6.4l5.3,2.3c1.7,0.7,3.4,1.6,5,2.5c1.6,0.9,3.1,2.1,4.3,3.4
			c1.3,1.4,2.3,2.9,3,4.7c0.8,1.8,1.1,3.9,1.1,6.4c0,4.5-0.9,8.4-2.7,11.7c-1.8,3.3-4.2,6-7.3,8.3c-3.1,2.2-6.7,3.9-10.9,4.9
			c-4.2,1.1-8.6,1.6-13.3,1.6c-2.9,0-6.1-0.3-9.6-0.9c-3.5-0.6-6.7-1.5-9.5-2.6c0.3-5.2,1.6-10.1,4.1-14.6c2.8,1.3,5.7,2.1,8.6,2.6
			c2.9,0.5,5.7,0.7,8.5,0.7c1.4,0,2.8-0.1,4.3-0.4c1.5-0.3,2.9-0.7,4.2-1.4c1.3-0.6,2.3-1.5,3.2-2.6c0.9-1.1,1.3-2.5,1.3-4.1
			c0-1.8-0.6-3.3-1.9-4.4c-1.3-1.1-3-2.1-5.3-3L31.6,74.5z"/>
		<path class="st0" d="M76.2,36.8c-0.9,2.1-1.6,4.2-2,6.2c-0.4,2-0.7,4.2-0.7,6.5c0,0.4,0,0.7,0.1,0.9c0,0.3,0.1,0.5,0.1,0.8h8.4
			l-9.5,54.1h18.5l12.1-68.5H76.2z"/>
		<path class="st0" d="M90.5,26.2c1.9,0.1,3.6,0.1,5.1,0.1c1.5,0,3.3,0,5.1-0.1c1.9-0.1,3.7-0.3,5.4-0.6c1.2-3.3,2-6.5,2.6-9.5
			c0.6-3.1,0.9-6.3,0.9-9.7c-1.6-0.4-3.4-0.6-5.3-0.8c-1.9-0.1-3.6-0.2-5.1-0.2c-1.5,0-3.3,0.1-5.2,0.2c-1.9,0.1-3.8,0.4-5.5,0.8
			c-1.2,3.4-2,6.6-2.5,9.6c-0.5,3-0.7,6.2-0.7,9.6C86.8,26,88.5,26.1,90.5,26.2z"/>
		<path class="st0" d="M202.7,39.2c-2.8-2.6-6.8-3.9-12.1-3.9c-4.8,0-9.2,1.3-13.3,3.9c-4.1,2.6-7.2,5.8-9.3,9.5
			c-0.5-4.8-2.1-8.2-4.7-10.3c-2.6-2.1-6.3-3.1-11-3.1c-4.9,0-9.4,1.3-13.4,4c-4,2.7-7.1,5.9-9.1,9.7c0.2-1.2,0.3-2.1,0.3-2.9
			c0-0.8,0.1-1.6,0.1-2.4c0-2-0.1-3.4-0.3-4.4c-0.2-1-0.4-1.8-0.5-2.5h-17.1c0.1,0.8,0.1,1.5,0.1,2.2c0,0.7,0,1.5,0,2.5
			c0,2.4-0.2,5.8-0.7,10.1c-0.5,4.3-1.2,9.3-2.2,14.9l-7.1,38.9h18.9l4.9-26.4c1.1-6,2.3-10.8,3.7-14.4c1.4-3.6,2.9-6.5,4.4-8.5
			c1.5-2,3-3.3,4.5-3.9c1.5-0.6,2.9-0.9,4.1-0.9c2,0,3.6,0.5,4.5,1.5c1,1,1.5,2.7,1.5,5.1c0,1.8-0.2,3.7-0.5,5.7l-7.4,41.8h18.9
			l5.3-30.1c0.9-5,2-9,3.3-12.1c1.3-3.1,2.8-5.6,4.3-7.3c1.5-1.8,3-3,4.5-3.6c1.5-0.6,2.8-0.9,4.1-0.9c2,0,3.6,0.5,4.5,1.5
			c1,1,1.5,2.7,1.5,5.1c0,1.8-0.2,3.7-0.5,5.7l-7.4,41.8h18.9l7.6-43.3c0.6-3.4,0.9-6.6,0.9-9.6C206.8,46.2,205.4,41.9,202.7,39.2z"
			/>
		<path class="st0" d="M423.4,5.4c-28.1,0-50.8,22.8-50.8,50.8c0,28.1,22.8,50.8,50.8,50.8c28.1,0,50.8-22.7,50.8-50.8
			C474.2,28.1,451.5,5.4,423.4,5.4z M387,35.2c1.4-2.4,4.4-3.2,6.7-1.8c2.4,1.4,3.2,4.4,1.8,6.7c-1.4,2.4-4.4,3.2-6.7,1.8
			C386.5,40.6,385.7,37.5,387,35.2z M423.4,98.2c-2.7,0-4.9-2.2-4.9-4.9c0-2.7,2.2-4.9,4.9-4.9c2.7,0,4.9,2.2,4.9,4.9
			C428.3,96,426.1,98.2,423.4,98.2z M455.7,56.2v2.4c0,1.4-1,2.5-2.4,2.7c0,0-0.1,0-0.1,0c-0.1,0-0.2,0-0.2,0c0,0,0,0-0.1,0v0
			c-3.7,0.7-7.2,2.9-9.3,6.4c-2.1,3.6-2.3,7.8-1,11.4l0,0c0,0,0,0,0,0.1c0,0.1,0.1,0.1,0.1,0.2c0,0,0,0.1,0,0.1
			c0.5,1.3,0,2.7-1.2,3.4l-2.1,1.2l-2.1,1.2c-1.2,0.7-2.7,0.4-3.5-0.7c0,0,0,0-0.1-0.1c0-0.1-0.1-0.1-0.1-0.2c0,0,0,0,0,0v0
			c-2.5-2.9-6.2-4.8-10.3-4.9c-4.1,0-7.8,1.9-10.3,4.9v0c0,0,0,0,0,0c0,0.1-0.1,0.1-0.1,0.2c0,0,0,0,0,0.1c-0.8,1.1-2.3,1.4-3.6,0.7
			l-2.1-1.2l-2.1-1.2c-1.2-0.7-1.7-2.2-1.2-3.4c0,0,0-0.1,0-0.1c0-0.1,0.1-0.1,0.1-0.2c0,0,0,0,0-0.1l0,0c1.3-3.6,1.1-7.8-1-11.4
			c-2.1-3.5-5.5-5.7-9.3-6.4c0,0,0,0-0.1,0c-0.1,0-0.2,0-0.2,0c0,0-0.1,0-0.1,0c-1.3-0.2-2.4-1.3-2.4-2.7v-2.4v-2.4
			c0-1.4,1-2.5,2.4-2.7c0,0,0.1,0,0.1,0c0.1,0,0.1,0,0.2,0c0,0,0,0,0.1,0c3.7-0.7,7.2-2.9,9.3-6.4c2.1-3.6,2.3-7.8,1-11.4l0,0
			c0,0,0,0,0-0.1c0-0.1-0.1-0.1-0.1-0.2c0,0,0-0.1,0-0.1c-0.5-1.3,0-2.7,1.2-3.4l2.1-1.2l2.1-1.2c1.2-0.7,2.7-0.4,3.6,0.7
			c0,0,0,0,0,0.1c0.1,0.1,0.1,0.1,0.1,0.2c0,0,0,0,0,0v0c2.5,2.9,6.2,4.8,10.3,4.9c4.1,0,7.8-1.9,10.3-4.9v0c0,0,0,0,0,0
			c0-0.1,0.1-0.1,0.1-0.2c0,0,0,0,0.1-0.1c0.8-1.1,2.3-1.4,3.5-0.7l2.1,1.2l2.1,1.2c1.2,0.7,1.7,2.2,1.2,3.4c0,0,0,0.1,0,0.1
			c0,0.1-0.1,0.1-0.1,0.2c0,0,0,0,0,0.1l0,0c-1.3,3.6-1.1,7.8,1,11.4c2.1,3.5,5.5,5.7,9.3,6.4v0c0,0,0,0,0.1,0c0.1,0,0.2,0,0.2,0
			c0,0,0.1,0,0.1,0c1.3,0.2,2.4,1.3,2.4,2.7V56.2z M457.9,41.9c-2.4,1.4-5.4,0.6-6.7-1.8c-1.4-2.4-0.5-5.4,1.8-6.7
			c2.3-1.4,5.4-0.6,6.7,1.8C461.1,37.5,460.3,40.6,457.9,41.9z"/>
	</g>
</g>
</svg>
