<svg width="190" height="30" viewBox="0 0 190 30" fill="none" xmlns="http://www.w3.org/2000/svg">
<g clip-path="url(#clip0)">
<path d="M35.4934 21.8228C35.258 21.6387 35.1534 21.481 35.3626 21.0866L36.2258 19.5879C36.3827 19.325 36.7228 19.2198 36.9843 19.3775C37.0105 19.3775 37.0105 19.4038 37.0367 19.4038C38.0306 20.14 39.103 20.9025 40.6724 20.9025C41.9279 20.9025 42.8695 20.0874 42.8695 19.0357C42.8695 17.8 41.8233 16.9586 39.8092 16.1435C37.5598 15.2496 35.3103 13.8035 35.3103 10.9639C35.3103 8.80787 36.9059 6.31006 40.6985 6.31006C42.4249 6.33635 44.0989 6.91479 45.5113 7.94021C45.7467 8.12426 45.8252 8.46606 45.6683 8.72899L44.7528 10.0962C44.5697 10.3854 44.2035 10.5695 43.9158 10.3854C42.8957 9.72811 41.9017 9.07079 40.5678 9.07079C39.2076 9.07079 38.4491 9.83328 38.4491 10.7535C38.4491 11.8841 39.3384 12.6466 41.274 13.4617C43.6019 14.4082 46.296 15.8017 46.296 18.9043C46.296 21.3758 44.1512 23.6895 40.777 23.6895C37.7429 23.6895 36.1997 22.4275 35.4934 21.8228Z" fill="white"/>
<path d="M47.9441 8.30855C47.918 7.23055 48.7811 6.36289 49.8274 6.36289C49.8535 6.36289 49.8535 6.36289 49.8797 6.36289C50.9521 6.33659 51.8414 7.20425 51.8414 8.28226V8.30855C51.8414 9.38655 50.9783 10.2805 49.8797 10.2805H49.8535C48.7811 10.2805 47.918 9.41284 47.918 8.33484C47.9441 8.33484 47.9441 8.30855 47.9441 8.30855ZM48.3888 12.7783C48.3888 12.4891 48.6242 12.2262 48.9381 12.2262H50.926C51.2137 12.2262 51.4752 12.4628 51.4752 12.7783V23.1376C51.4491 23.4269 51.2398 23.6372 50.9521 23.6635H48.9642C48.6765 23.6635 48.4411 23.4269 48.4149 23.1376V12.7783H48.3888Z" fill="white"/>
<path d="M53.7244 12.8569C53.7244 12.5677 53.9598 12.3047 54.2737 12.3047H55.163C55.3723 12.2784 55.5553 12.4099 55.6338 12.6202L56.0523 13.6982C56.8893 12.6465 58.171 12.0155 59.505 12.0418C61.1528 12.0418 61.9637 12.6202 62.8791 13.7508C63.3761 13.225 64.5008 12.0418 66.5149 12.0418C70.1506 12.0418 70.9876 14.3556 70.9876 17.3004V23.1373C70.9615 23.4266 70.7261 23.6632 70.4122 23.6632H68.4505C68.1627 23.6632 67.9273 23.4266 67.9012 23.1373V17.2741C67.9012 15.8017 67.3519 14.8814 65.9394 14.8814C64.2916 14.8814 63.8469 16.0646 63.8469 16.0646C63.8469 16.0646 63.8992 16.643 63.8992 17.1426V23.1373C63.8731 23.4266 63.6377 23.6632 63.35 23.6632H61.3359C61.0482 23.6632 60.8128 23.4528 60.7866 23.1636C60.7866 23.1636 60.7866 23.1636 60.7866 23.1373V17.2741C60.7866 15.8017 60.3681 14.8814 58.9295 14.8814C57.5432 14.8814 57.0201 15.8805 56.7585 16.643V23.1373C56.7324 23.4266 56.497 23.6632 56.2093 23.6632H54.2214C53.9336 23.6632 53.6982 23.4266 53.6982 23.1373V12.8569H53.7244Z" fill="white"/>
<path d="M78.5209 23.716C77.6054 23.716 76.7161 23.5583 75.8529 23.2691V28.6591C75.8268 28.9483 75.6175 29.1586 75.3298 29.1849H73.3942C73.1065 29.1586 72.8973 28.9483 72.8711 28.6591V12.8308C72.8711 12.5416 73.1065 12.305 73.3942 12.305H74.2835C74.5451 12.305 74.702 12.5153 74.8067 12.8308L75.0944 13.7248C76.0099 12.6731 77.3177 12.0684 78.7301 12.0684C81.7643 12.0684 84.0399 14.5399 84.0399 17.9053C84.0137 21.1656 81.8427 23.716 78.5209 23.716ZM75.8529 20.3506C76.5591 20.7713 77.3438 20.9816 78.1547 20.9816C79.9856 20.9816 80.9011 19.4829 80.9011 17.9053C80.9011 16.3278 80.0118 14.8028 78.2855 14.8028C77.2392 14.7502 76.2453 15.3812 75.8268 16.3541V20.3506H75.8529Z" fill="white"/>
<path d="M85.8447 6.88857C85.8709 6.59935 86.1063 6.36272 86.394 6.33643H88.408C88.6958 6.36272 88.905 6.59935 88.9312 6.88857V23.1375C88.905 23.4267 88.6958 23.637 88.408 23.6633H86.4202C86.1324 23.6633 85.897 23.4267 85.8709 23.1375V6.88857H85.8447Z" fill="white"/>
<path d="M96.386 12.0684C99.2632 12.0684 101.486 14.2244 101.486 17.2217C101.486 17.3795 101.46 17.7739 101.434 17.9579C101.408 18.2209 101.173 18.4575 100.911 18.4575H93.7965C93.8488 19.9299 95.0782 21.0868 96.5691 21.0342C97.4322 21.0605 98.2692 20.7713 98.9493 20.2191C99.2109 20.0088 99.4986 19.9825 99.6817 20.2191L100.623 21.4812C100.806 21.6652 100.806 21.9544 100.649 22.1385C100.623 22.1648 100.597 22.1911 100.571 22.1911C99.4201 23.1902 97.9554 23.716 96.4383 23.716C93.1426 23.716 90.8147 21.0605 90.8147 17.8791C90.7885 14.7502 93.1164 12.0684 96.386 12.0684ZM98.4523 16.4855C98.4 15.4075 97.5369 14.5662 96.3075 14.5662C94.9735 14.5662 94.1104 15.3812 93.9534 16.4855H98.4523Z" fill="white"/>
<path d="M103.396 6.80969C103.396 6.54677 103.605 6.33643 103.866 6.33643H113.91C114.172 6.33643 114.381 6.54677 114.381 6.80969V8.83423C114.381 9.09716 114.172 9.3075 113.91 9.3075H106.613V13.9613H112.707C112.969 13.9613 113.178 14.1717 113.178 14.4346V16.4591C113.178 16.7221 112.969 16.9324 112.707 16.9324H106.613V23.1901C106.587 23.453 106.403 23.637 106.142 23.6633H103.866C103.605 23.6633 103.396 23.453 103.396 23.1901V6.80969Z" fill="white"/>
<path d="M114.905 12.7782C114.905 12.489 115.114 12.2524 115.402 12.2261H115.428H117.416C117.704 12.2261 117.939 12.4627 117.939 12.7519C117.939 12.7519 117.939 12.7519 117.939 12.7782V18.8255C117.939 20.3242 118.462 21.0867 119.849 21.0867C121.104 21.0867 121.68 19.9561 121.863 18.957V12.7782C121.863 12.3312 122.02 12.2261 122.49 12.2261H124.4C124.688 12.2261 124.923 12.4364 124.949 12.7256V12.7519V23.0587C124.949 23.3479 124.714 23.6108 124.4 23.6108H123.511C123.249 23.6108 123.04 23.4268 122.961 23.1901L122.647 22.2173C122.072 22.822 120.869 23.8738 119.142 23.8738C115.637 23.8738 114.879 21.6915 114.879 18.7993L114.905 12.7782Z" fill="white"/>
<path d="M127.067 12.8569C127.067 12.5677 127.303 12.3311 127.59 12.3048H128.532C128.741 12.2785 128.95 12.4362 129.003 12.6466L129.421 13.6983C130.311 12.6203 131.671 12.0155 133.057 12.0418C136.667 12.0418 137.582 14.4871 137.582 17.2478V23.1374C137.556 23.4266 137.321 23.6632 137.033 23.6632H135.045C134.757 23.6632 134.522 23.4266 134.522 23.1374V17.2741C134.522 15.8017 133.946 14.8815 132.56 14.8815C131.435 14.8552 130.441 15.5651 130.101 16.6431V23.1374C130.101 23.5581 129.944 23.6895 129.395 23.6895H127.59C127.303 23.6895 127.067 23.4529 127.041 23.1374V12.8569H127.067Z" fill="white"/>
<path d="M144.802 11.9368C145.717 11.9368 146.633 12.0945 147.522 12.41V6.88857C147.548 6.59935 147.784 6.36272 148.071 6.33643H150.059C150.347 6.33643 150.583 6.57306 150.609 6.86228V22.9534C150.609 23.2426 150.373 23.4793 150.059 23.5056H149.144C148.882 23.5056 148.699 23.2952 148.621 22.9534L148.333 22.0595C147.418 23.1375 146.057 23.7422 144.645 23.7422C141.559 23.7422 139.257 21.2444 139.257 17.8001C139.204 14.5398 141.428 11.9368 144.802 11.9368ZM147.496 15.3811C146.79 14.9604 145.979 14.7238 145.168 14.7238C143.311 14.7238 142.369 16.2488 142.369 17.8526C142.369 19.4565 143.285 21.0078 145.037 21.0078C146.11 21.0604 147.104 20.4293 147.522 19.4302L147.496 15.3811Z" fill="white"/>
<path d="M155.055 14.645L157.174 11.3058C157.88 10.2015 158.56 9.09724 159.266 7.99294H153.538V6.36279H162.065C161.359 7.44079 160.679 8.4925 159.972 9.54421C159.266 10.5959 158.586 11.6476 157.88 12.6993C158.508 12.8308 159.083 13.0674 159.659 13.383C160.208 13.6985 160.679 14.0929 161.097 14.5661C161.49 15.0394 161.83 15.5652 162.039 16.1437C162.274 16.7484 162.379 17.4057 162.379 18.0368C162.379 18.773 162.248 19.5354 161.934 20.2191C161.646 20.8764 161.228 21.4811 160.731 21.9807C160.208 22.5065 159.606 22.9009 158.952 23.1901C158.272 23.4794 157.54 23.6371 156.781 23.6371C155.212 23.6371 153.721 22.9798 152.675 21.8229C152.858 21.6389 153.067 21.4285 153.276 21.2445C153.486 21.0604 153.695 20.8501 153.878 20.666C154.218 21.0604 154.663 21.4022 155.133 21.6652C155.63 21.9281 156.18 22.0596 156.755 22.0596C157.278 22.0596 157.801 21.9544 158.298 21.744C159.266 21.3234 160.025 20.5609 160.443 19.6143C161.097 18.1419 160.757 16.4066 159.58 15.276C159.214 14.9079 158.769 14.645 158.298 14.4347C157.801 14.2243 157.278 14.1191 156.755 14.1191C156.127 14.1454 155.552 14.3295 155.055 14.645Z" fill="white"/>
<path d="M163.765 18.1945C163.765 16.9325 164.026 15.6967 164.576 14.5661C165.125 13.4355 165.831 12.3838 166.668 11.4373C167.531 10.4382 168.499 9.54421 169.545 8.72914C170.591 7.88777 171.612 7.09899 172.632 6.36279C172.815 6.57313 172.972 6.78348 173.155 7.02011C173.338 7.25675 173.495 7.46709 173.678 7.67743C172.37 8.54509 171.141 9.51792 169.964 10.5696C169.153 11.3058 168.421 12.1209 167.767 12.9886C168.002 12.7782 168.237 12.6205 168.525 12.5153C168.839 12.3838 169.153 12.3312 169.467 12.3312C170.225 12.3312 170.984 12.489 171.69 12.7782C172.37 13.0674 172.972 13.4618 173.521 13.9877C174.044 14.5135 174.463 15.1183 174.75 15.7756C175.352 17.1954 175.352 18.7993 174.75 20.2191C174.463 20.9027 174.044 21.5074 173.521 22.007C172.998 22.5328 172.37 22.9272 171.69 23.2427C170.984 23.5582 170.225 23.716 169.467 23.6897C168.708 23.6897 167.976 23.5582 167.296 23.269C166.642 23.0061 166.014 22.6117 165.491 22.1121C164.968 21.6126 164.576 21.0078 164.262 20.3505C163.948 19.6669 163.765 18.9307 163.765 18.1945ZM165.465 17.9842C165.465 19.6143 166.406 21.0604 167.871 21.7177C168.368 21.9281 168.891 22.0333 169.414 22.0333C169.964 22.0333 170.487 21.9281 170.984 21.7177C171.481 21.5074 171.925 21.2182 172.292 20.8501C172.658 20.482 172.972 20.035 173.181 19.5617C173.835 18.0368 173.495 16.2752 172.292 15.1446C171.899 14.7765 171.455 14.4872 170.984 14.2769C170.487 14.0666 169.964 13.9614 169.414 13.9614C168.891 13.9614 168.342 14.0666 167.871 14.2769C167.4 14.4872 166.982 14.7765 166.616 15.1446C166.25 15.5127 165.962 15.9333 165.779 16.4329C165.569 16.9062 165.465 17.4583 165.465 17.9842Z" fill="white"/>
<path d="M176.137 14.9867C176.137 13.8561 176.294 12.7256 176.634 11.6476C176.922 10.6484 177.419 9.72818 178.047 8.91311C178.648 8.15062 179.381 7.51959 180.244 7.07262C181.133 6.62564 182.127 6.38901 183.121 6.38901C184.115 6.36271 185.109 6.62564 185.998 7.09891C186.861 7.57218 187.594 8.20321 188.169 8.99199C188.771 9.83335 189.242 10.7536 189.529 11.7527C189.843 12.8307 190 13.9613 190 15.0919C190.026 16.3014 189.817 17.4845 189.399 18.5888C189.032 19.588 188.509 20.5082 187.829 21.297C187.201 22.0332 186.443 22.6379 185.58 23.0586C184.769 23.4793 183.88 23.6896 182.964 23.6896C182.075 23.6896 181.185 23.453 180.375 23.0323C179.538 22.5853 178.779 21.9806 178.177 21.2444C177.497 20.4293 177 19.5091 176.66 18.51C176.294 17.3794 176.111 16.1699 176.137 14.9867ZM177.759 14.9867C177.759 15.9596 177.89 16.9061 178.177 17.8263C178.413 18.6414 178.805 19.4039 179.302 20.0875C179.747 20.6923 180.322 21.1918 180.976 21.5862C181.578 21.9543 182.284 22.1383 182.99 22.1383C183.696 22.1383 184.376 21.9543 185.004 21.6125C185.658 21.2444 186.26 20.7448 186.704 20.1664C187.228 19.4828 187.62 18.7466 187.881 17.9315C188.195 17.0113 188.352 16.0647 188.326 15.0919C188.326 14.2505 188.221 13.4355 188.012 12.6204C187.829 11.8053 187.489 11.0428 187.044 10.3329C186.626 9.6756 186.051 9.09716 185.397 8.65018C184.69 8.20321 183.88 7.96657 183.069 7.99286C182.232 7.96657 181.421 8.20321 180.715 8.62389C180.035 9.04457 179.485 9.59672 179.041 10.254C178.596 10.9639 178.256 11.7264 178.047 12.5415C177.89 13.304 177.785 14.1454 177.759 14.9867Z" fill="white"/>
<path d="M3.34759 24.4784C3.583 24.7677 3.84456 25.0569 4.10612 25.3461C4.94313 26.2401 5.91091 27.0288 6.93101 27.6862L6.98333 27.7124L17.3936 17.2479C17.9429 16.6432 18.2306 15.8544 18.2306 15.0394C18.2306 14.4872 18.0736 13.9351 17.8121 13.4355C17.5243 12.9096 17.0535 12.5678 16.9489 11.9368C16.9228 11.8316 16.9228 11.7265 16.9228 11.595C16.9228 11.1217 17.0797 10.7011 17.3936 10.3593L17.5244 10.2541C17.8644 9.93857 18.309 9.78081 18.7537 9.78081C19.9307 9.78081 20.7154 11.0166 21.1601 11.9894C21.2909 12.226 21.3955 12.489 21.474 12.7519C21.6571 13.2777 21.7617 13.8299 21.814 14.4083C21.8402 14.6187 21.8402 14.829 21.8402 15.0394C21.8402 15.723 21.7355 16.4066 21.5524 17.0639C21.2647 18.0104 20.7939 18.8781 20.14 19.6143C19.6169 20.1927 10.436 29.3426 10.436 29.3426C13.3393 30.2365 16.4258 30.2365 19.303 29.3426C20.5585 28.9482 21.7355 28.3961 22.8603 27.6862C24.7174 26.503 26.2867 24.8991 27.4899 23.0323C29.007 20.6397 29.7917 17.8527 29.7917 15.0131C29.7917 14.1717 29.7132 13.3566 29.5824 12.5153C29.4778 11.8579 29.3209 11.2006 29.1116 10.5433C28.7193 9.30754 28.1962 8.12437 27.4899 7.02008L27.4638 6.96749C27.1499 6.49422 26.836 6.02095 26.4698 5.57398L26.4175 5.4951L26.3914 5.44251C26.1821 5.17959 25.9729 4.94295 25.7375 4.70632C24.8743 3.78607 23.9065 2.971 22.8603 2.31368L12.3977 12.8308C11.6392 13.6721 11.4038 14.8553 11.7176 15.9596C11.8484 16.354 12.0577 16.7484 12.3192 17.0639C12.3454 17.0902 12.5023 17.3005 12.5285 17.3005C12.6331 17.4583 12.7377 17.616 12.79 17.8001C12.8424 17.9841 12.8685 18.1945 12.8685 18.3785C12.8685 19.4039 12.0577 20.219 11.0376 20.219C10.3837 20.1927 9.78206 19.8509 9.41587 19.2988C9.25893 19.1147 9.12815 18.9307 8.99737 18.7203C8.65733 18.1945 8.39577 17.6423 8.21268 17.0639C8.00342 16.3803 7.8988 15.6967 7.8988 14.9868C7.8988 13.4092 8.42193 11.8842 9.38971 10.6485C10.2267 9.59676 19.3291 0.657238 19.3291 0.657238C11.5345 -1.78799 3.16449 2.6029 0.679636 10.517C-0.811278 15.3286 0.182665 20.5608 3.34759 24.4784Z" fill="white"/>
</g>
<defs>
<clipPath id="clip0">
<rect width="190" height="30" fill="white"/>
</clipPath>
</defs>
</svg>
