<?xml version="1.0" encoding="UTF-8"?>
<svg width="152px" height="46px" viewBox="0 0 152 46" version="1.1" xmlns="http://www.w3.org/2000/svg" xmlns:xlink="http://www.w3.org/1999/xlink">
    <!-- Generator: Sketch 50 (54983) - http://www.bohemiancoding.com/sketch -->
    <title>spotlight-reporting</title>
    <desc>Created with Sketch.</desc>
    <defs></defs>
    <g id="Page-1" stroke="none" stroke-width="1" fill="none" fill-rule="evenodd">
        <g id="spotlight-reporting" transform="translate(-34.000000, -17.000000)" fill="#FFFFFF">
            <g transform="translate(34.000000, 17.000000)">
                <g id="Group-3" opacity="0.75" transform="translate(3.711089, 32.851692)">
                    <path d="M33.2628574,4.75043077 C26.5828981,13.8273538 13.7641799,15.7812 4.65655015,9.13504615 C2.86285738,7.82735385 1.28564476,6.22735385 0.0176895219,4.41196923 L7.93467833,0.0581230769 C12.0787272,4.9812 19.4545156,5.62735385 24.4180964,1.50427692 C24.8819825,1.11966154 25.29948,0.704276923 25.7015145,0.258123077 L33.2628574,4.75043077 Z" id="Fill-1"></path>
                </g>
                <path d="M25.6860517,5.87901538 C25.7324403,5.8944 25.7788289,5.8944 25.8097546,5.90978462 C25.7479032,5.97132308 25.7169774,6.03286154 25.6551259,6.0944 C25.1603141,6.70978462 24.7118909,7.35593846 24.3253192,8.03286154 C23.8459703,8.84824615 23.4439357,9.6944 23.1192155,10.5713231 C22.7326437,11.6636308 22.4543121,12.7867077 22.3151463,13.9405538 L22.3151463,5.27901538 C23.4593986,5.38670769 24.5727251,5.58670769 25.6860517,5.87901538" id="Fill-4" fill-opacity="0.75"></path>
                <path d="M39.9892053,31.6636462 C39.664485,32.7098 39.2624505,33.7098 38.7676387,34.6944154 L31.2526844,30.2482615 C31.2681473,30.2482615 31.2836102,30.2636462 31.299073,30.2636462 C32.1495308,30.6636462 33.0463772,31.0021077 33.9741493,31.2328769 C34.128778,31.2636462 34.2679438,31.3098 34.4225725,31.3405692 C35.6286763,31.6328769 36.8657058,31.7713385 38.1027353,31.7713385 C38.7212501,31.7713385 39.3552277,31.7405692 39.9892053,31.6636462" id="Fill-6" fill-opacity="0.75"></path>
                <path d="M18.8669884,5.26363077 L18.8669884,13.9405538 C12.4808236,14.8944 8.05844313,20.8174769 9.017141,27.1713231 C9.15630682,28.1405538 9.43463845,29.0944 9.82121017,29.9867077 L1.98153571,34.3097846 C1.13107792,32.5251692 0.543488911,30.6482462 0.249694405,28.6944 C0.0950657172,27.7559385 0.0177513733,26.8174769 0.00228850458,25.8636308 C-0.152340183,15.4020923 7.67187141,6.52516923 18.1247707,5.32516923 C18.3721766,5.30978462 18.6195825,5.27901538 18.8669884,5.26363077" id="Fill-8" fill-opacity="0.75"></path>
                <path d="M40.9324557,25.7712923 C40.9324557,26.5559077 40.8706043,27.3405231 40.7778271,28.1251385 C40.6386612,29.2482154 40.3912553,30.3712923 40.0665351,31.4482154 C40.0356094,31.5251385 40.0201465,31.6020615 39.9892208,31.6636 C39.3552431,31.7405231 38.7212655,31.7712923 38.0872879,31.7712923 C36.8502584,31.7712923 35.6132289,31.6328308 34.4071251,31.3405231 C34.2524964,31.3097538 34.1133306,31.2636 33.9587019,31.2328308 C33.0463927,30.9866769 32.1495463,30.6636 31.2836256,30.2636 C31.2681628,30.2636 31.2526999,30.2482154 31.237237,30.2482154 L31.2217742,30.2482154 C31.2526999,30.1866769 31.2836256,30.1251385 31.2990885,30.0636 C31.5155687,29.5866769 31.6856602,29.0943692 31.824826,28.5866769 C32.0722319,27.7097538 32.2113978,26.8174462 32.2423235,25.9097538 C32.2423235,25.7559077 32.2577864,25.6174462 32.2577864,25.4636 C32.2577864,25.1251385 32.2423235,24.8174462 32.2113978,24.4789846 C31.7629746,19.1097538 27.6498515,14.7405231 22.284236,13.9559077 C22.4234018,12.8020615 22.7017335,11.6789846 23.0883052,10.5866769 C23.4130254,9.70975385 23.81506,8.84821538 24.294409,8.04821538 C24.6809807,7.37129231 25.1294039,6.72513846 25.6242157,6.10975385 C25.6706043,6.04821538 25.7169929,5.98667692 25.7788444,5.92513846 C27.1705025,6.29436923 28.5157721,6.81744615 29.7991902,7.4636 C35.8915605,10.5712923 40.0046836,16.4943692 40.7778271,23.2636 C40.7932899,23.4020615 40.8087528,23.5405231 40.8242157,23.6943692 C40.8706043,24.2174462 40.90153,24.7405231 40.90153,25.2636 C40.9324557,25.4328308 40.9324557,25.6020615 40.9324557,25.7712923" id="Fill-10"></path>
                <path d="M32.2423699,24.4636 C32.2732956,24.7866769 32.2887585,25.1097538 32.2887585,25.4482154 C32.2887585,25.6020615 32.2887585,25.7405231 32.2732956,25.8943692 C32.2423699,26.8020615 32.1032041,27.6943692 31.8557982,28.5712923 C31.7166323,29.0789846 31.5310779,29.5712923 31.3300606,30.0482154 C31.3145978,30.1097538 31.283672,30.1712923 31.2527463,30.2328308 C25.9335194,27.7097538 22.454374,22.4789846 22.2069681,16.6328308 C22.1915052,16.4020615 22.1915052,16.1866769 22.1915052,15.9559077 C22.1915052,15.3405231 22.2224309,14.7251385 22.2997453,14.1097538 C22.2997453,14.0482154 22.3152081,13.9866769 22.3152081,13.9405231 C27.6808236,14.7405231 31.7784838,19.0943692 32.2423699,24.4636" id="Fill-12" fill-opacity="0.75"></path>
                <g id="Group-16" opacity="0.75" transform="translate(25.822991, 0.082462)">
                    <path d="M28.1601107,15.8734769 C28.1601107,22.5965538 23.8923589,28.5965538 17.5061941,30.8119385 L16.810365,31.0427077 C15.9599072,31.2888615 15.0939866,31.4734769 14.2280659,31.5811692 L14.1816773,31.5811692 C14.2126031,31.5042462 14.2280659,31.4273231 14.2589917,31.3657846 C14.5837119,30.2734769 14.8156549,29.1657846 14.9702836,28.0427077 C15.0630608,27.2580923 15.1249123,26.4734769 15.1249123,25.6888615 L15.1249123,25.1811692 C15.1249123,24.6580923 15.0939866,24.1196308 15.047598,23.6119385 C15.0321351,23.4580923 15.0166722,23.3196308 15.0012094,23.1811692 C14.2280659,16.4273231 10.1149428,10.4888615 4.02257253,7.39655385 C2.73915443,6.73501538 1.39388484,6.22732308 0.0022266531,5.85809231 C5.56885941,-0.895753846 15.5733355,-1.88036923 22.3615349,3.65809231 C26.0416977,6.64270769 28.1755736,11.1350154 28.1601107,15.8734769" id="Fill-14"></path>
                </g>
                <path d="M59.8899483,36.0482615 C60.2146686,35.4328769 60.8641091,35.0636462 61.575401,35.0790308 C61.7609554,35.0790308 61.9619727,35.0944154 62.1475272,35.1251846 L62.1475272,36.7405692 C61.8537327,36.6174923 61.5444753,36.5559538 61.2352179,36.5559538 C60.400223,36.5559538 59.9363369,37.1405692 59.9054112,38.0021077 L59.9054112,42.0021077 L58.3591243,42.0021077 L58.3591243,35.2021077 L59.8899483,35.2021077 L59.8899483,36.0482615 Z" id="Fill-17"></path>
                <path d="M64.1267589,37.9559385 L67.8069217,37.9559385 C67.7759959,37.0020923 67.0183154,36.3559385 66.0132289,36.3559385 C64.9926796,36.3559385 64.234999,37.0636308 64.1267589,37.9559385 Z M64.1422218,39.1251692 C64.2968505,40.1097846 65.1163825,40.7867077 66.2297091,40.7867077 C67.0801668,40.7713231 67.9151617,40.5097846 68.6109908,40.0482462 L68.6109908,41.5559385 C67.8378474,41.9713231 66.9873896,42.1867077 66.1060061,42.1713231 C64.0958332,42.1713231 62.5959349,40.7097846 62.5959349,38.6174769 C62.5959349,36.6174769 64.0494446,35.0790154 66.0286918,35.0790154 C68.007939,35.0790154 69.2758942,36.5559385 69.2758942,38.3559385 C69.2758942,38.6174769 69.2449685,38.8790154 69.183117,39.1251692 L64.1422218,39.1251692 Z" id="Fill-19"></path>
                <path d="M74.1003093,40.6790462 C75.2445615,40.6944308 76.1723337,39.7867385 76.1877965,38.6482769 C76.2032594,37.5098154 75.2909502,36.5867385 74.1466979,36.5713538 C73.0024456,36.5559692 72.0746734,37.4636615 72.0592106,38.6021231 L72.0592106,38.6328923 C72.0437477,39.7405846 72.9251312,40.6636615 74.0539207,40.6944308 C74.0693835,40.6790462 74.0848464,40.6790462 74.1003093,40.6790462 Z M72.0592106,36.4021231 C72.5385595,35.5405846 73.3580916,35.0790462 74.3941038,35.0790462 C76.3269624,35.0790462 77.7031577,36.6175077 77.7031577,38.6175077 C77.7031577,40.6175077 76.3114995,42.1713538 74.3941038,42.1713538 C73.4508688,42.2021231 72.5540224,41.7252 72.0592106,40.9098154 L72.0592106,44.8482769 L70.5283866,44.8482769 L70.5283866,35.2175077 L72.0592106,35.2175077 L72.0592106,36.4021231 Z" id="Fill-21"></path>
                <path d="M82.1719577,40.6790462 C83.3316728,40.6790462 84.1666678,39.7559692 84.1666678,38.6175077 C84.1666678,37.4944308 83.31621,36.5559692 82.1719577,36.5559692 C81.0277054,36.5559692 80.0999333,37.4790462 80.0999333,38.6175077 C80.0999333,39.7559692 81.0277054,40.6790462 82.1719577,40.6790462 Z M82.1719577,35.0790462 C84.135742,35.0790462 85.7284175,36.6636615 85.7438804,38.6175077 C85.7438804,40.5713538 84.1512049,42.1559692 82.1874205,42.1713538 C80.2236362,42.1713538 78.6309607,40.5867385 78.6154979,38.6328923 L78.6154979,38.6175077 C78.5845721,36.6944308 80.130859,35.1098154 82.0637176,35.0790462 L82.1719577,35.0790462 Z" id="Fill-23"></path>
                <path d="M88.5736472,36.0482615 C88.8983674,35.4328769 89.5478079,35.0636462 90.2589453,35.0790308 C90.4446543,35.0790308 90.645517,35.0944154 90.831226,35.1251846 L90.831226,36.7405692 C90.5372769,36.6174923 90.2280195,36.5559538 89.9187622,36.5559538 C89.0839219,36.5559538 88.6200358,37.1405692 88.5891101,38.0021077 L88.5891101,42.0021077 L87.0581314,42.0021077 L87.0581314,35.2021077 L88.5891101,35.2021077 L88.5891101,36.0482615 L88.5736472,36.0482615 Z" id="Fill-25"></path>
                <polygon id="Fill-27" points="92.4393644 42.0174615 92.4393644 36.5251538 91.2796492 36.5251538 91.2796492 35.2174615 92.5166787 35.2174615 92.5166787 33.6328462 93.9547255 33.2943846 93.9547255 35.2174615 95.191755 35.2174615 95.191755 36.5097692 93.9547255 36.5097692 93.9547255 42.0020769"></polygon>
                <path d="M96.2586775,42.0173846 L97.7895015,42.0173846 L97.7895015,35.2173846 L96.2586775,35.2173846 L96.2586775,42.0173846 Z M97.0316663,32.2175385 C97.5575585,32.2175385 97.975056,32.6327692 97.975056,33.1558462 C97.975056,33.6790769 97.5575585,34.0943077 97.0316663,34.0943077 C96.5060834,34.0943077 96.088586,33.6790769 96.088586,33.1558462 C96.088586,32.6327692 96.5060834,32.2175385 97.0316663,32.2175385 C97.0163581,32.2175385 97.0316663,32.2175385 97.0316663,32.2175385 Z" id="Fill-29"></path>
                <path d="M101.067614,36.1867077 C101.438568,35.4790154 102.180941,35.0482462 102.984855,35.0790154 C104.500371,35.0790154 105.474532,36.1867077 105.474532,37.6944 L105.474532,42.0020923 L103.943708,42.0020923 L103.943708,38.0790154 C103.943708,37.1713231 103.402507,36.5405538 102.505661,36.5405538 C101.63974,36.5405538 101.09854,37.1251692 101.083077,37.9867077 L101.083077,41.9867077 L99.5520985,41.9867077 L99.5520985,35.1867077 L101.067614,35.1867077 L101.067614,36.1867077 Z" id="Fill-31"></path>
                <path d="M110.32978,36.5713231 C109.247379,36.5713231 108.365996,37.4328615 108.350533,38.5097846 C108.350533,39.5867077 109.216453,40.4636308 110.298854,40.4790154 C111.381255,40.4790154 112.262638,39.6174769 112.278256,38.5405538 L112.278256,38.5251692 C112.293564,37.4790154 111.458569,36.6020923 110.391631,36.5713231 L110.32978,36.5713231 Z M113.88624,35.2174769 L113.88624,41.3405538 C113.88624,43.6944 112.463656,44.9713231 110.206077,44.9713231 C109.386545,44.9713231 108.582476,44.7867077 107.855721,44.4174769 L107.855721,42.8328615 C108.55155,43.2944 109.371082,43.5405538 110.206077,43.5559385 C111.458569,43.5559385 112.35557,42.7559385 112.35557,41.5251692 L112.35557,40.7405538 C111.829678,41.5251692 110.932832,41.9713231 109.989751,41.9559385 C108.103281,41.9559385 106.726931,40.4790154 106.726931,38.5251692 C106.726931,36.5713231 108.103281,35.0790154 109.974134,35.0790154 C110.932832,35.0482462 111.829678,35.5251692 112.339953,36.3251692 L112.339953,35.2174769 L113.88624,35.2174769 Z" id="Fill-32"></path>
                <path d="M65.9668248,14.9405385 C65.1472928,14.4020769 64.2040578,14.1097692 63.229897,14.079 C62.1938848,14.079 61.6526844,14.5866923 61.6526844,15.2482308 C61.6526844,15.7559231 61.9774047,16.0328462 62.5649937,16.4020769 L64.5133152,17.5559231 C66.0132134,18.4636154 66.538951,19.5713077 66.538951,20.7405385 C66.538951,22.8174615 64.9308126,24.2943846 62.1938848,24.2943846 C61.111484,24.279 60.0290832,24.0482308 59.0394596,23.6020769 L59.0394596,20.8328462 C59.6579744,21.3713077 60.9413925,21.9559231 62.054719,21.9559231 C63.1371198,21.9559231 63.7247089,21.4174615 63.7247089,20.7097692 C63.7247089,20.2174615 63.4463772,19.8328462 62.6886966,19.3866923 L60.6166722,18.1559231 C59.3641799,17.4174615 58.8693681,16.3405385 58.8693681,15.1559231 C58.8539052,13.1405385 60.3847292,11.6943846 63.1525827,11.6943846 C64.1112806,11.7097692 65.0545156,11.8636154 65.9668248,12.1866923 L65.9668248,14.9405385 Z" id="Fill-33"></path>
                <path d="M75.2755027,21.6636462 C77.3475272,21.6636462 78.8783512,20.0021077 78.8783512,18.0021077 C78.8783512,15.9867231 77.3475272,14.3713385 75.2755027,14.3713385 C73.1725526,14.3713385 71.6571915,15.9867231 71.6571915,18.0021077 C71.6571915,20.0021077 73.1880155,21.6636462 75.2755027,21.6636462 Z M71.6571915,14.0944154 C72.4921864,12.5713385 73.9766218,11.7405692 75.8012403,11.7405692 C79.2339972,11.7405692 81.7080562,14.4636462 81.7080562,18.0174923 C81.7080562,21.5559538 79.24946,24.3251846 75.8012403,24.3251846 C73.9766218,24.3251846 72.4921864,23.4636462 71.6571915,22.0944154 L71.6571915,29.0944154 L68.9511894,29.0944154 L68.9511894,11.9713385 L71.6571915,11.9713385 L71.6571915,14.0944154 Z" id="Fill-34"></path>
                <path d="M89.6404924,21.6636462 C91.681591,21.6636462 93.1969522,20.0174923 93.1969522,18.0021077 C93.1969522,15.9867231 91.6970539,14.3405692 89.6404924,14.3405692 C87.6148566,14.3405692 86.0685697,15.9867231 86.0685697,18.0021077 C86.0685697,20.0174923 87.6148566,21.6636462 89.6404924,21.6636462 M89.6404924,11.7251846 C93.1969522,11.7251846 95.9493428,14.4482615 95.9493428,18.0021077 C95.9493428,21.5405692 93.1814893,24.3098 89.6404924,24.3098 C86.0685697,24.3098 83.3316419,21.5405692 83.3316419,18.0021077 C83.3163337,14.4482615 86.0531068,11.7251846 89.6404924,11.7251846" id="Fill-35"></path>
                <polygon id="Fill-36" points="98.995528 24.0482615 98.995528 14.2790308 96.9544293 14.2790308 96.9544293 11.9713385 99.1501567 11.9713385 99.1501567 9.15595385 101.716993 8.57133846 101.716993 11.9867231 103.91272 11.9867231 103.91272 14.2944154 101.716993 14.2944154 101.716993 24.0636462 98.995528 24.0636462"></polygon>
                <polygon id="Fill-37" points="108.55155 24.0482615 105.830085 24.0482615 105.830085 7.12518462 108.536087 7.12518462 108.536087 24.0482615"></polygon>
                <path d="M114.365681,24.0482615 L111.644062,24.0482615 L111.644062,11.9713385 L114.350064,11.9713385 L114.365681,24.0482615 Z M113.020412,6.63287692 C113.932721,6.63287692 114.674939,7.35595385 114.674939,8.26364615 L114.674939,8.3098 C114.705864,9.20210769 114.010035,9.95595385 113.113034,9.98672308 L113.020412,9.98672308 C112.09264,9.98672308 111.350422,9.23287692 111.350422,8.3098 C111.334804,7.37133846 112.09264,6.63287692 113.020412,6.63287692 Z" id="Fill-38"></path>
                <path d="M123.117603,14.3866769 C121.231133,14.3559077 119.669384,15.8482154 119.638458,17.7097538 L119.638458,17.8328308 C119.638458,19.8020615 121.10743,21.3097538 123.117603,21.3097538 C125.112313,21.3097538 126.596749,19.7866769 126.596749,17.8328308 C126.627674,15.9559077 125.127776,14.4020615 123.256769,14.3712923 C123.210535,14.3866769 123.163992,14.3866769 123.117603,14.3866769 Z M129.457379,11.9712923 L129.457379,22.8636 C129.457379,27.0328308 126.921469,29.3251385 122.916586,29.3251385 C121.153819,29.3251385 119.561143,28.8174462 118.757074,28.3405231 L118.757074,25.5097538 C119.746698,26.2020615 121.401225,26.7866769 122.916586,26.7866769 C125.127776,26.7866769 126.735915,25.3712923 126.735915,23.1866769 L126.735915,21.7866769 C125.869994,23.0636 124.416484,23.9405231 122.545477,23.9405231 C119.190189,23.9405231 116.746901,21.3097538 116.746901,17.8482154 C116.746901,14.3866769 119.190189,11.7097538 122.514706,11.7097538 C124.416484,11.7097538 125.869994,12.5866769 126.735915,13.9097538 L126.735915,11.9712923 L129.457379,11.9712923 Z" id="Fill-39"></path>
                <path d="M135.33327,13.6943692 C135.998173,12.5251385 137.096037,11.7251385 138.735101,11.7251385 C141.42564,11.7251385 143.142018,13.6943692 143.142018,16.3866769 L143.142018,24.0482154 L140.436016,24.0482154 L140.436016,17.0789846 C140.436016,15.4636 139.477318,14.3559077 137.900106,14.3559077 C136.353819,14.3559077 135.379658,15.3866769 135.33327,16.9251385 L135.33327,24.0328308 L132.627268,24.0328308 L132.627268,7.10975385 L135.33327,7.10975385 L135.33327,13.6943692 Z" id="Fill-40"></path>
                <polygon id="Fill-41" points="146.945977 24.0482615 146.945977 14.2790308 144.889261 14.2790308 144.889261 11.9713385 147.084988 11.9713385 147.084988 9.15595385 149.651979 8.57133846 149.651979 11.9867231 151.847552 11.9867231 151.847552 14.2944154 149.651979 14.2944154 149.651979 24.0636462 146.945977 24.0636462"></polygon>
            </g>
        </g>
    </g>
</svg>