<?xml version="1.0" encoding="UTF-8"?>
<svg width="154px" height="26px" viewBox="0 0 154 26" version="1.1" xmlns="http://www.w3.org/2000/svg" xmlns:xlink="http://www.w3.org/1999/xlink">
    <!-- Generator: Sketch 42 (36781) - http://www.bohemiancoding.com/sketch -->
    <title>tradify</title>
    <desc>Created with Sketch.</desc>
    <defs>
        <polygon id="path-1" points="0.0256666667 25.7779349 21.6883333 25.7779349 21.6883333 0.1804971 0.0256666667 0.1804971 0.0256666667 25.7779349"></polygon>
        <polygon id="path-3" points="0 25.8552687 154 25.8552687 154 0.257779349 0 0.257779349"></polygon>
    </defs>
    <g id="Page-1" stroke="none" stroke-width="1" fill="none" fill-rule="evenodd">
        <g id="tradify" transform="translate(-33.000000, -27.000000)">
            <g transform="translate(33.000000, 27.000000)">
                <g>
                    <g id="Group-3" transform="translate(24.896667, 0.077334)">
                        <mask id="mask-2" fill="white">
                            <use xlink:href="#path-1"></use>
                        </mask>
                        <g id="Clip-2"></g>
                        <path d="M10.9083333,12.1672368 L8.82933333,12.1672368 L8.82933333,7.14053953 L10.9083333,7.14053953 C11.9863333,7.14053953 12.859,7.44987475 12.859,9.66677716 C12.859,11.8836796 11.9606667,12.1672368 10.9083333,12.1672368 L10.9083333,12.1672368 Z M19.019,17.2197121 C20.6873333,15.8277036 21.6883333,13.5076895 21.6883333,9.66677716 C21.6883333,1.36628211 16.9656667,0.1804971 11.2163333,0.1804971 L0.0256666667,0.1804971 L0.0256666667,25.7779865 L8.855,25.7779865 L8.855,19.1788351 L11.0366667,19.1788351 L12.474,25.7779865 L21.4573333,25.7779865 L18.9933333,17.24549 L19.019,17.2197121 Z" id="Fill-1" fill="#FFFFFF" mask="url(#mask-2)"></path>
                    </g>
                    <mask id="mask-4" fill="white">
                        <use xlink:href="#path-3"></use>
                    </mask>
                    <g id="Clip-5"></g>
                    <polygon id="Fill-4" fill="#FFFFFF" mask="url(#mask-4)" points="99.33 25.8552687 108.159333 25.8552687 108.159333 0.257779349 99.33 0.257779349"></polygon>
                    <polygon id="Fill-6" fill="#FFFFFF" mask="url(#mask-4)" points="130.925564 7.3209593 128.025231 0.257805127 110.443564 0.257805127 110.443564 25.8552945 119.273154 25.8552945 119.273154 18.6374727 126.536564 18.6374727 126.536564 11.6000965 119.273154 11.6000965 119.273154 7.47562691"></polygon>
                    <path d="M85.675282,18.637447 L82.8519487,18.637447 L82.8519487,7.47560113 L85.675282,7.47560113 C87.138282,7.47560113 88.3189487,8.17160537 88.3189487,13.0436351 C88.3189487,17.9414427 87.138282,18.637447 85.675282,18.637447 M94.2479487,3.2480198 C92.3229487,1.26311881 89.1662053,0.257779349 84.7769487,0.257779349 L73.9969487,0.257779349 L73.9969487,25.8552687 L85.136282,25.8552687 C89.422872,25.8552687 92.502872,24.7725955 94.3506153,22.581471 C96.1986153,20.4161245 97.122872,17.1423267 97.122872,12.7600778 C97.148282,8.40360679 96.1729487,5.23292079 94.2479487,3.2480198" id="Fill-7" fill="#FFFFFF" mask="url(#mask-4)"></path>
                    <polygon id="Fill-8" fill="#FFFFFF" mask="url(#mask-4)" points="145.298897 0.257830905 142.193231 7.78498791 139.113231 0.257830905 130.438154 0.257830905 137.727231 17.8383825 137.727231 25.8553203 146.736487 25.8553203 146.736487 17.8383825 153.999897 0.257830905"></polygon>
                    <path d="M58.032359,16.1628683 L59.4696923,7.21792489 L60.419359,7.21792489 L61.7796923,16.1628683 L58.032359,16.1628683 Z M53.2326923,0.257882461 L47.6116923,25.8553719 L56.2870257,25.8553719 L56.5950257,24.3342159 L56.877359,22.9164295 L62.7036923,22.9164295 L63.422359,25.8553719 L72.3286923,25.8553719 L66.6050257,0.257882461 L53.2326923,0.257882461 Z" id="Fill-9" fill="#FFFFFF" mask="url(#mask-4)"></path>
                    <polygon id="Fill-10" fill="#FFFFFF" mask="url(#mask-4)" points="0 5.92897659 0 7.34676301 8.29033333 7.34676301 8.29033333 25.8553203 17.094 25.8553203 17.094 7.34676301 22.6636667 7.34676301 22.6636667 0.257830905 5.67233333 0.257830905"></polygon>
                    <path d="M58.032359,16.1628683 L59.4696923,7.21792489 L60.419359,7.21792489 L61.7796923,16.1628683 L58.032359,16.1628683 Z M53.2326923,0.257882461 L47.6116923,25.8553719 L56.2870257,25.8553719 L56.5950257,24.3342159 L56.877359,22.9164295 L62.7036923,22.9164295 L63.422359,25.8553719 L72.3286923,25.8553719 L66.6050257,0.257882461 L53.2326923,0.257882461 Z" id="Fill-11" fill="#FFFFFF" mask="url(#mask-4)"></path>
                </g>
            </g>
        </g>
    </g>
</svg>