<?xml version="1.0" encoding="UTF-8" standalone="no"?>
<svg width="182px" height="38px" viewBox="0 0 182 38" version="1.1" xmlns="http://www.w3.org/2000/svg" xmlns:xlink="http://www.w3.org/1999/xlink">
    <!-- Generator: Sketch 39.1 (31720) - http://www.bohemiancoding.com/sketch -->
    <title>connectwise-by-wise-sync</title>
    <desc>Created with Sketch.</desc>
    <defs>
        <polygon id="path-1" points="25.8953492 0.242 0.385932828 0.242 0.385932828 30.1619515 25.8953492 30.1619515 25.8953492 0.242"></polygon>
        <polygon id="path-3" points="12.7700826 19.2581682 12.7700826 0.250278942 0.170633341 0.250278942 0.170633341 19.2581682 12.7700826 19.2581682"></polygon>
    </defs>
    <g id="Page-1" stroke="none" stroke-width="1" fill="none" fill-rule="evenodd">
        <g id="template-copy-226" transform="translate(-20.000000, -21.000000)">
            <g id="connectwise-by-wise-sync" transform="translate(20.000000, 21.000000)">
                <g id="Group-3" transform="translate(69.691460, 0.258200)">
                    <mask id="mask-2" fill="white">
                        <use xlink:href="#path-1"></use>
                    </mask>
                    <g id="Clip-2"></g>
                    <path d="M24.85393,0.2418 C24.8223433,0.4288 24.9140953,0.5493 25.0434507,0.6793 C25.2585416,0.8943 25.4495664,1.1343 25.6365802,1.3748 C25.6977482,1.4538 25.7258253,1.5633 25.7513956,1.6638 C25.794514,1.8348 25.8306132,2.0088 25.858189,2.1838 C25.9704975,2.8958 25.8301118,3.5383 25.4114617,4.1458 C24.9486904,4.8168 24.3625802,5.3583 23.7749658,5.9083 C23.0700292,6.5673 22.3896601,7.2523 21.6897372,7.9168 C21.1768281,8.4038 20.6498804,8.8768 20.1289493,9.3553 C19.696762,9.7528 19.2630705,10.1478 18.831886,10.5463 C18.3951862,10.9503 17.9619961,11.3583 17.5242937,11.7623 C16.8674893,12.3678 16.2377592,12.9998 15.6341008,13.6588 C15.3357813,13.9848 15.021919,14.2973 14.7286132,14.6278 C14.3560898,15.0483 13.997605,15.4813 13.633605,15.9093 C13.425032,16.1548 13.22047,16.4033 13.0083873,16.6458 C12.5741945,17.1413 12.1374948,17.6353 11.6987895,18.1268 C11.2916711,18.5828 10.8695113,19.0263 10.4734231,19.4913 C9.96753333,20.0848 9.48119725,20.6948 8.98633774,21.2973 C8.95023857,21.3408 8.91113113,21.3818 8.87653609,21.4258 C8.74216694,21.5963 8.60880055,21.7633 8.54161598,21.9793 C8.49950028,22.1143 8.40674545,22.2343 8.33605124,22.3603 C8.20067934,22.6043 8.2593405,22.7858 8.49799614,22.9213 C8.82790248,23.1088 9.17736253,23.2468 9.53885565,23.3568 C9.60002369,23.3753 9.66520275,23.3823 9.72937906,23.3888 C10.0617923,23.4223 10.3811697,23.5143 10.6809934,23.6538 C10.9261669,23.7678 11.1763543,23.8528 11.4415829,23.8803 C11.9444645,23.9318 12.4072358,24.1148 12.8765251,24.2828 C13.0489989,24.3443 13.2340072,24.3783 13.4165085,24.4013 C13.735886,24.4418 14.0477427,24.5043 14.3545857,24.6053 C14.8293901,24.7618 15.3087069,24.8993 15.8125912,24.9348 C16.2247234,24.9643 16.6213129,25.0728 17.0189052,25.1828 C17.3748832,25.2813 17.739886,25.3643 18.1063928,25.4043 C18.6147895,25.4593 19.0971146,25.5948 19.5739245,25.7658 C19.7398804,25.8258 19.9128556,25.8728 20.0863322,25.9023 C20.424762,25.9598 20.7461449,26.0513 21.0254121,26.2588 C21.0705361,26.2923 21.1206738,26.3213 21.1718143,26.3438 C21.4681284,26.4728 21.6701835,26.6888 21.790514,26.9868 C21.8140788,27.0448 21.8521835,27.1008 21.8948006,27.1473 C22.0868281,27.3573 22.1825912,27.6108 22.2312248,27.8838 C22.279357,28.1518 22.3124479,28.4228 22.359076,28.6913 C22.4182386,29.0298 22.3525581,29.3503 22.2151807,29.6553 C22.1680512,29.7603 22.0848226,29.8668 21.9890595,29.9283 C21.7779796,30.0638 21.5398253,30.1518 21.2851256,30.1598 C21.0354397,30.1673 20.7862551,30.1588 20.5440898,30.0753 C20.3846518,30.0198 20.2126793,30.0003 20.0542441,29.9438 C19.8887895,29.8843 19.7067895,29.8288 19.5779355,29.7183 C19.3813956,29.5503 19.1502606,29.4663 18.927649,29.3573 C18.7556766,29.2728 18.5872138,29.1808 18.4137372,29.0988 C18.3054397,29.0473 18.1946353,28.9808 18.0798198,28.9693 C17.6531477,28.9253 17.2791201,28.7308 16.8860402,28.5898 C16.6895003,28.5193 16.4839355,28.4748 16.2863928,28.4083 C16.1199355,28.3523 15.9489658,28.2983 15.7975499,28.2133 C15.5709273,28.0863 15.3342771,27.9993 15.0860953,27.9273 C14.8800292,27.8673 14.6744645,27.7848 14.4894562,27.6773 C14.2914121,27.5618 14.0913625,27.4678 13.8657427,27.4298 C13.641627,27.3918 13.4320512,27.3198 13.2304975,27.2098 C12.8820402,27.0198 12.4959796,26.9348 12.1149328,26.8338 C11.8832964,26.7728 11.6636931,26.6683 11.4360678,26.5913 C11.2761284,26.5368 11.1141835,26.4718 10.9487289,26.4548 C10.4894672,26.4073 10.0422386,26.3058 9.59701543,26.1918 C8.96026612,26.0283 8.30847548,25.9833 7.65618347,25.9498 C7.18037631,25.9258 6.70406777,25.9198 6.22826061,25.8933 C5.81763251,25.8703 5.40650303,25.8413 4.99838182,25.7928 C4.7612303,25.7648 4.53009532,25.6898 4.29545069,25.6408 C4.10743416,25.6013 3.91841488,25.5663 3.72889421,25.5348 C3.46767658,25.4923 3.2054562,25.4548 2.94373719,25.4158 C2.6484259,25.3718 2.36113664,25.3168 2.09640937,25.1573 C1.92644242,25.0543 1.72589146,25.0033 1.54038182,24.9248 C1.43709807,24.8813 1.32629366,24.8448 1.23805124,24.7793 C1.05755537,24.6453 0.878563636,24.5053 0.722133884,24.3453 C0.624866667,24.2463 0.551164187,24.1133 0.500525069,23.9823 C0.291952066,23.4453 0.393230303,22.9218 0.603307438,22.4103 C0.63589697,22.3303 0.695059504,22.2598 0.745197245,22.1878 C0.78681157,22.1288 0.842464463,22.0783 0.876558127,22.0158 C1.2300292,21.3693 1.77903747,20.8913 2.29294931,20.3843 C2.63087769,20.0513 2.97632672,19.7258 3.31676198,19.3948 C3.92142314,18.8063 4.5260843,18.2178 5.12773719,17.6258 C5.60404573,17.1568 6.02369862,16.6373 6.43833774,16.1148 C6.60278953,15.9078 6.75119725,15.6883 6.9141449,15.4798 C7.14177025,15.1883 7.36889421,14.8963 7.61005675,14.6163 C7.83517521,14.3543 8.07483361,14.1043 8.31499339,13.8558 C8.58272893,13.5788 8.84896033,13.2998 9.13223857,13.0393 C9.59952231,12.6093 10.0748281,12.1873 10.5571532,11.7738 C10.8549713,11.5193 11.1628171,11.2738 11.4826959,11.0473 C11.8316545,10.8003 12.1675774,10.5378 12.4789328,10.2473 C12.9437096,9.8143 13.3779025,9.3543 13.725357,8.8143 C13.9589989,8.4513 14.2257317,8.1068 14.5029934,7.7753 C14.8434287,7.3693 15.2229713,6.9948 15.5619025,6.5878 C15.7865196,6.3178 15.9660127,6.0108 16.1725802,5.7253 C16.3751366,5.4458 16.5671642,5.1548 16.7982992,4.8998 C17.240514,4.4113 17.6982716,3.9363 18.1675609,3.4733 C18.4698915,3.1743 18.7992964,2.9018 19.1246904,2.6273 C19.4255168,2.3743 19.7368722,2.1338 20.0447179,1.8898 C20.0818198,1.8603 20.1294507,1.8438 20.1695609,1.8183 C20.3390264,1.7108 20.5059851,1.5998 20.6769548,1.4943 C20.8328832,1.3983 20.9928226,1.3073 21.1512579,1.2148 C21.2750981,1.1418 21.3969328,1.0638 21.5252854,0.9983 C21.6962551,0.9098 21.8702331,0.8273 22.0462165,0.7503 C22.134459,0.7118 22.230222,0.6903 22.3229769,0.6633 C22.5340567,0.6008 22.6583983,0.4778 22.6248061,0.2418 L24.85393,0.2418 Z" id="Fill-1" fill="#FFFFFF" mask="url(#mask-2)"></path>
                </g>
                <path d="M0,11.3735 C0.718473829,11.3715 1.43744904,11.372 2.15592287,11.3665 C2.49435262,11.3645 2.76008264,11.5015 2.90949311,11.7975 C2.99071625,11.958 3.01127273,12.1515 3.04235813,12.333 C3.08848485,12.602 3.10803857,12.8755 3.16118457,13.1425 C3.19778512,13.33 3.26647383,13.5125 3.32964738,13.6935 C3.47053444,14.098 3.5512562,14.513 3.60289807,14.9385 C3.63799449,15.231 3.73927273,15.516 3.81397796,15.8035 C3.89119008,16.0985 4.00500275,16.3875 4.04360882,16.687 C4.1017686,17.1355 4.18700275,17.5715 4.33791736,17.999 C4.48281543,18.4085 4.54298072,18.8385 4.6121708,19.268 C4.67634711,19.67 4.82024242,20.059 4.92302479,20.4555 C4.98168595,20.6795 5.05288154,20.905 5.07393939,21.134 C5.11555372,21.586 5.22736088,22.016 5.37075482,22.445 C5.46701928,22.7325 5.50562534,23.0385 5.56980165,23.3365 C5.6465124,23.6895 5.70667769,24.047 5.80444628,24.3945 C5.93530579,24.8585 6.06315702,25.3185 6.12081543,25.8015 C6.16493664,26.172 6.2922865,26.5345 6.40409366,26.894 C6.43417631,26.991 6.53044077,27.0825 6.61918457,27.1435 C6.78012672,27.254 7.00524518,27.1835 7.08596694,27.005 C7.13560331,26.896 7.16317906,26.777 7.19727273,26.6615 C7.27849587,26.3845 7.35671074,26.107 7.43743251,25.83 C7.48907438,25.6535 7.55375207,25.4795 7.59386226,25.3005 C7.64249587,25.0815 7.65553168,24.854 7.71319008,24.638 C7.7683416,24.4305 7.86711295,24.235 7.93530028,24.03 C7.99797245,23.8395 8.06866667,23.6475 8.09523967,23.4505 C8.15540496,22.999 8.31885399,22.5805 8.46375207,22.1545 C8.54096419,21.928 8.56202204,21.683 8.6272011,21.452 C8.7249697,21.1045 8.84128926,20.7625 8.94657851,20.417 C9.00273278,20.2335 9.07793939,20.051 9.10050138,19.8625 C9.14612672,19.4915 9.25793388,19.1445 9.38528375,18.795 C9.50060055,18.48 9.55825895,18.144 9.64750413,17.819 C9.72421488,17.541 9.80995041,17.2655 9.89217631,16.989 C9.96688154,16.7355 10.0796915,16.4865 10.1097741,16.228 C10.1644242,15.757 10.355449,15.333 10.4998457,14.8925 C10.5424628,14.763 10.5845785,14.631 10.6036309,14.497 C10.6537686,14.145 10.719449,13.798 10.862843,13.471 C11.0157631,13.123 11.120551,12.764 11.1601598,12.3845 C11.1731956,12.2585 11.2037796,12.123 11.2674545,12.0165 C11.3301267,11.9135 11.4319063,11.8105 11.5402039,11.7635 C11.6840992,11.7015 11.8515592,11.6705 12.0094931,11.6665 C12.5825675,11.6535 13.1556419,11.659 13.7292176,11.654 C13.9738898,11.652 14.1513774,11.7615 14.2506501,11.978 C14.4146006,12.335 14.5955978,12.69 14.64373,13.0855 C14.684843,13.4235 14.7740882,13.7465 14.8833884,14.066 C14.9455592,14.248 15.0307934,14.423 15.0779229,14.6085 C15.1506226,14.8955 15.1962479,15.1895 15.2604242,15.479 C15.2844904,15.5875 15.3266061,15.692 15.3657135,15.797 C15.5146226,16.1965 15.6504959,16.597 15.7146722,17.0235 C15.7547824,17.29 15.8465344,17.5535 15.9488154,17.8045 C16.0616253,18.0825 16.1298127,18.3675 16.1849642,18.66 C16.232595,18.9105 16.2912562,19.1615 16.375989,19.4015 C16.512865,19.787 16.6522479,20.169 16.7169256,20.577 C16.7580386,20.837 16.8357521,21.0945 16.9239945,21.3435 C17.0473333,21.692 17.1676639,22.036 17.2213113,22.4065 C17.2614215,22.681 17.3742314,22.945 17.4559559,23.213 C17.5281543,23.451 17.6394601,23.684 17.6675372,23.9265 C17.7201818,24.39 17.9041873,24.8095 18.0345455,25.248 C18.1117576,25.5085 18.154876,25.779 18.2280771,26.041 C18.3123085,26.341 18.4040606,26.6395 18.5118567,26.9315 C18.5419394,27.013 18.6296804,27.085 18.7078953,27.1355 C18.9079449,27.2645 19.1290523,27.1935 19.2233113,26.9735 C19.2639229,26.8785 19.3040331,26.7745 19.3075427,26.673 C19.3205785,26.296 19.4890413,25.958 19.5632452,25.5965 C19.6048595,25.392 19.6880882,25.1925 19.7031295,24.9875 C19.7447438,24.4275 19.9307548,23.9055 20.0826722,23.3735 C20.1338127,23.196 20.1879614,23.0155 20.2030028,22.833 C20.2506336,22.274 20.4095702,21.7445 20.5780331,21.214 C20.6502314,20.9855 20.7018733,20.745 20.721427,20.5065 C20.756022,20.0855 20.8878843,19.691 20.9996915,19.289 C21.1024738,18.919 21.2218017,18.5545 21.2458678,18.162 C21.2629146,17.8865 21.3591791,17.6145 21.4298733,17.3435 C21.5532121,16.8695 21.7061322,16.405 21.7678017,15.913 C21.8124242,15.5585 21.9357631,15.2135 22.0209972,14.8635 C22.0931956,14.567 22.1919669,14.2725 22.222551,13.971 C22.2656694,13.551 22.3734656,13.152 22.4993113,12.7525 C22.576022,12.508 22.625157,12.2545 22.6878292,12.0055 C22.7113939,11.912 22.7319504,11.817 22.7645399,11.7265 C22.8683251,11.441 22.981135,11.3675 23.2884793,11.368 C23.8048981,11.369 24.3218182,11.3635 24.8387383,11.372 C24.9716033,11.374 25.1124904,11.3975 25.2343251,11.4485 C25.4293609,11.5305 25.5216143,11.7285 25.4539284,11.926 C25.3250744,12.302 25.2884738,12.6955 25.2057466,13.0795 C25.1295372,13.432 25.0021873,13.7725 24.9089311,14.1215 C24.8527769,14.331 24.7941157,14.5445 24.7800771,14.759 C24.7555096,15.1255 24.6462094,15.469 24.5409201,15.8145 C24.4195868,16.214 24.2907328,16.6075 24.255135,17.03 C24.2330744,17.291 24.1513499,17.5495 24.0736364,17.802 C23.9267328,18.2795 23.7858457,18.7545 23.7301928,19.2555 C23.6981047,19.5475 23.6043471,19.836 23.5110909,20.1165 C23.3862479,20.4915 23.3065289,20.872 23.2503747,21.263 C23.2047493,21.579 23.1145014,21.8905 23.0182369,22.1955 C22.9019174,22.565 22.7886061,22.932 22.754011,23.3205 C22.7108926,23.8055 22.5223747,24.255 22.394022,24.7195 C22.3258347,24.9665 22.2937466,25.223 22.2400992,25.4735 C22.1729146,25.787 22.1147548,26.1035 22.026011,26.411 C21.9101928,26.812 21.7678017,27.2025 21.7407273,27.6265 C21.7271901,27.8485 21.6645179,28.07 21.6038512,28.286 C21.5366667,28.5255 21.4444132,28.7575 21.3672011,28.9945 C21.3451405,29.0625 21.3316033,29.134 21.3210744,29.2055 C21.2719394,29.5485 21.1014711,29.6985 20.7550193,29.6975 C19.7377245,29.695 18.7199284,29.6915 17.7026336,29.69 C17.5091019,29.6895 17.3150689,29.6985 17.1215372,29.6965 C16.8447769,29.694 16.668292,29.5655 16.5810523,29.302 C16.4672397,28.959 16.3479118,28.6175 16.251146,28.27 C16.1844628,28.031 16.1649091,27.7795 16.1017355,27.5395 C16.0400661,27.3085 15.944303,27.0865 15.8731074,26.858 C15.8109366,26.659 15.727708,26.4585 15.7156749,26.255 C15.6891019,25.802 15.5146226,25.3935 15.3657135,24.98 C15.2714545,24.7195 15.2323471,24.453 15.1706777,24.189 C15.1160275,23.9555 15.0673939,23.72 14.9946942,23.4925 C14.8698512,23.1025 14.7169311,22.724 14.6642865,22.311 C14.6216694,21.978 14.533427,21.6525 14.3895317,21.341 C14.3027934,21.1535 14.245135,20.9455 14.214551,20.7405 C14.1373388,20.22 14.0074821,19.718 13.7964022,19.235 C13.7332287,19.09 13.6986336,18.927 13.680584,18.769 C13.6394711,18.408 13.555741,18.0635 13.4233774,17.7225 C13.2870028,17.3725 13.1977576,17.0035 13.165168,16.623 C13.1496253,16.4405 13.0984848,16.2595 13.0453388,16.083 C13.0277906,16.025 12.9560937,15.9475 12.9054545,15.9445 C12.8538127,15.941 12.7811129,16.0085 12.7460165,16.0635 C12.6773278,16.1715 12.6166612,16.2875 12.5735427,16.408 C12.4431846,16.771 12.314832,17.135 12.202022,17.5035 C12.1579008,17.6475 12.1729421,17.8095 12.1333333,17.9555 C12.0445895,18.2805 11.936292,18.6 11.8395262,18.923 C11.7723416,19.146 11.6755758,19.368 11.656022,19.596 C11.6169146,20.054 11.447449,20.468 11.2995427,20.8925 C11.2313554,21.0885 11.196259,21.2965 11.1501322,21.4995 C11.0969862,21.7335 11.0744242,21.9775 10.9932011,22.201 C10.8117025,22.7015 10.6532672,23.2035 10.5835758,23.7345 C10.5554986,23.9465 10.4642479,24.1515 10.3910468,24.3555 C10.2722204,24.6885 10.1754545,25.0235 10.112281,25.374 C10.0486061,25.727 9.9167438,26.0675 9.81646832,26.414 C9.75880992,26.614 9.67106887,26.8125 9.65502479,27.016 C9.61792287,27.4825 9.42689807,27.9015 9.30004959,28.3405 C9.2243416,28.6015 9.15164187,28.8665 9.11453994,29.1345 C9.06590634,29.484 8.88892011,29.68 8.5384573,29.683 C7.74728375,29.69 6.95611019,29.6875 6.16443526,29.6895 C5.7929146,29.6905 5.42139394,29.696 5.04987328,29.693 C4.93004408,29.692 4.80570248,29.6855 4.69188981,29.653 C4.43618733,29.5805 4.25117906,29.434 4.20856198,29.146 C4.17146006,28.8925 4.11831405,28.6415 4.06416529,28.391 C3.99798347,28.085 3.94333333,27.7745 3.84757025,27.4775 C3.72673829,27.102 3.62345455,26.7265 3.57231405,26.333 C3.53320661,26.0315 3.45047934,25.735 3.37477135,25.439 C3.28853444,25.105 3.1782314,24.777 3.09801102,24.4415 C3.04035262,24.2005 3.02781818,23.949 2.97166391,23.707 C2.91049587,23.442 2.8277686,23.182 2.74604408,22.922 C2.6567989,22.6385 2.5946281,22.352 2.55501928,22.056 C2.51340496,21.7475 2.45223691,21.4345 2.34644628,21.143 C2.18801102,20.707 2.10478237,20.261 2.03258402,19.8065 C1.98344904,19.4985 1.89470523,19.195 1.80596143,18.895 C1.68663361,18.494 1.56981267,18.097 1.53070523,17.6755 C1.50513499,17.4 1.41087603,17.128 1.32814876,16.86 C1.19678788,16.4375 1.06993939,16.016 1.02180716,15.5735 C0.989217631,15.269 0.916517906,14.975 0.802203857,14.6865 C0.656804408,14.3205 0.58861708,13.932 0.536473829,13.541 C0.50137741,13.28 0.456754821,13.017 0.385559229,12.7635 C0.308848485,12.49 0.293305785,12.4945 0,12.485 L0,11.3735 Z" id="Fill-4" fill="#FFFFFF"></path>
                <path d="M92.7409829,35.2497 C92.4857818,35.2732 92.2300793,35.2007 91.9894182,35.0167 C91.8064154,34.8767 91.5858094,34.7837 91.3747295,34.6847 C91.1365752,34.5727 90.9896716,34.3712 90.8392584,34.1747 C90.6412143,33.9147 90.6542501,33.6502 90.763049,33.3367 C90.9390325,32.8287 91.2884926,32.4792 91.6790656,32.1522 C91.9989444,31.8837 92.3283493,31.6272 92.6557488,31.3687 C92.7249388,31.3142 92.8051592,31.2737 92.8793631,31.2257 C92.9806413,31.1602 93.0884375,31.1022 93.1811923,31.0262 C93.5090931,30.7557 93.8349884,30.4822 94.1563713,30.2037 C94.4958039,29.9092 94.8252088,29.6017 95.1666468,29.3092 C95.4353851,29.0792 95.7166579,28.8652 95.9904099,28.6407 C96.1949719,28.4727 96.397027,28.3012 96.5980793,28.1292 C96.8793521,27.8887 97.1561124,27.6427 97.439892,27.4047 C97.7532529,27.1417 98.0701234,26.8827 98.3879967,26.6247 C98.7244209,26.3517 99.0613466,26.0797 99.4017818,25.8122 C99.7176496,25.5637 100.041539,25.3257 100.356404,25.0762 C100.670267,24.8277 100.975104,24.5677 101.288966,24.3182 C101.609848,24.0632 101.944267,23.8252 102.258129,23.5627 C102.720399,23.1757 103.16863,22.7722 103.625385,22.3792 C103.746718,22.2747 103.88209,22.1862 104.003925,22.0817 C104.296228,21.8302 104.585021,21.5747 104.873815,21.3192 C105.21074,21.0207 105.55619,20.7312 105.879578,20.4192 C106.412041,19.9062 106.95052,19.3972 107.444878,18.8492 C107.693561,18.5732 107.960294,18.2957 108.114217,17.9402 C108.164355,17.8247 108.256608,17.7267 108.33382,17.6237 C108.47571,17.4347 108.484234,17.2467 108.359892,17.0417 C108.237556,16.8397 108.064079,16.7057 107.85701,16.6042 C107.647936,16.5027 107.44538,16.3872 107.231793,16.2967 C107.055809,16.2222 106.8703,16.1387 106.684289,16.1252 C106.345859,16.1007 106.072107,15.9422 105.790333,15.7882 C105.762256,15.7727 105.740696,15.7402 105.712118,15.7322 C105.285446,15.6172 104.93398,15.3527 104.550928,15.1527 C104.459677,15.1052 104.34787,15.0992 104.254614,15.0552 C104.081639,14.9737 103.917187,14.8732 103.744713,14.7897 C103.615358,14.7272 103.483495,14.6592 103.344614,14.6282 C103.087909,14.5717 102.862289,14.4612 102.637672,14.3272 C102.454167,14.2172 102.240581,14.1572 102.041534,14.0722 C101.938752,14.0282 101.827947,13.9927 101.739705,13.9282 C101.517093,13.7652 101.284955,13.6337 101.012707,13.5637 C100.884355,13.5312 100.771545,13.4387 100.651214,13.3747 C100.474729,13.2807 100.298746,13.1857 100.120757,13.0947 C99.9633245,13.0142 99.7913521,12.9557 99.6484595,12.8557 C99.4469058,12.7152 99.23733,12.6132 98.9951647,12.5652 C98.8968948,12.5452 98.8006303,12.4892 98.7153961,12.4322 C98.4526744,12.2557 98.1794237,12.1137 97.8655614,12.0412 C97.6800518,11.9977 97.4975504,11.9132 97.3341014,11.8142 C97.1576165,11.7082 96.973611,11.6372 96.7770711,11.5892 C96.5329003,11.5302 96.3122942,11.4262 96.0962006,11.2942 C95.8861234,11.1667 95.6414512,11.0962 95.4133245,10.9982 C95.3476441,10.9697 95.2839691,10.9352 95.2233025,10.8977 C95.0463163,10.7877 94.86933,10.6777 94.6963548,10.5617 C94.1964815,10.2282 93.7417322,9.8522 93.4955559,9.2802 C93.4343879,9.1377 93.4348893,9.0037 93.4840242,8.8592 C93.5562226,8.6452 93.6234072,8.4307 93.7798369,8.2582 C93.8008948,8.2347 93.8164375,8.2042 93.826465,8.1742 C93.9673521,7.7432 94.319319,7.4687 94.599589,7.1417 C94.6933466,7.0322 94.7996386,6.9307 94.9114457,6.8397 C95.2037488,6.6022 95.4980573,6.3662 95.8013906,6.1427 C95.8956496,6.0732 96.0209939,6.0452 96.1328011,6.0007 C96.2451096,5.9562 96.3639361,5.9247 96.4707295,5.8697 C96.893892,5.6517 97.3210656,5.6692 97.7582667,5.8222 C97.9558094,5.8912 98.1573631,5.9607 98.3629278,5.9937 C98.638184,6.0382 98.8562832,6.1792 99.0783934,6.3277 C99.2097543,6.4157 99.3566579,6.4807 99.495038,6.5582 C99.5577102,6.5937 99.6258975,6.6257 99.6765366,6.6752 C99.889622,6.8807 100.144823,7.0147 100.417071,7.1202 C100.462195,7.1377 100.517347,7.1477 100.548432,7.1797 C100.796112,7.4327 101.145071,7.4867 101.441385,7.6432 C101.533639,7.6917 101.621881,7.7467 101.709622,7.8032 C101.843991,7.8892 101.979363,7.9752 102.108217,8.0692 C102.204983,8.1397 102.300746,8.2147 102.382471,8.3012 C102.834713,8.7817 103.262889,9.2872 103.739198,9.7422 C104.097683,10.0842 104.516333,10.3632 104.90841,10.6702 C105.01019,10.7492 105.10846,10.8337 105.217258,10.9017 C105.324553,10.9697 105.440873,11.0237 105.556691,11.0767 C105.651451,11.1202 105.765264,11.1337 105.845484,11.1937 C106.160349,11.4302 106.516327,11.5617 106.893864,11.6592 C107.037258,11.6962 107.163606,11.7957 107.300482,11.8612 C107.422818,11.9202 107.544652,11.9872 107.674509,12.0232 C107.948261,12.0992 108.206471,12.1902 108.442118,12.3622 C108.592531,12.4722 108.790074,12.5177 108.965556,12.5942 C109.068338,12.6387 109.188669,12.6662 109.267385,12.7382 C109.481473,12.9342 109.743192,13.0367 110.0009,13.1507 C110.074603,13.1832 110.16084,13.2062 110.214487,13.2602 C110.440608,13.4872 110.751462,13.5462 111.020702,13.6862 C111.119975,13.7377 111.226768,13.7812 111.312002,13.8502 C111.447875,13.9602 111.599291,14.0367 111.76625,14.0627 C112.131754,14.1192 112.454641,14.2817 112.786052,14.4282 C112.946994,14.4992 113.117964,14.5487 113.281914,14.6137 C113.394223,14.6577 113.51355,14.6957 113.610316,14.7637 C113.839947,14.9257 114.058548,15.1032 114.281159,15.2752 C114.553909,15.4857 114.650674,15.7762 114.643154,16.1052 C114.63463,16.4722 114.549396,16.7982 114.308735,17.1092 C113.995875,17.5137 113.650426,17.8772 113.272388,18.2142 C112.859253,18.5832 112.432079,18.9347 111.973319,19.2487 C111.696057,19.4387 111.44236,19.6637 111.18365,19.8792 C110.837198,20.1677 110.494757,20.4607 110.152818,20.7542 C109.854498,21.0102 109.564702,21.2767 109.259864,21.5252 C108.980096,21.7527 108.681776,21.9582 108.397997,22.1812 C108.132267,22.3892 107.876564,22.6097 107.613842,22.8212 C107.419809,22.9777 107.220763,23.1267 107.025727,23.2817 C106.819159,23.4467 106.608581,23.6027 106.384966,23.7472 C106.055561,23.9607 105.758746,24.2237 105.447892,24.4657 C105.429341,24.4807 105.4143,24.5012 105.394746,24.5152 C105.078878,24.7342 104.76301,24.9527 104.446641,25.1707 C104.38046,25.2167 104.309264,25.2557 104.247093,25.3057 C103.916685,25.5737 103.588785,25.8452 103.258878,26.1137 C102.747473,26.5292 102.225038,26.9317 101.726167,27.3607 C101.299495,27.7277 100.903909,28.1297 100.48576,28.5067 C99.9964154,28.9487 99.4980463,29.3817 99.0026854,29.8177 C98.7194072,30.0672 98.4386358,30.3192 98.1503438,30.5627 C97.9422722,30.7387 97.7226689,30.9017 97.5105862,31.0732 C97.0783989,31.4222 96.6657653,31.7972 96.2130215,32.1167 C95.6474678,32.5167 95.24787,33.0542 94.838746,33.5932 C94.4797598,34.0657 94.1513576,34.5632 93.689589,34.9537 C93.4679802,35.1412 93.2378479,35.2547 92.9490545,35.2497 C92.8923989,35.2487 92.8357433,35.2497 92.7409829,35.2497" id="Fill-6" fill="#FFFFFF"></path>
                <path d="M54.952368,18.70955 C54.9543736,18.70955 54.9563791,18.71005 54.9583846,18.71005 C54.9583846,18.76655 54.9543736,18.82305 54.958886,18.87905 C54.9964893,19.35005 55.2000485,19.53155 55.6663295,19.47455 C55.8017014,19.45805 55.9395802,19.45455 56.0764562,19.45505 C58.6114204,19.46455 61.1463846,19.47555 63.6813488,19.48605 C63.9551008,19.48705 64.1902468,19.35755 64.2423901,19.14955 C64.2809961,18.99555 64.2930292,18.83205 64.294032,18.67255 C64.2950347,18.48005 64.2764837,18.28705 64.2584342,18.09505 C64.2128088,17.60655 64.1666821,17.11855 64.1125333,16.63155 C64.0994975,16.51255 64.0659052,16.39305 64.0232882,16.28155 C63.9139879,15.99705 63.7841311,15.72055 63.6813488,15.43405 C63.5078722,14.94905 63.1478832,14.60105 62.8219879,14.22655 C62.7959163,14.19705 62.7583129,14.17755 62.7247207,14.15555 C62.5637785,14.05055 62.3963185,13.95455 62.2423956,13.84055 C62.0428474,13.69255 61.8227427,13.61355 61.5790733,13.57805 C61.3880485,13.55005 61.2010347,13.49505 61.0100099,13.46855 C60.5963736,13.41155 60.1812331,13.36105 59.7655912,13.31705 C59.6718336,13.30705 59.5735636,13.33405 59.4778006,13.34555 C59.365492,13.35955 59.2536848,13.37455 59.1418777,13.39105 C58.8315251,13.43605 58.5206711,13.47955 58.2113212,13.52955 C58.0443625,13.55655 57.8633653,13.56405 57.7174645,13.63705 C57.3810402,13.80505 57.0616628,14.00705 56.7362689,14.19805 C56.703178,14.21755 56.6811174,14.25655 56.6510347,14.28305 C56.3301532,14.56755 56.062919,14.89255 55.8302799,15.25455 C55.7109521,15.44055 55.6096738,15.62405 55.5429906,15.83255 C55.4918501,15.99305 55.4447207,16.15905 55.3645003,16.30505 C55.2456738,16.52055 55.1679603,16.75055 55.1368749,16.98555 C55.0606656,17.55855 55.012032,18.13455 54.952368,18.70955 M60.8821587,21.65305 L55.649784,21.65305 C55.5770843,21.65305 55.5033818,21.66005 55.4316848,21.65205 C55.1403846,21.62005 54.9222854,21.85905 54.9528694,22.14755 C55.0260705,22.83405 55.0787152,23.52305 55.1579328,24.20905 C55.1764837,24.37155 55.2657289,24.52655 55.3233873,24.68505 C55.3940815,24.88105 55.4537455,25.08255 55.5399824,25.27155 C55.6322358,25.47505 55.7410347,25.67255 55.8598612,25.86205 C55.9536187,26.01105 56.0729466,26.14355 56.1817455,26.28305 C56.2012992,26.30855 56.222357,26.33305 56.244919,26.35655 C56.5387262,26.65805 56.8876848,26.88955 57.2471725,27.10005 C57.4010953,27.19055 57.598638,27.20405 57.768605,27.27105 C58.5036242,27.56055 59.2677234,27.63755 60.0498722,27.61155 C60.6710788,27.59105 61.2932882,27.59255 61.913492,27.55855 C62.6379824,27.51855 63.36147,27.45105 64.085459,27.39405 C64.6078942,27.35305 65.1303295,27.30555 65.6537675,27.26955 C65.7976628,27.26005 65.9460705,27.26555 66.087459,27.29105 C66.3411559,27.33705 66.428897,27.45055 66.4424342,27.70205 C66.459481,28.01505 66.4790347,28.32855 66.4925719,28.64205 C66.4975857,28.75405 66.4965829,28.86805 66.4835471,28.97955 C66.4499548,29.25405 66.3035526,29.42255 66.0257895,29.50155 C65.8056848,29.56405 65.5855802,29.58355 65.3609631,29.60055 C64.7347427,29.64855 64.1100264,29.71955 63.4833047,29.75655 C62.508627,29.81305 61.5434755,29.98555 60.5642854,29.98905 C60.0157785,29.99055 59.4672716,30.03355 58.9192661,30.02605 C58.5908639,30.02155 58.2619603,29.96455 57.9355636,29.91455 C57.553514,29.85605 57.1759769,29.76705 56.7929245,29.71405 C56.4254149,29.66305 56.1000209,29.51855 55.7851559,29.33655 C55.7435416,29.31205 55.7039328,29.28155 55.6593102,29.26555 C54.9984948,29.03155 54.5246931,28.54755 54.0599163,28.05855 C53.7946876,27.77955 53.5389851,27.48605 53.3960926,27.11755 C53.3905774,27.10305 53.3810512,27.08855 53.3700209,27.07705 C53.124346,26.82105 53.0596683,26.48755 52.9598942,26.16505 C52.8866931,25.92955 52.7608474,25.71055 52.6756132,25.47805 C52.6149466,25.31305 52.5728309,25.13955 52.5412441,24.96655 C52.4735581,24.59605 52.4133928,24.22355 52.3587427,23.85105 C52.2609741,23.19205 52.126605,22.53755 52.1336242,21.86605 C52.1366325,21.55305 52.0930127,21.23855 52.1050457,20.92555 C52.1336242,20.15455 52.085492,19.37955 52.2158501,18.61355 C52.3020871,18.10705 52.396346,17.60155 52.4850898,17.09555 C52.5031394,16.99255 52.5176793,16.88855 52.5262028,16.78455 C52.5542799,16.43655 52.6430237,16.10705 52.8019603,15.79405 C52.8781697,15.64455 52.9639052,15.48705 52.9859658,15.32455 C53.0351008,14.96505 53.2441752,14.68905 53.4136408,14.39005 C53.4728033,14.28655 53.51893,14.17555 53.5715747,14.06805 C53.6036628,14.00355 53.6297344,13.93305 53.6723515,13.87605 C54.0017565,13.43955 54.3386821,13.00905 54.7493102,12.64355 C54.9107537,12.49955 55.0661807,12.34305 55.2476793,12.22955 C55.5936298,12.01255 55.9405829,11.78405 56.3161146,11.63005 C56.8119769,11.42655 57.3344121,11.28805 57.8468198,11.12705 C57.9300485,11.10105 58.0212992,11.09655 58.1090402,11.09105 C58.592368,11.06105 59.0756959,11.01905 59.5595251,11.01055 C59.9621311,11.00355 60.3657399,11.03605 60.768346,11.05255 C60.8977014,11.05805 61.0265554,11.07655 61.1554094,11.07305 C61.7144452,11.06005 62.2363791,11.21105 62.7472826,11.41855 C62.9027096,11.48205 63.0711725,11.51355 63.2260981,11.57705 C63.4035857,11.64955 63.5750567,11.73755 63.7445223,11.82655 C63.8939328,11.90505 64.0368253,11.99455 64.1822248,12.07955 C64.2654534,12.12805 64.3546986,12.16955 64.4299052,12.22755 C64.5948584,12.35505 64.7728474,12.47405 64.9097234,12.62805 C65.1965113,12.94955 65.54547,13.22455 65.7159383,13.63955 C65.7369961,13.69055 65.7650733,13.74355 65.803178,13.78255 C65.9942028,13.97805 66.0969851,14.21955 66.1947537,14.46805 C66.2920209,14.71455 66.4188694,14.94955 66.5111229,15.19805 C66.5833212,15.39205 66.6274424,15.59705 66.6765774,15.79905 C66.7332331,16.03255 66.7813653,16.26855 66.8350127,16.50355 C66.872616,16.66705 66.9237565,16.82855 66.9513322,16.99405 C66.9964562,17.27105 67.0415802,17.54905 67.062638,17.82855 C67.1092661,18.45255 67.1960044,19.07555 67.1508804,19.70405 C67.1248088,20.06405 67.0912165,20.42355 67.066649,20.78355 C67.0571229,20.91955 67.066649,21.05755 67.0591284,21.19405 C67.0470953,21.41955 66.9392992,21.55805 66.7161862,21.60005 C66.535189,21.63355 66.3481752,21.65055 66.1631669,21.65105 C64.4028309,21.65455 62.6424948,21.65305 60.8821587,21.65305" id="Fill-8" fill="#FFFFFF"></path>
                <path d="M139.714982,37.7574 C139.367528,37.7574 139.020575,37.7594 138.67312,37.7569 C138.356751,37.7544 138.309621,37.7169 138.369285,37.4019 C138.417418,37.1434 138.504657,36.8889 138.60393,36.6449 C138.719247,36.3599 138.801974,36.0714 138.852112,35.7679 C138.892723,35.5239 138.957902,35.2779 139.052161,35.0494 C139.210095,34.6679 139.322404,34.2814 139.393098,33.8729 C139.447247,33.5609 139.596156,33.2659 139.693423,32.9604 C139.758602,32.7549 139.818767,32.5464 139.860883,32.3354 C139.925561,32.0109 139.999263,31.6924 140.148172,31.3929 C140.208338,31.2719 140.239925,31.1359 140.275522,31.0044 C140.353737,30.7184 140.430448,30.4314 140.499638,30.1429 C140.555291,29.9094 140.505153,29.8129 140.280035,29.7354 C140.18377,29.7019 140.074971,29.6914 139.972189,29.6904 C139.447247,29.6874 138.922305,29.6904 138.397363,29.6919 C138.038878,29.6929 137.880442,29.5599 137.829302,29.2079 C137.787688,28.9199 137.703958,28.6459 137.598167,28.3739 C137.475831,28.0614 137.368035,27.7444 137.318398,27.4049 C137.274779,27.1069 137.155451,26.8194 137.067208,26.5279 C137.000024,26.3059 136.889219,26.0884 136.86766,25.8624 C136.823539,25.4039 136.638029,24.9949 136.494134,24.5694 C136.429958,24.3799 136.357759,24.1854 136.33971,23.9889 C136.304613,23.5959 136.141666,23.2459 136.022338,22.8799 C135.94312,22.6379 135.889974,22.3869 135.828305,22.1389 C135.777666,21.9369 135.756106,21.7239 135.678894,21.5334 C135.492883,21.0759 135.349991,20.6114 135.281803,20.1204 C135.252723,19.9084 135.176514,19.6969 135.086266,19.5009 C134.932845,19.1679 134.846608,18.8239 134.801484,18.4614 C134.776916,18.2654 134.706723,18.0724 134.636029,17.8859 C134.479599,17.4714 134.332696,17.0579 134.273032,16.6134 C134.241947,16.3854 134.164233,16.1589 134.076492,15.9439 C133.94463,15.6219 133.866916,15.2894 133.793214,14.9509 C133.717004,14.5999 133.58815,14.2599 133.483363,13.9149 C133.42771,13.7314 133.350999,13.5509 133.323423,13.3629 C133.265263,12.9609 133.171004,12.5744 132.974966,12.2149 C132.870178,12.0229 132.84912,11.8169 132.914299,11.6064 C132.968949,11.4304 133.046161,11.3664 133.229164,11.3659 C133.826305,11.3644 134.424448,11.3614 135.021588,11.3729 C135.407148,11.3804 135.670872,11.6064 135.756608,11.9819 C135.837831,12.3419 135.871423,12.7129 136.019831,13.0569 C136.054426,13.1374 136.075985,13.2249 136.115594,13.3029 C136.233418,13.5354 136.277037,13.7864 136.326172,14.0389 C136.37631,14.2969 136.443495,14.5544 136.530233,14.8024 C136.663098,15.1824 136.802481,15.5569 136.863649,15.9594 C136.902756,16.2194 136.975456,16.4814 137.080745,16.7219 C137.218624,17.0359 137.292327,17.3589 137.348481,17.6929 C137.382575,17.8969 137.443241,18.1004 137.520955,18.2929 C137.689418,18.7124 137.816767,19.1389 137.890971,19.5869 C137.93409,19.8444 138.054922,20.0889 138.136145,20.3409 C138.207842,20.5624 138.308619,20.7819 138.332685,21.0089 C138.378812,21.4479 138.553792,21.8429 138.691671,22.2519 C138.755346,22.4409 138.802475,22.6374 138.836569,22.8334 C138.900745,23.2009 139.025588,23.5474 139.156448,23.8944 C139.241181,24.1184 139.320398,24.3504 139.351985,24.5854 C139.396106,24.9164 139.488861,25.2234 139.615208,25.5319 C139.729522,25.8114 139.786178,26.1149 139.861385,26.4094 C139.895478,26.5419 139.90701,26.6799 139.939599,26.8124 C139.991743,27.0219 140.149677,27.1609 140.366773,27.1774 C140.559803,27.1924 140.753836,27.1929 140.947869,27.1914 C141.215104,27.1889 141.339947,27.0844 141.399109,26.8204 C141.425181,26.7029 141.430194,26.5789 141.467798,26.4654 C141.529467,26.2754 141.618211,26.0939 141.680382,25.9039 C141.754586,25.6754 141.840823,25.4449 141.870905,25.2084 C141.911015,24.8924 142.013296,24.6024 142.122095,24.3069 C142.231897,24.0074 142.296575,23.6914 142.384316,23.3834 C142.46955,23.0824 142.543252,22.7769 142.651048,22.4839 C142.773385,22.1509 142.894718,21.8234 142.923798,21.4634 C142.938338,21.2839 143.013043,21.1049 143.082233,20.9349 C143.234652,20.5614 143.350971,20.1829 143.413644,19.7814 C143.456762,19.5074 143.55804,19.2374 143.668343,18.9809 C143.778145,18.7264 143.85285,18.4669 143.894464,18.1954 C143.943599,17.8764 144.032845,17.5724 144.158189,17.2709 C144.277015,16.9844 144.328657,16.6704 144.41339,16.3694 C144.496117,16.0764 144.579847,15.7839 144.668591,15.4924 C144.734272,15.2784 144.847082,15.0714 144.87215,14.8534 C144.927803,14.3739 145.114316,13.9389 145.267737,13.4909 C145.342442,13.2719 145.384558,13.0409 145.428679,12.8129 C145.515919,12.3589 145.663324,11.9314 145.94209,11.5554 C146.041864,11.4209 146.165704,11.3604 146.334167,11.3619 C146.907241,11.3674 147.480817,11.3629 148.053891,11.3669 C148.328145,11.3694 148.417891,11.4459 148.460509,11.7114 C148.47555,11.8054 148.484073,11.9079 148.461511,11.9984 C148.394327,12.2704 148.321627,12.5419 148.230878,12.8064 C148.113555,13.1474 147.984701,13.4809 147.929048,13.8429 C147.884927,14.1334 147.772619,14.4144 147.68588,14.6979 C147.615688,14.9279 147.509897,15.1514 147.471792,15.3864 C147.393076,15.8744 147.232635,16.3344 147.057153,16.7919 C147.00852,16.9189 146.96139,17.0529 146.95036,17.1869 C146.914762,17.6204 146.744795,18.0099 146.59388,18.4089 C146.512156,18.6254 146.464024,18.8564 146.419902,19.0844 C146.359737,19.3929 146.285533,19.6919 146.156679,19.9839 C146.044371,20.2384 145.980696,20.5194 145.932564,20.7954 C145.860867,21.2024 145.726498,21.5849 145.568062,21.9639 C145.503886,22.1179 145.458261,22.2849 145.438206,22.4504 C145.39258,22.8209 145.284283,23.1669 145.143396,23.5134 C145.020558,23.8154 144.976437,24.1489 144.889197,24.4659 C144.814492,24.7359 144.746806,25.0099 144.64252,25.2689 C144.521688,25.5704 144.436955,25.8744 144.396845,26.1964 C144.37328,26.3854 144.320635,26.5759 144.246933,26.7524 C144.075963,27.1624 143.943098,27.5789 143.863379,28.0184 C143.810734,28.3069 143.686393,28.5824 143.599153,28.8649 C143.527958,29.0944 143.441721,29.3219 143.402613,29.5569 C143.345958,29.8999 143.258217,30.2259 143.120839,30.5479 C143.012542,30.8029 142.978448,31.0889 142.90274,31.3589 C142.807478,31.6989 142.705699,32.0374 142.601412,32.3744 C142.540244,32.5729 142.431445,32.7639 142.409886,32.9654 C142.364762,33.3879 142.237412,33.7809 142.069952,34.1644 C141.923048,34.5004 141.903495,34.8659 141.808734,35.2134 C141.758597,35.3989 141.710464,35.5874 141.633252,35.7624 C141.508409,36.0454 141.439721,36.3399 141.376547,36.6404 C141.309864,36.9614 141.208084,37.2754 141.121847,37.5929 C141.097781,37.6804 141.039621,37.7309 140.949875,37.7379 C140.829043,37.7469 140.708211,37.7554 140.586878,37.7564 C140.29658,37.7594 140.005781,37.7574 139.714982,37.7574" id="Fill-10" fill="#FFFFFF"></path>
                <path d="M151.206904,20.6058 C151.206904,17.9478 151.206904,15.2903 151.206402,12.6323 C151.206402,12.4228 151.201388,12.2133 151.198882,12.0043 C151.194369,11.6078 151.472634,11.3718 151.83914,11.3693 C152.412215,11.3658 152.985791,11.3658 153.559366,11.3683 C153.783482,11.3698 153.828606,11.4168 153.918854,11.6213 C154.000077,11.8058 153.989548,11.9973 154.000579,12.1898 C154.013113,12.4183 154.196617,12.5438 154.40168,12.4693 C154.45232,12.4508 154.499449,12.4128 154.539559,12.3753 C154.701003,12.2228 154.883003,12.1203 155.105113,12.0703 C155.340259,12.0173 155.557857,11.9168 155.765928,11.7818 C155.916342,11.6843 156.106865,11.6448 156.28335,11.5918 C156.697488,11.4673 157.112127,11.3438 157.530275,11.2328 C157.762413,11.1713 157.999063,11.1168 158.237719,11.0913 C158.630298,11.0493 159.025884,11.0198 159.42097,11.0108 C159.775444,11.0023 160.130419,11.0263 160.484893,11.0408 C160.759146,11.0518 161.032898,11.0778 161.307152,11.0838 C161.678672,11.0918 162.014094,11.2198 162.349515,11.3593 C162.586667,11.4578 162.830336,11.5398 163.066986,11.6403 C163.168264,11.6833 163.259515,11.7518 163.353273,11.8128 C163.393383,11.8388 163.421961,11.8843 163.463576,11.9058 C163.849135,12.1008 164.112358,12.4283 164.379592,12.7493 C164.460815,12.8463 164.518975,12.9633 164.581647,13.0743 C164.716017,13.3118 164.849383,13.5498 164.976733,13.7913 C165.024865,13.8828 165.063471,13.9808 165.092551,14.0798 C165.166253,14.3333 165.221405,14.5923 165.304634,14.8423 C165.496661,15.4188 165.592926,16.0123 165.621504,16.6158 C165.654595,17.2993 165.686182,17.9833 165.691697,18.6673 C165.711752,21.2278 165.721278,23.7888 165.733311,26.3493 C165.737824,27.2918 165.738325,28.2343 165.741835,29.1763 C165.742837,29.5073 165.582898,29.6808 165.245972,29.6948 C165.101074,29.7013 164.955174,29.6898 164.810275,29.6903 C164.398143,29.6918 163.98551,29.6793 163.574882,29.7028 C163.263025,29.7203 163.050441,29.5078 163.053449,29.1918 C163.06849,27.4923 163.065983,25.7928 163.064981,24.0933 C163.064479,22.3053 163.069994,20.5173 163.048435,18.7298 C163.040413,18.0638 163.007824,17.3938 162.866435,16.7378 C162.796744,16.4163 162.71151,16.0988 162.631791,15.7798 C162.591179,15.6173 162.555581,15.4528 162.502435,15.2943 C162.432744,15.0868 162.324446,14.8993 162.168017,14.7408 C162.123895,14.6963 162.101835,14.6308 162.062226,14.5803 C161.963956,14.4538 161.88524,14.2913 161.755884,14.2148 C161.411438,14.0108 161.098579,13.7478 160.709008,13.6238 C160.678926,13.6143 160.646837,13.6063 160.614749,13.6033 C160.173036,13.5683 159.730821,13.5028 159.289107,13.5068 C158.66038,13.5128 158.029647,13.5433 157.405433,13.6143 C156.994804,13.6608 156.592198,13.7873 156.208143,13.9588 C156.077785,14.0168 155.933388,14.0488 155.792501,14.0773 C155.561868,14.1238 155.345774,14.1898 155.136198,14.3073 C154.913587,14.4323 154.666408,14.5188 154.421736,14.5968 C154.126424,14.6913 154.009603,14.8183 154.003587,15.1323 C153.998072,15.4383 153.999074,15.7443 153.999074,16.0508 C153.999074,20.3033 153.999074,24.5558 153.999576,28.8083 C153.999576,28.9693 154.008099,29.1303 154.002083,29.2913 C153.993058,29.5398 153.839135,29.6943 153.588446,29.6958 C152.998826,29.6993 152.409207,29.7038 151.820088,29.6883 C151.664661,29.6843 151.505223,29.6228 151.359322,29.5613 C151.237989,29.5098 151.202391,29.3828 151.201388,29.2558 C151.199383,29.1028 151.205399,28.9498 151.205399,28.7968 C151.205901,26.0663 151.205399,23.3363 151.205399,20.6058 L151.206904,20.6058 Z" id="Fill-12" fill="#FFFFFF"></path>
                <path d="M123.997302,30.0313 C123.402668,30.0423 122.866194,29.9938 122.327715,29.9293 C121.478883,29.8288 120.625037,29.7713 119.775203,29.6823 C119.457329,29.6493 119.143467,29.5793 118.828101,29.5258 C118.590448,29.4858 118.354801,29.4353 118.116145,29.4068 C117.794261,29.3678 117.569644,29.1413 117.57215,28.8143 C117.574156,28.6058 117.605743,28.3973 117.618277,28.1888 C117.630812,27.9798 117.635324,27.7708 117.646354,27.5618 C117.650867,27.4733 117.653875,27.3838 117.672927,27.2978 C117.726073,27.0558 117.85593,26.9583 118.104112,26.9768 C118.199374,26.9838 118.293131,27.0118 118.386889,27.0323 C118.44204,27.0438 118.495186,27.0658 118.550338,27.0708 C119.071269,27.1203 119.589192,27.1898 120.114635,27.1968 C120.434514,27.2013 120.75339,27.2683 121.071765,27.3108 C121.41571,27.3563 121.75815,27.4138 122.103098,27.4508 C122.407936,27.4833 122.716283,27.4833 123.020117,27.5183 C123.674415,27.5938 124.3242,27.5678 124.975991,27.4878 C125.394641,27.4363 125.800255,27.3498 126.19885,27.2138 C126.379346,27.1523 126.572878,27.1288 126.760393,27.0878 C126.79198,27.0808 126.82858,27.0788 126.852646,27.0608 C127.105842,26.8768 127.361043,26.6953 127.605214,26.5008 C127.677412,26.4433 127.719528,26.3478 127.77117,26.2668 C127.835847,26.1653 127.885985,26.0528 127.959688,25.9588 C128.126145,25.7468 128.199847,25.5008 128.222911,25.2433 C128.27004,24.7138 128.29561,24.1823 128.223913,23.6523 C128.214387,23.5813 128.209875,23.5018 128.174277,23.4433 C127.953671,23.0798 127.747104,22.7023 127.336475,22.5038 C127.229181,22.4518 127.140437,22.3628 127.034646,22.3063 C126.922338,22.2468 126.80301,22.1958 126.681677,22.1593 C126.497671,22.1038 126.301131,22.0838 126.123644,22.0143 C125.58717,21.8033 125.036156,21.6778 124.460575,21.6218 C124.005324,21.5773 123.55609,21.4683 123.105352,21.3798 C122.624029,21.2853 122.150228,21.1603 121.656872,21.1168 C121.376602,21.0918 121.090817,21.0328 120.821076,20.9093 C120.56788,20.7933 120.288613,20.7348 120.02188,20.6473 C119.86896,20.5973 119.703506,20.5643 119.570139,20.4813 C119.345021,20.3413 119.097842,20.2318 118.885759,20.0823 C118.61301,19.8898 118.381374,19.6343 118.151241,19.3888 C118.003836,19.2313 117.888018,19.0438 117.763175,18.8663 C117.722564,18.8083 117.688971,18.7413 117.669418,18.6738 C117.592707,18.4038 117.536553,18.1273 117.447809,17.8613 C117.259291,17.2938 117.220685,16.7103 117.247759,16.1213 C117.261798,15.8173 117.316949,15.5143 117.363076,15.2123 C117.379621,15.1028 117.424745,14.9973 117.455831,14.8893 C117.523015,14.6583 117.60123,14.4303 117.652371,14.1958 C117.687467,14.0338 117.74663,13.8913 117.847908,13.7623 C117.892531,13.7058 117.932139,13.6448 117.968239,13.5823 C118.309677,12.9938 118.79852,12.5423 119.335495,12.1398 C119.552591,11.9768 119.783726,11.8258 120.024889,11.7018 C120.201374,11.6113 120.405936,11.5758 120.596459,11.5123 C120.847148,11.4288 121.093324,11.3293 121.348024,11.2613 C121.618266,11.1893 121.894024,11.1213 122.171787,11.0943 C122.661633,11.0473 123.154487,11.0163 123.646338,11.0098 C124.154233,11.0033 124.66263,11.0328 125.170525,11.0483 C125.388624,11.0548 125.606222,11.0633 125.82382,11.0778 C126.346756,11.1123 126.8722,11.1303 127.392128,11.1943 C127.852393,11.2513 128.306641,11.3613 128.763396,11.4478 C128.78696,11.4523 128.811026,11.4558 128.835093,11.4583 C129.19458,11.4973 129.554068,11.5393 129.914558,11.5743 C130.236944,11.6063 130.478608,11.8218 130.45404,12.1608 C130.418442,12.6583 130.397385,13.1568 130.361787,13.6538 C130.346745,13.8618 130.238448,13.9673 130.034889,14.0183 C129.819296,14.0723 129.620751,13.9898 129.417192,13.9468 C129.370062,13.9368 129.326442,13.9108 129.279313,13.9043 C128.960938,13.8603 128.641561,13.8198 128.322685,13.7783 C127.901528,13.7233 127.479869,13.6688 127.058211,13.6148 C127.018101,13.6093 126.977489,13.6073 126.937379,13.6058 C126.049941,13.5713 125.162503,13.5423 124.275566,13.4998 C123.602718,13.4678 122.935886,13.5398 122.272564,13.6168 C122.011346,13.6473 121.762663,13.7973 121.511974,13.9013 C121.40869,13.9438 121.320949,14.0293 121.216161,14.0598 C120.957952,14.1343 120.788487,14.3068 120.642586,14.5158 C120.578409,14.6083 120.515236,14.7053 120.434013,14.7808 C120.295131,14.9098 120.222933,15.0733 120.199869,15.2468 C120.140206,15.6838 120.036922,16.1198 120.093076,16.5653 C120.120652,16.7878 120.161765,17.0093 120.213908,17.2268 C120.233462,17.3078 120.291621,17.3868 120.350283,17.4498 C120.515236,17.6258 120.685203,17.7973 120.862189,17.9613 C120.924861,18.0193 121.010597,18.0553 121.090316,18.0908 C121.391644,18.2243 121.690966,18.3613 121.997809,18.4803 C122.160756,18.5433 122.335737,18.6013 122.508211,18.6113 C122.929869,18.6348 123.33047,18.7478 123.733076,18.8548 C124.272057,18.9983 124.815048,19.1163 125.373583,19.1528 C125.861423,19.1843 126.320183,19.3378 126.780949,19.4863 C126.964453,19.5453 127.154977,19.6028 127.3455,19.6153 C127.637302,19.6343 127.889996,19.7478 128.144696,19.8673 C128.376834,19.9758 128.592927,20.1208 128.858657,20.1493 C128.927847,20.1568 128.998542,20.1943 129.058206,20.2333 C129.734564,20.6783 130.300117,21.2298 130.68317,21.9503 C130.731302,22.0408 130.758878,22.1448 130.78144,22.2463 C130.843109,22.5203 130.896756,22.7963 130.953913,23.0718 C130.956922,23.0873 130.962437,23.1028 130.963941,23.1188 C131.003048,23.5098 131.049677,23.8998 131.079258,24.2913 C131.111346,24.7123 130.989511,25.1193 130.943385,25.5328 C130.910795,25.8278 130.842106,26.1193 130.787456,26.4118 C130.770911,26.4983 130.762889,26.5913 130.724283,26.6688 C130.505682,27.1053 130.312652,27.5573 129.99528,27.9378 C129.928597,28.0183 129.859407,28.0973 129.794729,28.1793 C129.623759,28.3953 129.436244,28.5873 129.185054,28.7178 C129.051186,28.7873 128.944894,28.9073 128.818547,28.9933 C128.706239,29.0688 128.586409,29.1353 128.464073,29.1943 C128.291098,29.2768 128.11361,29.3493 127.937126,29.4248 C127.664376,29.5418 127.393131,29.6598 127.093307,29.6953 C126.852646,29.7238 126.612487,29.7578 126.374834,29.8033 C125.571627,29.9568 124.762905,30.0433 123.997302,30.0313" id="Fill-14" fill="#FFFFFF"></path>
                <path d="M42.0808066,30.0447 C41.4570931,30.0517 40.8403989,29.9892 40.2222006,29.9112 C39.4545917,29.8142 38.6809664,29.7662 37.9113521,29.6842 C37.5849554,29.6497 37.2625697,29.5827 36.9381785,29.5287 C36.701027,29.4887 36.4633741,29.4492 36.226724,29.4027 C35.9519691,29.3487 35.7198314,29.1007 35.7333686,28.8262 C35.7574347,28.3367 35.8110821,27.8487 35.8526964,27.3597 C35.8547019,27.3362 35.8602171,27.3122 35.8672364,27.2887 C35.9324154,27.0607 36.0532474,26.9722 36.2888948,26.9797 C36.329005,26.9807 36.3701179,26.9817 36.4092253,26.9892 C36.6925036,27.0422 36.9742777,27.1062 37.2590601,27.1472 C37.4500848,27.1742 37.6461234,27.1622 37.8386523,27.1807 C38.343038,27.2287 38.8464209,27.2837 39.3503052,27.3372 C39.7749719,27.3822 40.1991372,27.4287 40.6238039,27.4742 C41.209914,27.5372 41.7965256,27.5837 42.3876496,27.5657 C42.9301399,27.5487 43.4616,27.4632 43.9870435,27.3327 C44.2978975,27.2552 44.606746,27.1697 44.9165972,27.0877 C44.9552033,27.0777 45.0003273,27.0737 45.0309113,27.0517 C45.2770876,26.8717 45.5703934,26.7277 45.7533961,26.4967 C46.0647515,26.1042 46.3380022,25.6702 46.3946579,25.1472 C46.418724,24.9232 46.4603383,24.6982 46.4553245,24.4747 C46.4488066,24.1792 46.4046854,23.8837 46.3756055,23.5887 C46.3730986,23.5647 46.3705917,23.5372 46.3575559,23.5187 C46.1068672,23.1642 45.9729994,22.7172 45.5157433,22.5277 C45.3192033,22.4462 45.1552529,22.2877 44.9602171,22.2012 C44.7942612,22.1277 44.602735,22.1152 44.4267515,22.0622 C44.1570105,21.9807 43.8957928,21.8672 43.6230435,21.8047 C43.2780959,21.7252 42.9246248,21.6852 42.5756661,21.6252 C42.2507736,21.5692 41.925881,21.5132 41.6019912,21.4507 C41.2304705,21.3787 40.8614567,21.2942 40.4894347,21.2262 C40.1108948,21.1567 39.7268397,21.1152 39.351308,21.0337 C39.1256882,20.9847 38.9136055,20.8782 38.6924981,20.8057 C38.5094953,20.7457 38.3209774,20.7027 38.138476,20.6417 C37.9715174,20.5857 37.8030545,20.5277 37.6466248,20.4477 C37.4611152,20.3532 37.2756055,20.2497 37.1131592,20.1217 C36.8619691,19.9237 36.6258204,19.7057 36.3916771,19.4867 C36.2924044,19.3942 36.2141895,19.2792 36.1274512,19.1732 C35.9895725,19.0042 35.8677377,18.8307 35.8266248,18.6052 C35.7995504,18.4572 35.7303603,18.3157 35.6752088,18.1737 C35.3673631,17.3787 35.3618479,16.5547 35.4420683,15.7242 C35.4691427,15.4447 35.4626248,15.1597 35.574432,14.8927 C35.6546523,14.7002 35.7273521,14.5042 35.8025587,14.3097 C35.8170986,14.2727 35.8416661,14.2342 35.8411647,14.1967 C35.8396606,13.9812 35.9579857,13.8162 36.0677873,13.6477 C36.4533466,13.0572 36.9090986,12.5317 37.5017267,12.1367 C37.7288507,11.9857 37.9619912,11.8417 38.1996441,11.7072 C38.3029278,11.6492 38.4247625,11.6217 38.5390766,11.5837 C38.7667019,11.5077 38.9978369,11.4417 39.2229554,11.3587 C39.5939747,11.2217 39.9725146,11.1152 40.3681014,11.0897 C40.8754953,11.0567 41.3833906,11.0177 41.891286,11.0097 C42.3425256,11.0027 42.7942667,11.0342 43.2460077,11.0502 C43.4395394,11.0572 43.6330711,11.0637 43.8261014,11.0762 C44.3816275,11.1122 44.9391592,11.1302 45.4911758,11.1957 C45.9509388,11.2507 46.4021785,11.3757 46.8609388,11.4467 C47.2414843,11.5057 47.6275449,11.5302 48.0105972,11.5742 C48.1128782,11.5862 48.2191702,11.5997 48.3134292,11.6377 C48.4949278,11.7107 48.5952033,11.8592 48.5911923,12.0522 C48.5806634,12.5752 48.5691317,13.0987 48.5360408,13.6207 C48.512476,13.9867 48.2723163,14.1217 47.9073135,14.0312 C47.6430876,13.9657 47.371341,13.9292 47.1026028,13.8822 C46.7792143,13.8252 46.4548231,13.7717 46.1309333,13.7162 C46.1073686,13.7122 46.0838039,13.7062 46.0597377,13.7042 C45.6350711,13.6687 45.2109058,13.6222 44.7852364,13.6007 C44.003589,13.5607 43.2204375,13.5412 42.4387901,13.5022 C41.774465,13.4692 41.1151537,13.5402 40.4593521,13.6152 C40.1906138,13.6462 39.9349113,13.8007 39.6751978,13.9052 C39.5869554,13.9412 39.510746,14.0137 39.4204981,14.0382 C39.1893631,14.1012 39.0284209,14.2532 38.8760022,14.4222 C38.7792364,14.5297 38.6794623,14.6352 38.5902171,14.7492 C38.5360683,14.8177 38.4814182,14.8947 38.4573521,14.9767 C38.2583052,15.6557 38.157027,16.3357 38.3460463,17.0427 C38.4979636,17.6127 38.8865311,17.9267 39.3944264,18.1447 C39.6310766,18.2462 39.8642171,18.3572 40.1038755,18.4517 C40.2663218,18.5162 40.435286,18.5967 40.6047515,18.6062 C41.0193906,18.6292 41.4119691,18.7372 41.8070545,18.8452 C42.3284871,18.9877 42.8574402,19.0942 43.3959196,19.1457 C43.8637047,19.1907 44.3169499,19.2887 44.7631758,19.4382 C45.0439471,19.5317 45.3437708,19.5652 45.6320628,19.6382 C45.8170711,19.6852 46.0060904,19.7352 46.1760573,19.8197 C46.4357708,19.9492 46.6879636,20.0837 46.976757,20.1462 C47.0970876,20.1722 47.2134072,20.2462 47.3146854,20.3212 C47.5794127,20.5172 47.8431372,20.7157 48.0908176,20.9327 C48.3149333,21.1292 48.5014457,21.3592 48.6247846,21.6392 C48.6984871,21.8057 48.8413796,21.9452 48.8980353,22.1152 C48.9812639,22.3647 49.0404264,22.6277 49.0659967,22.8897 C49.1206468,23.4492 49.1778039,24.0122 49.1762997,24.5737 C49.1747956,25.0127 49.0935725,25.4527 49.0349113,25.8902 C49.0018204,26.1357 48.9426579,26.3772 48.8955284,26.6207 C48.8940242,26.6282 48.8945256,26.6372 48.8905146,26.6442 C48.6954788,27.0107 48.5220022,27.3922 48.2963824,27.7392 C48.1274182,27.9992 47.909319,28.2362 47.6786854,28.4457 C47.412454,28.6882 47.1116275,28.8937 46.8188231,29.1052 C46.7436165,29.1602 46.6418369,29.1792 46.5520904,29.2147 C46.4548231,29.2527 46.3560518,29.2872 46.2607901,29.3297 C46.0632474,29.4172 45.8747295,29.5302 45.6696661,29.5922 C45.4254953,29.6662 45.1687901,29.7052 44.9155945,29.7457 C44.3585642,29.8347 43.8015339,29.9302 43.2414953,29.9932 C42.8574402,30.0367 42.46787,30.0292 42.0808066,30.0447" id="Fill-16" fill="#FFFFFF"></path>
                <g id="Group-20" transform="translate(168.964187, 10.758200)">
                    <mask id="mask-4" fill="white">
                        <use xlink:href="#path-3"></use>
                    </mask>
                    <g id="Clip-19"></g>
                    <path d="M12.7411532,16.52965 C12.7516821,16.64115 12.7647179,16.72015 12.7652193,16.79915 C12.7677262,17.35465 12.7677262,17.91065 12.7672248,18.46615 C12.7672248,18.53065 12.7602055,18.59515 12.7576986,18.65915 C12.7536876,18.76565 12.7005416,18.81565 12.5922441,18.82515 C11.8622386,18.89115 11.1322331,18.95665 10.4032303,19.03065 C9.96251956,19.07565 9.52331295,19.13915 9.08310358,19.18865 C8.81837631,19.21865 8.55264628,19.25915 8.28791901,19.25815 C7.6667124,19.25665 7.04500441,19.24815 6.42530193,19.21215 C6.1219686,19.19465 5.82264628,19.10815 5.52131846,19.05565 C5.30672893,19.01815 5.09264077,18.97665 4.87604573,18.95215 C4.47745069,18.90715 4.13150028,18.73115 3.76950579,18.57215 C3.38896033,18.40515 3.03248099,18.22115 2.72062424,17.94815 C2.60129642,17.84315 2.47093829,17.75065 2.34910358,17.64865 C1.90237631,17.27465 1.64366556,16.75665 1.31375923,16.29365 C1.25860771,16.21665 1.22902645,16.12065 1.19192452,16.03215 C1.07510358,15.75115 0.955775758,15.47165 0.845974105,15.18815 C0.791323967,15.04665 0.742690358,14.90015 0.713109091,14.75215 C0.618850138,14.27165 0.539131129,13.78815 0.445874931,13.30765 C0.341087052,12.76915 0.294458953,12.22515 0.24482259,11.67965 C0.150563636,10.64965 0.167109091,9.61915 0.182651791,8.58965 C0.196188981,7.69665 0.266883196,6.80515 0.474954821,5.93015 C0.567208264,5.54015 0.623362534,5.14165 0.708095317,4.74965 C0.739682094,4.60215 0.797340496,4.45865 0.856001653,4.31865 C0.988365289,4.00015 1.12824959,3.68465 1.26462424,3.36765 C1.27766006,3.33815 1.28217245,3.30415 1.29921928,3.27765 C1.65870689,2.72615 2.01067383,2.16865 2.53210634,1.74665 C2.63238182,1.66565 2.7171146,1.56215 2.82491074,1.49615 C3.16634876,1.28715 3.50076749,1.05915 3.86476749,0.89865 C4.28141212,0.71415 4.72262424,0.58365 5.16032672,0.45115 C5.3739135,0.38615 5.60103747,0.35365 5.82465179,0.33565 C6.31550028,0.29615 6.80735152,0.26115 7.29920275,0.25165 C7.73439835,0.24365 8.17009532,0.27265 8.60579229,0.28715 C8.82339008,0.29465 9.04148926,0.30265 9.25908705,0.31765 C9.78202369,0.35415 10.3059631,0.38415 10.8268942,0.43915 C11.0720678,0.46515 11.3112248,0.54565 11.5538915,0.59615 C11.7579521,0.63865 11.9635168,0.67465 12.1685802,0.71215 C12.3495774,0.74515 12.5315774,0.77615 12.7020457,0.80615 C12.7862771,1.02115 12.7937978,2.51965 12.7170871,2.81765 C12.318492,2.98165 11.905357,2.96115 11.4887124,2.88215 C11.4255388,2.87015 11.3623653,2.85465 11.2986904,2.85215 C10.4358198,2.81515 9.57244793,2.78465 8.71007879,2.74315 C7.96503196,2.70765 7.2249989,2.77765 6.48646997,2.84915 C6.14102094,2.88265 5.81863526,3.01515 5.51931295,3.19615 C5.46466281,3.22965 5.40900992,3.26815 5.34784187,3.28465 C4.8168832,3.42665 4.48998512,3.82465 4.16007879,4.21915 C4.12899339,4.25615 4.10943967,4.30265 4.07634876,4.33715 C3.84170413,4.58265 3.71836529,4.88365 3.62661322,5.20415 C3.58550028,5.34915 3.51981983,5.48865 3.45815041,5.62715 C3.32578678,5.92415 3.24456364,6.23665 3.22400716,6.55715 C3.16634876,7.45665 3.09264628,8.35665 3.085627,9.25715 C3.07810634,10.15715 3.14278402,11.05765 3.17737906,11.95765 C3.18389697,12.13465 3.2054562,12.31165 3.20395207,12.48815 C3.19994105,13.04515 3.34885014,13.56565 3.56093278,14.07365 C3.61959394,14.21365 3.65118072,14.36415 3.70282259,14.50665 C3.74092727,14.61165 3.77652507,14.72315 3.84070138,14.81215 C4.02821653,15.07365 4.22575923,15.32765 4.42731295,15.57865 C4.49700441,15.66565 4.58173719,15.74515 4.67348926,15.80915 C4.92367658,15.98365 5.17837631,16.15315 5.43859118,16.31265 C5.52432672,16.36515 5.63061873,16.39015 5.73139559,16.41315 C5.94247548,16.46065 6.16558843,16.47215 6.36613939,16.54615 C6.81336804,16.71065 7.28115317,16.76815 7.7444259,16.78815 C8.3390595,16.81315 8.93870689,16.77965 9.5333405,16.73565 C10.2086959,16.68615 10.881043,16.59365 11.5553956,16.52715 C11.9404534,16.48915 12.326514,16.49515 12.7411532,16.52965" id="Fill-18" fill="#FFFFFF" mask="url(#mask-4)"></path>
                </g>
                <path d="M28.3999719,20.5931 C28.3999719,17.9361 28.3999719,15.2791 28.3994705,12.6216 C28.3994705,12.4126 28.3834264,12.2021 28.397465,11.9941 C28.4059884,11.8611 28.4466,11.7276 28.4902198,11.6006 C28.5398562,11.4566 28.6601868,11.3836 28.8085945,11.3831 C29.4864567,11.3791 30.164319,11.3806 30.8426826,11.3826 C30.9770518,11.3826 31.0818397,11.4571 31.1304733,11.5711 C31.1891344,11.7091 31.2372667,11.8581 31.2508039,12.0056 C31.2688534,12.2131 31.248297,12.4241 31.248297,12.6331 C31.248297,18.0201 31.2487983,23.4066 31.2498011,28.7931 C31.2498011,28.9381 31.2573218,29.0831 31.2538121,29.2281 C31.2472942,29.5041 31.1003906,29.6616 30.8221262,29.6791 C30.6130518,29.6921 30.4024733,29.6901 30.1923961,29.6901 C29.7727433,29.6901 29.3530904,29.6921 28.9334375,29.6816 C28.8241372,29.6791 28.7138342,29.6406 28.6085449,29.6051 C28.4616413,29.5556 28.3949581,29.4416 28.3949581,29.2891 C28.3949581,29.1361 28.3989691,28.9831 28.3989691,28.8301 L28.3989691,20.5931 L28.3999719,20.5931 Z" id="Fill-21" fill="#FFFFFF"></path>
                <path d="M28.389092,5.57435 C28.389092,5.22835 28.3921003,4.88185 28.3880893,4.53585 C28.3845796,4.18985 28.5134336,4.03885 28.8528661,4.03585 C29.4906182,4.02935 30.1283702,4.03285 30.7661223,4.03435 C30.8302986,4.03435 30.8974832,4.03635 30.9581499,4.05435 C31.1777532,4.11985 31.2634887,4.25585 31.2614832,4.51235 C31.2564694,5.05185 31.251957,5.59085 31.2489488,6.13035 C31.247946,6.29135 31.2579736,6.45235 31.2554667,6.61335 C31.2494501,6.99735 31.0870039,7.18935 30.7014446,7.20085 C30.1128275,7.21835 29.5232077,7.20885 28.9340893,7.20285 C28.5470259,7.19935 28.4046347,7.00335 28.3936044,6.61285 C28.3885906,6.43585 28.3986182,6.25885 28.3996209,6.08185 C28.4011251,5.91235 28.4001223,5.74335 28.4001223,5.57435 L28.389092,5.57435" id="Fill-23" fill="#FFFFFF"></path>
            </g>
        </g>
    </g>
</svg>