<?xml version="1.0" encoding="UTF-8" standalone="no"?>
<svg width="140px" height="40px" viewBox="0 0 140 40" version="1.1" xmlns="http://www.w3.org/2000/svg" xmlns:xlink="http://www.w3.org/1999/xlink">
    <!-- Generator: Sketch 3.8.3 (29802) - http://www.bohemiancoding.com/sketch -->
    <title>ico-workflowmax-white</title>
    <desc>Created with Sketch.</desc>
    <defs></defs>
    <g id="logos-white" stroke="none" stroke-width="1" fill="none" fill-rule="evenodd">
        <g id="ico-workflowmax-white" transform="translate(-40.000000, -20.000000)" fill="#FFFFFF">
            <g transform="translate(40.000000, 20.000000)">
                <path d="M94.4984756,15.0311561 L93.4391227,19.5726079 C92.8970995,21.8553222 92.7983253,23.9419185 92.7983253,23.9419185 L92.6989338,23.9419185 C92.6989338,23.9419185 92.5767008,21.8055242 91.9352861,19.5228099 L90.6777675,15.0311561 L87.671329,15.0311561 L86.5132019,19.5228099 C85.9705614,21.8055242 85.8470937,23.9419185 85.8470937,23.9419185 L85.7483195,23.9419185 C85.7483195,23.9419185 85.6254691,21.8307306 85.0328242,19.5474015 L83.8500036,15.0311561 L80.4984728,15.0311561 L83.6283791,26.3721824 L87.5231677,26.3721824 L88.50844,22.3465392 C88.9769999,20.4812671 89.101085,18.6639486 89.101085,18.6639486 L89.1986245,18.6639486 C89.1986245,18.6639486 89.3227095,20.5058587 89.7912694,22.3213328 L90.9006267,26.3721824 L94.8194916,26.3721824 L97.7777778,15.0311561 L94.4984756,15.0311561 L94.4984756,15.0311561 Z M26.4270271,14.7612634 C23.0989552,14.7612634 20.9049341,16.8232682 20.9049341,20.677385 C20.9049341,24.5062955 23.0989552,26.6666667 26.4270271,26.6666667 C29.7291708,26.6666667 31.9231919,24.5062955 31.9231919,20.677385 C31.9231919,16.8232682 29.7291708,14.7612634 26.4270271,14.7612634 L26.4270271,14.7612634 Z M26.4270271,24.1128301 C24.873186,24.1128301 24.1589254,23.0332593 24.1589254,20.677385 C24.1589254,18.4432391 24.8978796,17.3876452 26.4270271,17.3876452 C27.9302464,17.3876452 28.6698179,18.4432391 28.6698179,20.677385 C28.6698179,23.0332593 27.9549399,24.1128301 26.4270271,24.1128301 L26.4270271,24.1128301 Z M15.6038483,19.8916838 C15.1840581,21.9045054 14.9865098,23.9671249 14.9865098,23.9671249 L14.8883529,23.9671249 C14.8883529,23.9671249 14.6414175,21.9290969 14.1975511,19.8670922 L12.3986267,11.9141721 L8.40629854,11.9141721 L6.63083297,19.8916838 C6.21227746,21.9045054 5.9900356,23.9671249 5.9900356,23.9671249 L5.89126143,23.9671249 C5.89126143,23.9671249 5.66963691,21.9290969 5.22577052,19.8670922 L3.54969645,11.9141721 L0,11.9141721 L3.20460422,26.3721824 L7.91242773,26.3721824 L9.63788887,19.253532 C10.130525,17.1909124 10.2539927,15.1787056 10.2539927,15.1787056 L10.3527669,15.1787056 C10.3527669,15.1787056 10.451541,17.1909124 10.9194836,19.2289404 L12.5720988,26.3721824 L17.4515424,26.3721824 L20.6320705,11.9141721 L17.2293006,11.9141721 L15.6038483,19.8916838 L15.6038483,19.8916838 Z M53.388052,15.0311561 L49.5661092,15.0311561 L46.6584448,19.1551656 L46.0417237,19.1551656 L46.0417237,9.97451049 L42.73958,9.97451049 L42.73958,26.3721824 L46.0417237,26.3721824 L46.0417237,21.7083874 L46.7078319,21.7083874 L49.9118188,26.3721824 L53.7578377,26.3721824 L49.4438762,20.3085112 L53.388052,15.0311561 L53.388052,15.0311561 Z M66.100904,22.7393898 L66.100904,9.97451049 L63.166694,10.2689948 C62.3777354,9.9499189 61.7128618,9.77777778 60.6281981,9.77777778 C58.2619395,9.77777778 56.0191487,10.9317381 56.0191487,14.2208632 L56.0191487,15.0311561 L54.3424573,15.0311561 L54.3424573,17.5597863 L56.0191487,17.5597863 L56.0191487,26.3721824 L59.2972162,26.3721824 L59.2972162,17.5597863 L61.540007,17.5597863 L61.540007,15.0311561 L59.2972162,15.0311561 L59.2972162,14.0985201 C59.2972162,12.7238502 60.0861748,12.2818164 61.0473709,12.2818164 C61.7128618,12.2818164 62.2555024,12.4779343 62.7975256,12.8216018 L62.7975256,23.6966174 C62.7975256,25.832397 64.3260558,26.5928919 65.9774363,26.5928919 C66.5935401,26.5928919 67.209644,26.469934 67.8751349,26.2990224 L68.0239134,23.5490679 C67.7269736,23.6720259 67.4312685,23.7205942 67.1361807,23.7205942 C66.5435357,23.7205942 66.100904,23.4500868 66.100904,22.7393898 L66.100904,22.7393898 Z M36.8044875,18.1487548 L36.4106255,15.0311561 L33.5511135,15.0311561 L33.5511135,26.3721824 L36.8544919,26.3721824 L36.8544919,21.1925788 C36.8544919,18.8600666 38.455868,18.2219148 39.7621563,18.2219148 C40.2801033,18.2219148 40.6251955,18.271098 41.0449857,18.4186475 L41.4141542,14.785855 C38.4070983,14.6137139 37.2983583,16.1845016 36.8044875,18.1487548 L36.8044875,18.1487548 Z M74.5572069,14.7612634 C71.229135,14.7612634 69.0357313,16.8232682 69.0357313,20.677385 C69.0357313,24.5062955 71.229135,26.6666667 74.5572069,26.6666667 C77.859968,26.6666667 80.0527544,24.5062955 80.0527544,20.677385 C80.0527544,16.8232682 77.859968,14.7612634 74.5572069,14.7612634 L74.5572069,14.7612634 Z M74.5572069,24.1128301 C73.0039832,24.1128301 72.2891052,23.0332593 72.2891052,20.677385 C72.2891052,18.4432391 73.0280594,17.3876452 74.5572069,17.3876452 C76.0616609,17.3876452 76.7999978,18.4432391 76.7999978,20.677385 C76.7999978,23.0332593 76.0851198,24.1128301 74.5572069,24.1128301 L74.5572069,24.1128301 Z" id="Fill-1"></path>
                <path d="M139.555556,20.0003066 C139.555556,31.0451514 130.601796,40 119.554942,40 C108.510541,40 99.5555556,31.0451514 99.5555556,20.0003066 C99.5555556,8.9548486 108.510541,0 119.554942,0 C130.601796,0 139.555556,8.9548486 139.555556,20.0003066 Z M111.332359,15.735513 L109.085341,24.2666813 L108.846937,24.2666813 L106.584558,15.735513 C106.472729,15.3082573 106.329564,15.1605561 105.883478,15.1605561 L103.111111,15.1605561 L103.111111,26.6666667 L104.847527,26.6666667 L104.847527,16.7218778 L105.086546,16.7218778 L107.683796,26.1570026 C107.79501,26.5842583 107.874888,26.6666667 108.304998,26.6666667 L109.452163,26.6666667 C109.882274,26.6666667 109.946176,26.5842583 110.073365,26.1570026 L112.670616,16.8860607 L112.909634,16.8860607 L112.909634,26.6666667 L114.725928,26.6666667 L114.725928,15.1605561 L112.017463,15.1605561 C111.571377,15.1605561 111.443573,15.3082573 111.332359,15.735513 Z M133.04862,20.8150383 L136.761699,15.1605561 L134.78565,15.1605561 L132.125112,19.286046 L131.981332,19.286046 L129.304818,15.1605561 L127.233531,15.1605561 L130.945996,20.782075 L127.105727,26.6666667 L129.002512,26.6666667 L131.854143,22.3110672 L131.997308,22.3110672 L134.897479,26.6666667 L136.888889,26.6666667 L133.04862,20.8150383 Z M122.21476,15.1111111 L120.669436,15.1111111 C120.239326,15.1111111 120.143472,15.1770378 120.031644,15.5548485 L116.49491,26.6666667 L118.263277,26.6666667 L119.235326,23.4280176 L123.489115,23.4280176 L124.461164,26.6666667 L126.389286,26.6666667 L122.851937,15.5548485 C122.724748,15.1770378 122.613534,15.1111111 122.21476,15.1111111 Z M119.697387,21.8831776 L121.242711,16.7218778 L121.482344,16.7218778 L123.011693,21.8831776 L119.697387,21.8831776 Z" id="Combined-Shape"></path>
                <path d="M55.0435066,30.2351173 C54.0902159,30.2351173 53.1117902,31.1629101 53.1117902,32.8899817 C53.1117902,33.9738273 53.6696645,34.6898342 54.6223422,34.6898342 C55.3953966,34.6898342 55.9624666,34.4426413 56.2548908,33.5791055 L55.6620728,33.4230528 C55.5155541,33.8820315 55.275239,34.1482392 54.683034,34.1482392 C53.927145,34.1482392 53.6610818,33.35814 53.7211606,32.6139387 L56.2806389,32.6139387 C56.4001834,32.3385515 56.4516795,32.0448051 56.4516795,31.7510587 C56.4516795,30.9707947 56.0568761,30.2351173 55.0435066,30.2351173 L55.0435066,30.2351173 Z M55.7822303,32.0539846 L53.7984048,32.0539846 C53.952893,31.38322 54.3476964,30.7865476 55.0091759,30.7865476 C55.5670502,30.7865476 55.8245307,31.2278229 55.8245307,31.7326995 C55.8245307,31.8435101 55.816561,31.953665 55.7822303,32.0539846 L55.7822303,32.0539846 Z M76.2758349,30.2351173 C74.9620716,30.2351173 74.2405133,31.484851 74.2405133,32.8899817 C74.2405133,34.0472639 74.8590794,34.6898342 75.7437087,34.6898342 C77.0403066,34.6898342 77.7698346,33.4682949 77.7698346,32.0539846 C77.7698346,30.943256 77.2285126,30.2351173 76.2758349,30.2351173 L76.2758349,30.2351173 Z M75.8289224,34.1482392 C75.2367174,34.1482392 74.8762448,33.6794252 74.8762448,32.8073655 C74.8762448,31.7694178 75.3654576,30.8140863 76.1728427,30.8140863 C76.7736305,30.8140863 77.1175508,31.2920799 77.1175508,32.0998825 C77.1175508,33.1470098 76.6369206,34.1482392 75.8289224,34.1482392 L75.8289224,34.1482392 Z M58.4073048,31.3006038 L58.4845489,30.3367484 L57.9180919,30.3367484 L57.2228947,34.5796793 L57.8751785,34.5796793 L58.2785646,32.1274212 C58.4073048,31.3196186 59.1460285,30.943256 59.7296508,31.0717701 L59.9019175,30.2541322 C59.2667991,30.1439773 58.673981,30.6488539 58.4073048,31.3006038 L58.4073048,31.3006038 Z M46.4019723,30.3367484 L45.8612634,30.3367484 L45.6466963,31.0527552 C45.5437042,30.4928011 45.1660662,30.2351173 44.6161615,30.2351173 C43.4483037,30.2351173 42.6666667,31.5032101 42.6666667,32.9542387 C42.6666667,34.0748026 43.2331237,34.6898342 43.9975954,34.6898342 C44.496004,34.6898342 44.9680514,34.4511652 45.2089796,33.872852 C45.1740358,34.3593695 45.3977986,34.6262328 45.8269327,34.6262328 C45.9728382,34.6262328 46.1187438,34.5986941 46.2395144,34.5521405 L46.3247282,34.0472639 C46.221736,34.0748026 46.1444919,34.0839822 46.0758304,34.0839822 C45.8269327,34.0839822 45.81835,33.8820315 45.8526807,33.6709013 L46.4019723,30.3367484 L46.4019723,30.3367484 Z M45.4572643,32.0913586 L45.3377198,32.8073655 C45.2089796,33.6158238 44.7792324,34.1115209 44.1778317,34.1115209 C43.5942093,34.1115209 43.3023982,33.5882851 43.3023982,32.8716225 C43.3023982,31.6592629 43.8866336,30.7865476 44.6762403,30.7865476 C45.3119718,30.7865476 45.5608695,31.4481327 45.4572643,32.0913586 L45.4572643,32.0913586 Z M52.1511429,30.3367484 L51.421615,31.3287982 C51.0261986,31.8710488 51.0004505,31.9812037 51.0004505,31.9812037 L50.9667329,31.9812037 C50.9667329,31.9812037 50.9667329,31.8795727 50.7429701,31.3196186 L50.3481667,30.3367484 L49.6523565,30.3367484 L50.5713165,32.4401825 L48.8878848,34.5796793 L49.6180257,34.5796793 L50.4333805,33.5332077 C50.854545,32.9817774 50.8717103,32.8716225 50.8717103,32.8716225 L50.906041,32.8716225 C50.906041,32.8716225 50.8717103,32.9916127 51.1120254,33.5233724 L51.5840729,34.5796793 L52.2627178,34.5796793 L51.2928748,32.4211677 L52.8984493,30.3367484 L52.1511429,30.3367484 L52.1511429,30.3367484 Z M93.0972779,30.8967025 L94.1278127,30.8967025 L94.2222222,30.3367484 L93.1837177,30.3367484 L93.3461756,29.3446985 L92.6853092,29.4456739 L92.5394036,30.3367484 L91.9815293,30.3367484 L91.8871198,30.8967025 L92.4364114,30.8967025 L92.0238296,33.4040379 C91.8693414,34.304292 92.230427,34.6898342 92.8998762,34.6898342 C93.1322217,34.6898342 93.4411982,34.6262328 93.6815133,34.4787039 L93.6815133,33.8912111 C93.4068675,34.0564435 93.2431835,34.1023413 93.0028684,34.1023413 C92.771136,34.1023413 92.5908997,33.9279294 92.6681438,33.4781302 L93.0972779,30.8967025 L93.0972779,30.8967025 Z M72.4914854,31.3006038 L72.5687295,30.3367484 L72.0022725,30.3367484 L71.3064622,34.5796793 L71.9593591,34.5796793 L72.3627451,32.1274212 C72.4914854,31.3196186 73.230209,30.943256 73.8138314,31.0717701 L73.985485,30.2541322 C73.3503666,30.1439773 72.7575485,30.6488539 72.4914854,31.3006038 L72.4914854,31.3006038 Z M89.6911794,30.8140863 C90.2312753,30.8140863 90.4121246,31.1543863 90.4207073,31.6776221 L91.0300777,31.5674671 C91.0300777,30.7314701 90.643857,30.2351173 89.7684235,30.2351173 C88.4540471,30.2351173 87.7674326,31.5674671 87.7674326,32.8991613 C87.7674326,34.0472639 88.376803,34.6898342 89.2528496,34.6898342 C90.0859827,34.6898342 90.618109,34.2951124 90.9185028,33.4315766 L90.3177151,33.2853591 C90.1540311,33.7994153 89.8793853,34.1482392 89.3386764,34.1482392 C88.754441,34.1482392 88.402551,33.6892604 88.402551,32.7981859 C88.402551,31.8710488 88.8494635,30.8140863 89.6911794,30.8140863 L89.6911794,30.8140863 Z M69.1534353,30.2351173 C68.5777825,30.2351173 68.1229004,30.538699 67.8482546,31.1543863 L67.916916,30.3367484 L67.349846,30.3367484 L66.3456723,36.4444444 L66.9887603,36.4444444 L67.4099248,33.8820315 C67.4957516,34.3318307 67.891168,34.6898342 68.483373,34.6898342 C69.6941442,34.6898342 70.4500332,33.4958337 70.4500332,31.9812037 C70.4500332,30.8606398 69.9859554,30.2351173 69.1534353,30.2351173 L69.1534353,30.2351173 Z M68.4318769,34.1115209 C67.7618147,34.1115209 67.4528382,33.4682949 67.5558304,32.9542387 L67.6937663,32.1274212 C67.8225065,31.3379778 68.3460501,30.8055624 68.9388682,30.8055624 C69.4795772,30.8055624 69.7713883,31.2645412 69.7713883,31.9812037 C69.7713883,33.1470098 69.2735928,34.1115209 68.4318769,34.1115209 L68.4318769,34.1115209 Z M82.6711588,28.4444444 L82.0274577,28.4444444 L81.5977106,31.0527552 C81.4947184,30.4928011 81.1256631,30.2351173 80.5757584,30.2351173 C79.4079007,30.2351173 78.6268766,31.5032101 78.6268766,32.9542387 C78.6268766,34.0748026 79.1933336,34.6898342 79.9578053,34.6898342 C80.4556009,34.6898342 80.9540095,34.4885392 81.1679634,33.872852 C81.1336327,34.3593695 81.3573955,34.6262328 81.7865296,34.6262328 C81.9324352,34.6262328 82.0789538,34.5986941 82.1991113,34.5521405 L82.2849382,34.0472639 C82.181946,34.0748026 82.1047018,34.0839822 82.0354273,34.0839822 C81.7865296,34.0839822 81.7779469,33.8820315 81.8122776,33.6709013 L82.6711588,28.4444444 L82.6711588,28.4444444 Z M81.4260569,32.0913586 L81.2973167,32.8165451 C81.1679634,33.6158238 80.7388294,34.1115209 80.129459,34.1115209 C79.5458366,34.1115209 79.2534124,33.5882851 79.2534124,32.8808021 C79.2534124,31.6684425 79.8370347,30.7957271 80.6358372,30.7957271 C81.2715687,30.7957271 81.5290491,31.4573122 81.4260569,32.0913586 L81.4260569,32.0913586 Z M62.1928804,30.2351173 C60.8791171,30.2351173 60.1581718,31.484851 60.1581718,32.8899817 C60.1581718,34.0472639 60.7755119,34.6898342 61.6607542,34.6898342 C62.9573522,34.6898342 63.6874931,33.4682949 63.6874931,32.0539846 C63.6874931,30.943256 63.1461712,30.2351173 62.1928804,30.2351173 L62.1928804,30.2351173 Z M61.746581,34.1482392 C61.154376,34.1482392 60.7932903,33.6794252 60.7932903,32.8073655 C60.7932903,31.7694178 61.2831162,30.8140863 62.0898883,30.8140863 C62.691289,30.8140863 63.0345963,31.2920799 63.0345963,32.0998825 C63.0345963,33.1470098 62.5539661,34.1482392 61.746581,34.1482392 L61.746581,34.1482392 Z M86.8251767,30.3367484 L86.1722799,30.3367484 L85.7517285,32.9175204 C85.6229883,33.7167992 85.090862,34.1672541 84.5924534,34.1672541 C84.1283756,34.1672541 83.9309739,33.8171188 84.0253834,33.2204464 L84.4980439,30.3367484 L83.8451471,30.3367484 L83.3988476,33.0919324 C83.2351636,34.1023413 83.5619186,34.6898342 84.3950517,34.6898342 C84.9878698,34.6898342 85.3998385,34.4328061 85.6401536,33.7810562 C85.5714922,34.3134716 85.7173978,34.6262328 86.249524,34.6262328 C86.3960427,34.6262328 86.5419483,34.5986941 86.6621058,34.5521405 L86.7479326,34.0472639 C86.6449404,34.0748026 86.5676963,34.0839822 86.4990348,34.0839822 C86.249524,34.0839822 86.2415544,33.8820315 86.2752721,33.6709013 L86.8251767,30.3367484 L86.8251767,30.3367484 Z" id="Fill-4"></path>
            </g>
        </g>
    </g>
</svg>