<?xml version="1.0" encoding="UTF-8"?>
<svg width="51px" height="51px" viewBox="0 0 51 51" version="1.1" xmlns="http://www.w3.org/2000/svg" xmlns:xlink="http://www.w3.org/1999/xlink">
    <!-- Generator: Sketch 52.5 (67469) - http://www.bohemiancoding.com/sketch -->
    <title>xero-payroll</title>
    <desc>Created with Sketch.</desc>
    <defs>
        <polygon id="path-1" points="0.0002 0.114 50.987 0.114 50.987 50.9997 0.0002 50.9997"></polygon>
    </defs>
    <g id="Page-1" stroke="none" stroke-width="1" fill="none" fill-rule="evenodd">
        <g id="xero-payroll" transform="translate(-85.000000, -15.000000)">
            <g transform="translate(85.000000, 14.000000)">
                <g id="Group-3" transform="translate(0.000000, 0.886200)">
                    <mask id="mask-2" fill="white">
                        <use xlink:href="#path-1"></use>
                    </mask>
                    <g id="Clip-2"></g>
                    <path d="M25.4932,0.1137 C11.4122,0.1137 0.0002,11.5057 0.0002,25.5567 C0.0002,39.6077 11.4122,50.9997 25.4932,50.9997 C39.5702,50.9997 50.9872,39.6077 50.9872,25.5567 C50.9872,11.5057 39.5702,0.1137 25.4932,0.1137 M16.2512,31.2367 C16.0282,31.2367 15.8152,31.1427 15.6512,30.9727 L11.3742,26.6707 L7.0792,30.9927 C6.9182,31.1487 6.7112,31.2337 6.4932,31.2337 C6.0362,31.2337 5.6652,30.8597 5.6652,30.3997 C5.6652,30.1707 5.7562,29.9577 5.9212,29.7997 L10.2002,25.4817 L5.9152,21.1697 C5.7542,21.0087 5.6652,20.7967 5.6652,20.5727 C5.6652,20.1127 6.0362,19.7387 6.4932,19.7387 C6.7142,19.7387 6.9222,19.8237 7.0782,19.9797 L11.3782,24.2927 L15.6612,19.9877 C15.8192,19.8267 16.0292,19.7387 16.2512,19.7387 C16.7102,19.7387 17.0832,20.1127 17.0832,20.5727 C17.0832,20.7957 16.9972,21.0037 16.8402,21.1587 L12.5582,25.4857 L16.8412,29.8107 C16.9972,29.9697 17.0832,30.1787 17.0832,30.3997 C17.0832,30.8607 16.7102,31.2367 16.2512,31.2367 M27.9642,25.5887 C27.6742,25.9487 27.2062,26.1537 26.6492,26.1657 L18.6242,26.1667 C18.6252,26.1877 18.6272,26.2087 18.6272,26.2287 C18.6632,26.4257 18.7192,26.6367 18.7972,26.8697 C19.2932,28.1597 20.5622,29.5497 22.6352,29.5717 C23.2942,29.5677 23.9262,29.4057 24.5112,29.0917 C24.9192,28.8637 25.2912,28.5627 25.6142,28.1967 C25.7082,28.0877 25.7902,27.9787 25.8692,27.8717 L25.8882,27.8467 C26.1282,27.5317 26.3922,27.4657 26.5732,27.4657 C26.7592,27.4657 26.9482,27.5337 27.1072,27.6577 C27.2752,27.7857 27.3842,27.9827 27.4112,28.2097 C27.4422,28.4637 27.3662,28.7267 27.2042,28.9307 L27.1722,28.9647 C26.6832,29.5827 26.2192,30.0277 25.7142,30.3567 C25.1802,30.6967 24.6012,30.9457 23.9942,31.0917 C23.5272,31.2147 23.0732,31.2747 22.6062,31.2747 C22.3862,31.2747 22.1602,31.2607 21.9352,31.2337 C19.6042,30.9457 17.6472,29.2107 17.0652,26.9177 C16.9512,26.4657 16.8932,25.9957 16.8932,25.5237 C16.8932,23.6407 17.7972,21.8687 19.3112,20.7847 C20.2802,20.0917 21.4312,19.7247 22.6392,19.7247 C23.7352,19.7247 24.7932,20.0317 25.7012,20.6127 C27.0212,21.4527 27.8992,22.7577 28.2412,24.3867 C28.3252,24.8357 28.2262,25.2627 27.9642,25.5887 M33.1752,21.4787 C31.5232,21.6847 31.3592,22.4877 31.3592,24.4057 L31.3592,30.3297 C31.3592,30.7887 30.9882,31.1627 30.5322,31.1627 C30.0802,31.1627 29.7092,30.7887 29.7062,30.3297 L29.7032,20.6977 C29.7062,20.2327 30.0692,19.8687 30.5312,19.8687 C30.8892,19.8687 31.2072,20.1057 31.3152,20.4437 C31.8832,20.0267 32.5552,19.8067 33.2672,19.8067 L33.5022,19.8097 C33.9612,19.8097 34.3352,20.1847 34.3352,20.6457 C34.3352,21.1007 33.9822,21.4437 33.4962,21.4617 C33.4592,21.4617 33.3112,21.4627 33.1752,21.4787 M39.6572,31.1837 C36.5012,31.1837 33.9332,28.5997 33.9332,25.4227 C33.9332,22.2457 36.5012,19.6607 39.6572,19.6607 C42.8102,19.6607 45.3772,22.2457 45.3772,25.4227 C45.3772,28.5997 42.8102,31.1837 39.6572,31.1837" id="Fill-1" fill="#FEFEFE" mask="url(#mask-2)"></path>
                </g>
                <path d="M39.6572,22.2675 C37.4442,22.2675 35.6442,24.0805 35.6442,26.3095 C35.6442,28.5345 37.4442,30.3465 39.6572,30.3465 C41.8672,30.3465 43.6652,28.5345 43.6652,26.3095 C43.6652,24.0805 41.8672,22.2675 39.6572,22.2675 M39.6572,27.7775 C38.8512,27.7775 38.1952,27.1185 38.1952,26.3095 C38.1952,25.4995 38.8512,24.8415 39.6572,24.8415 C40.4612,24.8415 41.1152,25.4995 41.1152,26.3095 C41.1152,27.1185 40.4612,27.7775 39.6572,27.7775" id="Fill-4" fill="#FEFEFE"></path>
                <path d="M22.6104,22.3075 C20.7574,22.3075 19.1454,23.5685 18.6874,25.3765 L26.5384,25.3765 C26.0784,23.5655 24.4734,22.3075 22.6104,22.3075" id="Fill-6" fill="#FEFEFE"></path>
            </g>
        </g>
    </g>
</svg>